<svg width="162" height="47" viewBox="0 0 162 47" fill="none" xmlns="http://www.w3.org/2000/svg">
<path d="M10.6705 37L0.988636 2.09091H6.52841L13.3295 29.125H13.6534L20.7273 2.09091H26.2159L33.2898 29.142H33.6136L40.3977 2.09091H45.9545L36.2557 37H30.9545L23.608 10.8523H23.3352L15.9886 37H10.6705ZM50.348 37V10.8182H55.4446V37H50.348ZM52.9219 6.77841C52.0355 6.77841 51.2741 6.48295 50.6378 5.89204C50.0128 5.28977 49.7003 4.57386 49.7003 3.74432C49.7003 2.90341 50.0128 2.1875 50.6378 1.59659C51.2741 0.994317 52.0355 0.693181 52.9219 0.693181C53.8082 0.693181 54.5639 0.994317 55.1889 1.59659C55.8253 2.1875 56.1435 2.90341 56.1435 3.74432C56.1435 4.57386 55.8253 5.28977 55.1889 5.89204C54.5639 6.48295 53.8082 6.77841 52.9219 6.77841ZM62.3011 10.8182H67.3977V38.7045C67.3977 40.4545 67.0795 41.9318 66.4432 43.1364C65.8182 44.3409 64.8864 45.2557 63.6477 45.8807C62.4205 46.5057 60.9034 46.8182 59.0966 46.8182C58.9148 46.8182 58.7443 46.8182 58.5852 46.8182C58.4148 46.8182 58.2386 46.8125 58.0568 46.8011V42.4205C58.2159 42.4205 58.358 42.4205 58.483 42.4205C58.5966 42.4205 58.7273 42.4205 58.875 42.4205C60.0795 42.4205 60.9489 42.0966 61.483 41.4489C62.0284 40.8125 62.3011 39.8864 62.3011 38.6705V10.8182ZM64.8239 6.77841C63.9375 6.77841 63.1761 6.48295 62.5398 5.89204C61.9148 5.28977 61.6023 4.57386 61.6023 3.74432C61.6023 2.90341 61.9148 2.1875 62.5398 1.59659C63.1761 0.994317 63.9375 0.693181 64.8239 0.693181C65.7102 0.693181 66.4659 0.994317 67.0909 1.59659C67.7273 2.1875 68.0455 2.90341 68.0455 3.74432C68.0455 4.57386 67.7273 5.28977 67.0909 5.89204C66.4659 6.48295 65.7102 6.77841 64.8239 6.77841ZM81.8736 37.5795C80.2145 37.5795 78.7145 37.2727 77.3736 36.6591C76.0327 36.0341 74.9702 35.1307 74.1861 33.9489C73.4134 32.767 73.027 31.3182 73.027 29.6023C73.027 28.125 73.3111 26.9091 73.8793 25.9545C74.4474 25 75.2145 24.2443 76.1804 23.6875C77.1463 23.1307 78.2259 22.7102 79.419 22.4261C80.6122 22.142 81.8281 21.9261 83.0668 21.7784C84.6349 21.5966 85.9077 21.4489 86.8849 21.3352C87.8622 21.2102 88.5724 21.0114 89.0156 20.7386C89.4588 20.4659 89.6804 20.0227 89.6804 19.4091V19.2898C89.6804 17.8011 89.2599 16.6477 88.419 15.8295C87.5895 15.0114 86.3509 14.6023 84.7031 14.6023C82.9872 14.6023 81.6349 14.983 80.6463 15.7443C79.669 16.4943 78.9929 17.3295 78.6179 18.25L73.8281 17.1591C74.3963 15.5682 75.2259 14.2841 76.3168 13.3068C77.419 12.3182 78.6861 11.6023 80.1179 11.1591C81.5497 10.7045 83.0554 10.4773 84.6349 10.4773C85.6804 10.4773 86.7884 10.6023 87.9588 10.8523C89.1406 11.0909 90.2429 11.5341 91.2656 12.1818C92.2997 12.8295 93.1463 13.7557 93.8054 14.9602C94.4645 16.1534 94.794 17.7045 94.794 19.6136V37H89.8168V33.4205H89.6122C89.2827 34.0795 88.7884 34.7273 88.1293 35.3636C87.4702 36 86.6236 36.5284 85.5895 36.9489C84.5554 37.3693 83.3168 37.5795 81.8736 37.5795ZM82.9815 33.4886C84.3906 33.4886 85.5952 33.2102 86.5952 32.6534C87.6065 32.0966 88.3736 31.3693 88.8963 30.4716C89.4304 29.5625 89.6974 28.5909 89.6974 27.5568V24.1818C89.5156 24.3636 89.1634 24.5341 88.6406 24.6932C88.1293 24.8409 87.544 24.9716 86.8849 25.0852C86.2259 25.1875 85.5838 25.2841 84.9588 25.375C84.3338 25.4545 83.8111 25.5227 83.3906 25.5795C82.402 25.7045 81.4986 25.9148 80.6804 26.2102C79.8736 26.5057 79.2259 26.9318 78.7372 27.4886C78.2599 28.0341 78.0213 28.7614 78.0213 29.6705C78.0213 30.9318 78.4872 31.8864 79.419 32.5341C80.3509 33.1705 81.5384 33.4886 82.9815 33.4886ZM103.866 46.8182C103.105 46.8182 102.412 46.7557 101.787 46.6307C101.162 46.517 100.696 46.392 100.389 46.2557L101.616 42.0795C102.548 42.3295 103.378 42.4375 104.105 42.4034C104.832 42.3693 105.474 42.0966 106.031 41.5852C106.599 41.0739 107.099 40.2386 107.531 39.0795L108.162 37.3409L98.5824 10.8182H104.037L110.668 31.1364H110.94L117.571 10.8182H123.043L112.253 40.4943C111.753 41.858 111.116 43.0114 110.344 43.9545C109.571 44.9091 108.651 45.625 107.582 46.1023C106.514 46.5795 105.276 46.8182 103.866 46.8182ZM134.702 37.5795C133.043 37.5795 131.543 37.2727 130.202 36.6591C128.861 36.0341 127.798 35.1307 127.014 33.9489C126.241 32.767 125.855 31.3182 125.855 29.6023C125.855 28.125 126.139 26.9091 126.707 25.9545C127.276 25 128.043 24.2443 129.009 23.6875C129.974 23.1307 131.054 22.7102 132.247 22.4261C133.44 22.142 134.656 21.9261 135.895 21.7784C137.463 21.5966 138.736 21.4489 139.713 21.3352C140.69 21.2102 141.401 21.0114 141.844 20.7386C142.287 20.4659 142.509 20.0227 142.509 19.4091V19.2898C142.509 17.8011 142.088 16.6477 141.247 15.8295C140.418 15.0114 139.179 14.6023 137.531 14.6023C135.815 14.6023 134.463 14.983 133.474 15.7443C132.497 16.4943 131.821 17.3295 131.446 18.25L126.656 17.1591C127.224 15.5682 128.054 14.2841 129.145 13.3068C130.247 12.3182 131.514 11.6023 132.946 11.1591C134.378 10.7045 135.884 10.4773 137.463 10.4773C138.509 10.4773 139.616 10.6023 140.787 10.8523C141.969 11.0909 143.071 11.5341 144.094 12.1818C145.128 12.8295 145.974 13.7557 146.634 14.9602C147.293 16.1534 147.622 17.7045 147.622 19.6136V37H142.645V33.4205H142.44C142.111 34.0795 141.616 34.7273 140.957 35.3636C140.298 36 139.452 36.5284 138.418 36.9489C137.384 37.3693 136.145 37.5795 134.702 37.5795ZM135.81 33.4886C137.219 33.4886 138.423 33.2102 139.423 32.6534C140.435 32.0966 141.202 31.3693 141.724 30.4716C142.259 29.5625 142.526 28.5909 142.526 27.5568V24.1818C142.344 24.3636 141.991 24.5341 141.469 24.6932C140.957 24.8409 140.372 24.9716 139.713 25.0852C139.054 25.1875 138.412 25.2841 137.787 25.375C137.162 25.4545 136.639 25.5227 136.219 25.5795C135.23 25.7045 134.327 25.9148 133.509 26.2102C132.702 26.5057 132.054 26.9318 131.565 27.4886C131.088 28.0341 130.849 28.7614 130.849 29.6705C130.849 30.9318 131.315 31.8864 132.247 32.5341C133.179 33.1705 134.366 33.4886 135.81 33.4886ZM157.768 37.3239C156.837 37.3239 156.036 36.9943 155.365 36.3352C154.695 35.6648 154.359 34.858 154.359 33.9148C154.359 32.983 154.695 32.1875 155.365 31.5284C156.036 30.858 156.837 30.5227 157.768 30.5227C158.7 30.5227 159.501 30.858 160.172 31.5284C160.842 32.1875 161.178 32.983 161.178 33.9148C161.178 34.5398 161.018 35.1136 160.7 35.6364C160.393 36.1477 159.984 36.5568 159.473 36.8636C158.962 37.1705 158.393 37.3239 157.768 37.3239Z" fill="black"/>
</svg>
