<svg width="620" height="72" viewBox="0 0 620 72" fill="none" xmlns="http://www.w3.org/2000/svg">
<path d="M47.8926 63.6211C47.7949 64.1745 47.5671 64.5651 47.209 64.793C46.8835 65.0534 46.5742 65.4115 46.2812 65.8672H46.0859C45.7604 65.8672 45.4349 65.8997 45.1094 65.9648C44.8164 66.0299 44.5072 66.1113 44.1816 66.209C44.0189 66.1439 43.8236 66.0951 43.5957 66.0625C43.3678 66.0299 43.2214 65.916 43.1562 65.7207C42.8958 65.8509 42.5378 65.916 42.082 65.916C41.3333 65.916 40.6172 65.7044 39.9336 65.2812C39.2826 64.8581 38.599 64.5326 37.8828 64.3047C37.6875 63.9141 37.4434 63.556 37.1504 63.2305C36.89 62.9375 36.6133 62.6445 36.3203 62.3516C36.0599 62.0586 35.7995 61.7493 35.5391 61.4238C35.2786 61.0983 35.0671 60.7077 34.9043 60.252C34.8392 60.0566 34.7578 59.9427 34.6602 59.9102C34.5625 59.8776 34.416 59.8776 34.2207 59.9102C34.2533 59.5521 34.2044 59.2428 34.0742 58.9824C33.9766 58.722 33.7324 58.5592 33.3418 58.4941C33.3418 58.071 33.2767 57.7129 33.1465 57.4199C33.0163 57.127 32.8535 56.8665 32.6582 56.6387C32.4954 56.4434 32.3001 56.2318 32.0723 56.0039C31.877 55.776 31.7142 55.4993 31.584 55.1738C31.291 55.1087 30.998 55.0599 30.7051 55.0273C30.4447 55.0273 30.1517 55.0273 29.8262 55.0273C28.2637 55.0273 26.75 55.3203 25.2852 55.9062C25.1224 55.9714 24.9434 56.0527 24.748 56.1504C24.5853 56.248 24.4225 56.3294 24.2598 56.3945C24.1947 56.3945 24.1296 56.3945 24.0645 56.3945C24.0319 56.4271 23.9831 56.4434 23.918 56.4434C23.6901 56.4434 23.4785 56.3945 23.2832 56.2969C23.0879 56.2318 22.8763 56.1992 22.6484 56.1992C22.5508 56.1992 22.4368 56.2155 22.3066 56.248C22.209 56.3132 22.1113 56.362 22.0137 56.3945C21.5254 56.5573 21.0697 56.6549 20.6465 56.6875C19.3118 56.9479 17.8958 57.1432 16.3984 57.2734C14.9336 57.4036 13.5827 57.7454 12.3457 58.2988C12.0853 58.429 11.9225 58.6243 11.8574 58.8848C11.7923 59.1777 11.776 59.4544 11.8086 59.7148C11.4505 59.9753 11.1738 60.3171 10.9785 60.7402C10.8158 61.1634 10.653 61.6029 10.4902 62.0586C10.36 62.5469 10.2135 63.0189 10.0508 63.4746C9.88802 63.9303 9.66016 64.321 9.36719 64.6465C9.46484 64.8418 9.51367 65.0534 9.51367 65.2812C9.51367 65.7695 9.35091 66.2578 9.02539 66.7461C8.69987 67.2344 8.45573 67.7064 8.29297 68.1621C8.13021 68.6178 8 69.0573 7.90234 69.4805C7.80469 69.9362 7.6582 70.3431 7.46289 70.7012C7.26758 71.0592 7.00716 71.3522 6.68164 71.5801C6.32357 71.8079 5.83529 71.9219 5.2168 71.9219C4.63086 71.9219 4.1263 71.8079 3.70312 71.5801C3.27995 71.3522 2.93815 71.0592 2.67773 70.7012C2.41732 70.3431 2.20573 69.9199 2.04297 69.4316C1.88021 68.9434 1.75 68.4551 1.65234 67.9668C2.01042 67.2507 2.35221 66.6322 2.67773 66.1113C3.00326 65.5905 3.2474 64.9232 3.41016 64.1094C3.99609 63.6862 4.43555 63.1654 4.72852 62.5469C4.98893 61.9609 5.13542 61.3099 5.16797 60.5938C5.52604 60.3659 5.78646 60.0566 5.94922 59.666C6.07943 59.3079 6.16081 58.9173 6.19336 58.4941C5.41211 58.429 4.59831 58.3639 3.75195 58.2988C2.87305 58.2337 2.05924 58.071 1.31055 57.8105C1.31055 57.7454 1.32682 57.6803 1.35938 57.6152C1.35938 57.5501 1.35938 57.485 1.35938 57.4199C1.35938 56.9967 1.26172 56.6061 1.06641 56.248C0.871094 55.9225 0.773438 55.5645 0.773438 55.1738V54.7832C1.03385 54.5228 1.27799 54.2461 1.50586 53.9531C1.70117 53.6927 1.91276 53.4486 2.14062 53.2207C2.36849 52.9928 2.62891 52.7975 2.92188 52.6348C3.21484 52.5046 3.58919 52.4395 4.04492 52.4395C4.66341 52.4395 5.26562 52.472 5.85156 52.5371C6.4375 52.6348 7.03971 52.6836 7.6582 52.6836C8.08138 52.6836 8.52083 52.6348 8.97656 52.5371C9.69271 51.0723 10.3275 49.5911 10.8809 48.0938C11.4342 46.5638 11.8574 45.0176 12.1504 43.4551C12.3783 43.1296 12.5898 42.7552 12.7852 42.332C12.9805 41.8763 13.127 41.4043 13.2246 40.916C13.3548 40.4277 13.4362 39.9557 13.4688 39.5C13.5339 39.0117 13.5664 38.5723 13.5664 38.1816C13.9245 37.7585 14.1686 37.2376 14.2988 36.6191C14.4616 36.0007 14.5918 35.3659 14.6895 34.7148C14.7871 34.0312 14.8848 33.3639 14.9824 32.7129C15.1126 32.0618 15.3405 31.4922 15.666 31.0039V30.5645C15.6986 30.0762 15.6497 29.6367 15.5195 29.2461C15.6823 29.181 15.7799 29.0345 15.8125 28.8066C15.8451 28.5788 15.9102 28.3835 16.0078 28.2207C16.0404 26.7233 16.2031 25.2585 16.4961 23.8262C16.7891 22.3613 17.0332 20.8965 17.2285 19.4316V19.2852C17.2285 19.1224 17.1634 19.041 17.0332 19.041C16.9355 19.0085 16.8867 18.9108 16.8867 18.748C16.8867 18.4551 16.9193 18.0645 16.9844 17.5762C17.082 17.0879 17.1471 16.681 17.1797 16.3555C17.375 14.5977 17.4727 12.8561 17.4727 11.1309C17.4727 9.66602 17.4238 8.21745 17.3262 6.78516C17.2285 5.35286 17.1309 3.9043 17.0332 2.43945L17.4238 1.85352C17.554 1.6582 17.668 1.46289 17.7656 1.26758C18.0911 1.13737 18.3516 1.00716 18.5469 0.876953C18.7747 0.714193 19.0677 0.632812 19.4258 0.632812C19.5234 0.632812 19.6048 0.649089 19.6699 0.681641C19.735 0.681641 19.8001 0.681641 19.8652 0.681641C20.0605 0.811849 20.207 0.990885 20.3047 1.21875C20.4349 1.44661 20.5488 1.6582 20.6465 1.85352C20.7767 2.04883 20.9395 2.21159 21.1348 2.3418C21.3301 2.47201 21.6068 2.50456 21.9648 2.43945C22.1276 3.35091 22.5833 3.82292 23.332 3.85547C23.4948 4.3112 23.6901 4.76693 23.918 5.22266C24.1784 5.67839 24.5202 6.03646 24.9434 6.29688C24.9108 6.42708 24.8945 6.60612 24.8945 6.83398C24.8945 7.28971 24.9922 7.72917 25.1875 8.15234C25.4154 8.57552 25.6921 8.96615 26.0176 9.32422V9.42188C26.0176 9.77995 25.8874 10.0241 25.627 10.1543C25.9199 10.4798 26.1315 10.8704 26.2617 11.3262C26.3919 11.7819 26.5059 12.2539 26.6035 12.7422C26.7012 13.1979 26.8151 13.6374 26.9453 14.0605C27.1081 14.4837 27.3685 14.8092 27.7266 15.0371V15.1836C27.7266 15.3464 27.6615 15.444 27.5312 15.4766C27.4336 15.5091 27.3848 15.6068 27.3848 15.7695C27.9707 16.8438 28.3776 18.0156 28.6055 19.2852C28.8333 20.5547 29.1263 21.7754 29.4844 22.9473C29.6146 23.0775 29.7611 23.1589 29.9238 23.1914C30.1191 23.224 30.2656 23.3053 30.3633 23.4355C30.168 23.5658 30.0703 23.7936 30.0703 24.1191C30.0703 24.4447 29.9889 24.6888 29.8262 24.8516C30.0866 25.0794 30.2005 25.4212 30.168 25.877C30.168 26.3001 30.2982 26.6094 30.5586 26.8047V27C30.5586 27.1302 30.526 27.2441 30.4609 27.3418C30.3958 27.4069 30.3633 27.5046 30.3633 27.6348V27.8301C30.6237 28.9694 30.819 30.1087 30.9492 31.248C31.112 32.3874 31.2747 33.5267 31.4375 34.666C31.6003 35.8053 31.7793 36.9447 31.9746 38.084C32.1699 39.1908 32.4466 40.2812 32.8047 41.3555C32.8372 41.388 32.8535 41.4368 32.8535 41.502C32.8535 41.6647 32.7884 41.7624 32.6582 41.7949C32.528 41.7949 32.4629 41.8763 32.4629 42.0391C32.4629 42.2018 32.5117 42.3971 32.6094 42.625C32.7396 42.8203 32.8698 42.9831 33 43.1133C32.9674 43.2435 32.9512 43.4388 32.9512 43.6992C32.9512 44.1875 33.0326 44.6595 33.1953 45.1152C33.3906 45.571 33.5859 46.0267 33.7812 46.4824C34.0091 46.9056 34.2044 47.3613 34.3672 47.8496C34.5299 48.3379 34.5951 48.8587 34.5625 49.4121C34.7578 49.7051 35.002 49.9492 35.2949 50.1445C35.6204 50.3398 35.946 50.5189 36.2715 50.6816C36.597 50.8444 36.89 51.0397 37.1504 51.2676C37.4434 51.4954 37.6387 51.8047 37.7363 52.1953C37.4759 52.4232 37.2969 52.6999 37.1992 53.0254C37.1016 53.3835 36.9225 53.6927 36.6621 53.9531C36.89 54.5065 37.1504 55.0111 37.4434 55.4668C37.7689 55.9551 38.0944 56.4271 38.4199 56.8828L39.4453 58.25C39.8034 58.7057 40.1126 59.194 40.373 59.7148C40.7311 59.7148 40.9915 59.8125 41.1543 60.0078C41.3171 60.2031 41.5775 60.2845 41.9355 60.252C42.0658 60.5124 42.1146 60.8053 42.082 61.1309C42.7331 60.903 43.3841 60.7891 44.0352 60.7891C44.3932 60.7891 44.7188 60.8053 45.0117 60.8379C45.3372 60.8704 45.6628 60.8867 45.9883 60.8867C46.3789 60.8867 46.7207 60.8379 47.0137 60.7402C47.1439 60.9355 47.2415 61.1471 47.3066 61.375C47.3717 61.6354 47.4206 61.8958 47.4531 62.1562L47.5996 62.9375C47.6647 63.1979 47.7624 63.4258 47.8926 63.6211ZM29.4844 50.0957C29.0286 47.8496 28.5566 45.6198 28.0684 43.4062C27.6126 41.1602 27.2057 38.8978 26.8477 36.6191C26.6523 35.4147 26.5059 34.2103 26.4082 33.0059C26.3105 31.8014 26.1803 30.6133 26.0176 29.4414C25.8874 28.237 25.6921 27.0488 25.4316 25.877C25.2038 24.7051 24.862 23.5495 24.4062 22.4102V22.3125C24.4062 22.2148 24.4388 22.1335 24.5039 22.0684C24.569 22.0033 24.6016 21.8893 24.6016 21.7266V21.5312C24.1784 21.2383 23.8854 20.8314 23.7227 20.3105C23.5599 19.7572 23.4134 19.1875 23.2832 18.6016C23.1855 17.9831 23.0391 17.3971 22.8438 16.8438C22.681 16.2578 22.388 15.7695 21.9648 15.3789C21.8021 17.2669 21.623 19.1549 21.4277 21.043C21.265 22.8984 21.151 24.7702 21.0859 26.6582C20.7604 26.8535 20.5488 27.179 20.4512 27.6348C20.3535 28.0905 20.3047 28.4974 20.3047 28.8555C20.3047 29.1159 20.321 29.3926 20.3535 29.6855C20.3861 29.946 20.4512 30.2227 20.5488 30.5156C19.9629 31.9805 19.5397 33.4941 19.2793 35.0566C19.0189 36.5866 18.7259 38.1165 18.4004 39.6465C18.3678 39.7441 18.3027 39.972 18.2051 40.3301C18.14 40.6556 18.0586 40.9974 17.9609 41.3555C17.8633 41.7135 17.7819 42.0391 17.7168 42.332C17.6517 42.5924 17.6191 42.7389 17.6191 42.7715C17.5866 42.9993 17.5703 43.2272 17.5703 43.4551C17.6029 43.6829 17.6191 43.9108 17.6191 44.1387L16.8867 44.8711C16.7565 46.1081 16.5124 47.3125 16.1543 48.4844C15.8288 49.6237 15.487 50.7956 15.1289 52C15.3568 52.0326 15.5684 52.0488 15.7637 52.0488C15.9915 52.0814 16.2194 52.0977 16.4473 52.0977C17.4889 52.0977 18.5306 52.0326 19.5723 51.9023C20.6465 51.7396 21.7044 51.5931 22.7461 51.4629C23.1042 51.3978 23.4785 51.349 23.8691 51.3164C24.2598 51.2513 24.6341 51.2188 24.9922 51.2188C25.1549 51.1862 25.3503 51.1862 25.5781 51.2188C25.806 51.2188 26.0013 51.2025 26.1641 51.1699C26.4245 51.1048 26.5872 51.0072 26.6523 50.877C26.75 50.7142 26.929 50.6165 27.1895 50.584C27.3848 50.6816 27.6126 50.7305 27.873 50.7305C28.166 50.7305 28.4427 50.6654 28.7031 50.5352C28.9635 50.4049 29.224 50.2585 29.4844 50.0957ZM87.8828 39.4512C87.8828 39.8092 87.7526 40.0859 87.4922 40.2812C87.2318 40.444 87.1016 40.6719 87.1016 40.9648C87.1016 41.0951 87.1667 41.2578 87.2969 41.4531C86.8411 41.4531 86.5319 41.5996 86.3691 41.8926C86.2064 42.1855 86.0436 42.5111 85.8809 42.8691H85.2461C85.0833 42.8691 84.9531 42.9017 84.8555 42.9668C84.7578 43.0319 84.6602 43.1296 84.5625 43.2598C84.4974 43.3574 84.3997 43.5202 84.2695 43.748C83.651 43.8783 83.0488 44.0898 82.4629 44.3828C81.9095 44.6432 81.3561 44.9362 80.8027 45.2617C80.2819 45.5547 79.7448 45.8639 79.1914 46.1895C78.638 46.4824 78.0684 46.7266 77.4824 46.9219C77.1895 47.4102 76.7663 47.8008 76.2129 48.0938H76.0664C75.9036 48.1263 75.7572 48.11 75.627 48.0449C75.5293 47.9473 75.3991 47.8984 75.2363 47.8984C75.1387 47.8984 75.0736 47.9147 75.041 47.9473C74.0645 48.5983 72.974 48.9238 71.7695 48.9238C71.444 48.9238 71.1348 48.9076 70.8418 48.875C70.5488 48.8099 70.2396 48.7773 69.9141 48.7773C69.8164 48.7773 69.7513 48.8099 69.7188 48.875L69.6211 49.0703C69.5885 49.1354 69.5397 49.2005 69.4746 49.2656C69.4421 49.3307 69.3281 49.3633 69.1328 49.3633C68.7747 49.3633 68.4167 49.3145 68.0586 49.2168C67.7005 49.1191 67.3262 49.1029 66.9355 49.168C66.1868 48.7448 65.6009 48.3379 65.1777 47.9473C64.7546 47.5566 64.3639 46.9707 64.0059 46.1895C63.8431 45.8314 63.6152 45.4896 63.3223 45.1641C63.0618 44.8385 62.8665 44.4805 62.7363 44.0898C62.7038 43.9596 62.6549 43.7318 62.5898 43.4062C62.5247 43.0482 62.4596 42.6738 62.3945 42.2832C62.3294 41.8926 62.2643 41.5182 62.1992 41.1602C62.1667 40.8021 62.1504 40.5579 62.1504 40.4277C62.1504 40.0371 62.1667 39.6628 62.1992 39.3047C62.2643 38.9141 62.3294 38.5234 62.3945 38.1328C62.5898 36.8958 62.7201 35.6589 62.7852 34.4219C62.8828 33.1523 63.1595 31.9316 63.6152 30.7598C63.5501 30.4017 63.5176 30.0599 63.5176 29.7344V28.6602C63.5176 28.0417 63.4362 27.5208 63.2734 27.0977C63.5339 26.6745 63.6641 26.2025 63.6641 25.6816C63.6641 25.0957 63.4199 24.7539 62.9316 24.6562V24.5098C62.9316 23.8262 62.7038 23.2891 62.248 22.8984C62.248 21.7591 62.5247 20.9128 63.0781 20.3594C63.6641 19.7734 64.429 19.2689 65.373 18.8457C65.5033 18.6504 65.5521 18.4876 65.5195 18.3574C65.7474 18.4225 65.959 18.4876 66.1543 18.5527C66.3496 18.6178 66.5449 18.6504 66.7402 18.6504C67.0658 18.6504 67.3587 18.6016 67.6191 18.5039C67.7168 18.8945 67.9609 19.1387 68.3516 19.2363C68.7747 19.3014 69.1165 19.3991 69.377 19.5293V20.1641C69.377 21.1732 69.6211 22.1335 70.1094 23.0449C69.9792 23.3053 69.8978 23.582 69.8652 23.875C69.8327 24.168 69.8164 24.4447 69.8164 24.7051C69.8164 25.0957 69.8327 25.4863 69.8652 25.877C69.8978 26.2676 69.9141 26.6419 69.9141 27C69.9141 27.3906 69.8652 27.7812 69.7676 28.1719C69.7025 28.5625 69.5234 28.9043 69.2305 29.1973C69.1979 29.6204 69.1654 30.1087 69.1328 30.6621C69.1328 31.1829 69.1003 31.7201 69.0352 32.2734C69.0026 32.8268 68.9212 33.3639 68.791 33.8848C68.6608 34.4056 68.4655 34.8288 68.2051 35.1543C68.1725 35.6426 68.14 36.1471 68.1074 36.668C68.1074 37.1562 68.1074 37.6283 68.1074 38.084C68.1074 38.8001 68.14 39.6465 68.2051 40.623C68.3027 41.5996 68.5306 42.4134 68.8887 43.0645C69.0514 43.3249 69.3607 43.5202 69.8164 43.6504C70.3047 43.7806 70.6953 43.8457 70.9883 43.8457C71.3464 43.8457 71.7044 43.7969 72.0625 43.6992C72.4531 43.569 72.7298 43.3574 72.8926 43.0645C73.0879 43.097 73.2181 43.1947 73.2832 43.3574C73.3483 43.5202 73.4622 43.6504 73.625 43.748C75.4805 42.9668 77.3359 42.2181 79.1914 41.502C81.0469 40.7858 82.8698 39.9557 84.6602 39.0117C84.9206 39.1419 85.1973 39.207 85.4902 39.207C85.8158 39.207 86.1413 39.1745 86.4668 39.1094C86.7923 39.0443 87.1178 39.0117 87.4434 39.0117H87.7852C87.8503 39.207 87.8828 39.3535 87.8828 39.4512ZM98.0879 45.3105C97.9251 45.571 97.7298 45.8151 97.502 46.043C97.2741 46.2383 97.0625 46.4499 96.8672 46.6777C96.6393 46.7754 96.3789 46.8242 96.0859 46.8242C95.8255 46.8242 95.5651 46.8242 95.3047 46.8242C95.0768 46.7917 94.849 46.7917 94.6211 46.8242C94.4258 46.8242 94.263 46.8893 94.1328 47.0195C93.8724 46.9544 93.6771 46.8405 93.5469 46.6777C93.4167 46.4824 93.1888 46.3685 92.8633 46.3359C92.7331 46.3034 92.6029 46.3034 92.4727 46.3359C91.9844 45.7826 91.5286 45.1966 91.1055 44.5781C90.7148 43.9596 90.3405 43.3737 89.9824 42.8203C89.9499 41.6159 89.8522 40.3952 89.6895 39.1582C89.6569 38.8652 89.6081 38.5723 89.543 38.2793C89.4779 37.9863 89.429 37.7096 89.3965 37.4492C89.3965 37.1237 89.4128 36.8145 89.4453 36.5215C89.5104 36.196 89.5592 35.903 89.5918 35.6426C89.722 34.6986 89.8685 33.7708 90.0312 32.8594C90.194 31.9479 90.3405 31.0202 90.4707 30.0762C90.6009 29.2298 90.666 28.3509 90.666 27.4395C90.666 26.4954 90.5195 25.6165 90.2266 24.8027L90.1777 24.5586C90.2428 24.2982 90.3079 24.0866 90.373 23.9238C90.4707 23.7285 90.5358 23.5169 90.5684 23.2891C90.6335 22.931 90.5521 22.6706 90.3242 22.5078C90.4219 22.2474 90.5846 22.0846 90.8125 22.0195C91.0404 21.9219 91.1706 21.7266 91.2031 21.4336C91.2357 21.3034 91.2357 21.1732 91.2031 21.043C91.4635 20.9453 91.724 20.8639 91.9844 20.7988C92.2773 20.7012 92.554 20.6849 92.8145 20.75C93.2376 20.8151 93.612 20.9616 93.9375 21.1895C94.263 21.3848 94.5723 21.6126 94.8652 21.873C95.3861 23.4355 95.5977 25.0957 95.5 26.8535C95.4023 28.5788 95.2396 30.3203 95.0117 32.0781C94.7839 33.8359 94.6374 35.5612 94.5723 37.2539C94.5072 38.9141 94.7676 40.4603 95.3535 41.8926L95.4512 41.9414C95.6139 41.974 95.7441 41.9251 95.8418 41.7949C95.9395 41.6322 96.0697 41.5671 96.2324 41.5996C96.3626 41.6647 96.444 41.6973 96.4766 41.6973C96.6068 42.3483 96.8184 42.9668 97.1113 43.5527C97.4043 44.1387 97.7298 44.7246 98.0879 45.3105ZM144.768 20.6035C144.637 21.0267 144.426 21.4173 144.133 21.7754L143.303 22.8008C143.042 23.1263 142.814 23.4844 142.619 23.875C142.456 24.2331 142.408 24.6562 142.473 25.1445C142.408 25.1445 142.326 25.1445 142.229 25.1445C142.131 25.112 142.049 25.0957 141.984 25.0957C141.464 25.0957 141.057 25.2259 140.764 25.4863C140.503 25.7142 140.145 25.9095 139.689 26.0723C139.624 25.877 139.543 25.6979 139.445 25.5352C139.348 25.3398 139.201 25.2096 139.006 25.1445C138.225 25.3073 137.443 25.4375 136.662 25.5352C135.881 25.6003 135.1 25.6979 134.318 25.8281C133.96 25.8932 133.602 25.9909 133.244 26.1211C132.886 26.2188 132.512 26.3164 132.121 26.4141C131.926 26.4792 131.714 26.5117 131.486 26.5117C131.258 26.4792 131.031 26.4792 130.803 26.5117C130.021 26.5443 129.175 26.6094 128.264 26.707C127.352 26.7721 126.538 27.0163 125.822 27.4395C125.497 27.3743 125.155 27.3255 124.797 27.293C124.439 27.2604 124.081 27.2441 123.723 27.2441C122.941 27.2441 122.079 27.3255 121.135 27.4883C120.223 27.6185 119.41 27.8952 118.693 28.3184C118.531 28.2533 118.352 28.2044 118.156 28.1719C117.993 28.1393 117.798 28.123 117.57 28.123C117.505 28.123 117.456 28.1393 117.424 28.1719C117.391 28.1719 117.342 28.1719 117.277 28.1719C117.245 28.4648 117.277 28.7578 117.375 29.0508C117.505 29.3112 117.717 29.5228 118.01 29.6855C117.88 30.0436 117.814 30.4342 117.814 30.8574C117.814 31.4108 117.847 31.9642 117.912 32.5176C118.01 33.071 118.059 33.6243 118.059 34.1777C118.059 34.7962 117.977 35.2845 117.814 35.6426C118.14 36.6191 118.303 37.6608 118.303 38.7676C118.303 39.1582 118.27 39.5488 118.205 39.9395C118.173 40.2975 118.156 40.6882 118.156 41.1113C118.156 41.4694 118.286 41.7624 118.547 41.9902C118.807 42.1855 118.938 42.4622 118.938 42.8203C118.938 42.9505 118.905 43.0807 118.84 43.2109C119.296 43.1133 119.735 42.9831 120.158 42.8203C120.581 42.625 121.021 42.5273 121.477 42.5273C121.737 42.5273 121.981 42.5762 122.209 42.6738C122.469 42.7715 122.697 42.9017 122.893 43.0645C122.86 43.2272 122.827 43.4062 122.795 43.6016C122.795 43.7969 122.795 43.9922 122.795 44.1875C122.795 44.5456 122.795 44.8874 122.795 45.2129C122.827 45.5059 122.86 45.8314 122.893 46.1895C122.632 46.6452 122.323 47.0521 121.965 47.4102C121.639 47.7682 121.411 48.224 121.281 48.7773C120.793 48.7773 120.354 48.8913 119.963 49.1191C119.605 49.3145 119.263 49.5423 118.938 49.8027C118.612 50.0306 118.286 50.2585 117.961 50.4863C117.635 50.6816 117.277 50.7793 116.887 50.7793C116.398 50.7793 116.057 50.7142 115.861 50.584C115.666 50.4212 115.52 50.2585 115.422 50.0957C115.324 49.9329 115.227 49.7865 115.129 49.6562C115.064 49.526 114.901 49.4772 114.641 49.5098C114.576 49.0866 114.445 48.696 114.25 48.3379C114.055 47.9473 113.843 47.5729 113.615 47.2148C113.42 46.8568 113.208 46.4987 112.98 46.1406C112.785 45.75 112.639 45.3594 112.541 44.9688C112.346 44.1224 112.264 43.2435 112.297 42.332C112.329 41.4206 112.183 40.5417 111.857 39.6953C111.923 39.2396 111.971 38.7839 112.004 38.3281C112.036 37.8398 112.053 37.3678 112.053 36.9121C112.053 36.0007 112.02 35.1055 111.955 34.2266C111.923 33.3151 111.89 32.3874 111.857 31.4434C111.63 31.1504 111.483 30.8249 111.418 30.4668C111.385 30.0762 111.353 29.7018 111.32 29.3438C111.223 29.2461 111.109 29.1484 110.979 29.0508C110.881 28.9531 110.816 28.8229 110.783 28.6602C110.523 28.5951 110.327 28.5625 110.197 28.5625C109.742 28.5625 109.351 28.6764 109.025 28.9043C108.732 29.0996 108.456 29.1973 108.195 29.1973C107.935 29.1973 107.691 29.1647 107.463 29.0996C107.235 29.0345 107.007 29.002 106.779 29.002C106.584 29.002 106.47 29.0508 106.438 29.1484C106.438 29.2135 106.372 29.2786 106.242 29.3438C106.145 29.4089 105.917 29.474 105.559 29.5391C105.201 29.6042 104.794 29.6693 104.338 29.7344C103.915 29.7669 103.492 29.7995 103.068 29.832C102.678 29.8646 102.417 29.8809 102.287 29.8809C101.766 29.8809 101.376 29.7832 101.115 29.5879C100.822 29.36 100.48 29.1159 100.09 28.8555C100.155 28.6602 100.188 28.5299 100.188 28.4648C100.188 28.1393 100.09 27.8789 99.8945 27.6836C99.6992 27.4557 99.6016 27.2604 99.6016 27.0977C99.6016 26.7396 99.748 26.4629 100.041 26.2676C100.301 26.0723 100.448 25.763 100.48 25.3398C101.229 25.0143 101.994 24.7702 102.775 24.6074C103.557 24.4447 104.354 24.3145 105.168 24.2168C105.982 24.1191 106.779 24.0052 107.561 23.875C108.374 23.7448 109.172 23.5332 109.953 23.2402C110.181 23.2728 110.393 23.3053 110.588 23.3379C110.816 23.3379 111.044 23.3379 111.271 23.3379C112.248 23.3379 113.208 23.2402 114.152 23.0449C115.129 22.8171 116.122 22.7031 117.131 22.7031C117.391 22.7031 117.652 22.7194 117.912 22.752C118.173 22.7845 118.433 22.8333 118.693 22.8984C119.995 22.7031 121.281 22.4915 122.551 22.2637C123.853 22.0358 125.188 21.8405 126.555 21.6777C127.206 21.6126 127.84 21.5638 128.459 21.5312C129.11 21.4661 129.761 21.3848 130.412 21.2871C130.64 21.2546 130.803 21.2057 130.9 21.1406C131.031 21.043 131.096 20.8639 131.096 20.6035C131.389 20.7337 131.714 20.7988 132.072 20.7988C132.626 20.7988 133.163 20.7012 133.684 20.5059C134.204 20.3105 134.742 20.2129 135.295 20.2129C135.425 20.2129 135.539 20.2292 135.637 20.2617C135.734 20.2617 135.832 20.2617 135.93 20.2617C136.158 20.2617 136.271 20.1641 136.271 19.9688C136.304 19.7409 136.467 19.5944 136.76 19.5293C136.988 19.4642 137.313 19.4154 137.736 19.3828C138.16 19.3503 138.599 19.3177 139.055 19.2852C139.543 19.2201 139.982 19.1549 140.373 19.0898C140.796 18.9922 141.105 18.862 141.301 18.6992L141.643 18.1621C142.229 18.1947 142.652 18.4551 142.912 18.9434C143.205 19.3991 143.368 19.9036 143.4 20.457C143.531 20.5872 143.71 20.6523 143.938 20.6523C144.198 20.6198 144.426 20.6035 144.621 20.6035H144.768ZM179.973 20.6035C179.842 21.0267 179.631 21.4173 179.338 21.7754L178.508 22.8008C178.247 23.1263 178.02 23.4844 177.824 23.875C177.661 24.2331 177.613 24.6562 177.678 25.1445C177.613 25.1445 177.531 25.1445 177.434 25.1445C177.336 25.112 177.255 25.0957 177.189 25.0957C176.669 25.0957 176.262 25.2259 175.969 25.4863C175.708 25.7142 175.35 25.9095 174.895 26.0723C174.829 25.877 174.748 25.6979 174.65 25.5352C174.553 25.3398 174.406 25.2096 174.211 25.1445C173.43 25.3073 172.648 25.4375 171.867 25.5352C171.086 25.6003 170.305 25.6979 169.523 25.8281C169.165 25.8932 168.807 25.9909 168.449 26.1211C168.091 26.2188 167.717 26.3164 167.326 26.4141C167.131 26.4792 166.919 26.5117 166.691 26.5117C166.464 26.4792 166.236 26.4792 166.008 26.5117C165.227 26.5443 164.38 26.6094 163.469 26.707C162.557 26.7721 161.743 27.0163 161.027 27.4395C160.702 27.3743 160.36 27.3255 160.002 27.293C159.644 27.2604 159.286 27.2441 158.928 27.2441C158.146 27.2441 157.284 27.3255 156.34 27.4883C155.428 27.6185 154.615 27.8952 153.898 28.3184C153.736 28.2533 153.557 28.2044 153.361 28.1719C153.199 28.1393 153.003 28.123 152.775 28.123C152.71 28.123 152.661 28.1393 152.629 28.1719C152.596 28.1719 152.548 28.1719 152.482 28.1719C152.45 28.4648 152.482 28.7578 152.58 29.0508C152.71 29.3112 152.922 29.5228 153.215 29.6855C153.085 30.0436 153.02 30.4342 153.02 30.8574C153.02 31.4108 153.052 31.9642 153.117 32.5176C153.215 33.071 153.264 33.6243 153.264 34.1777C153.264 34.7962 153.182 35.2845 153.02 35.6426C153.345 36.6191 153.508 37.6608 153.508 38.7676C153.508 39.1582 153.475 39.5488 153.41 39.9395C153.378 40.2975 153.361 40.6882 153.361 41.1113C153.361 41.4694 153.492 41.7624 153.752 41.9902C154.012 42.1855 154.143 42.4622 154.143 42.8203C154.143 42.9505 154.11 43.0807 154.045 43.2109C154.501 43.1133 154.94 42.9831 155.363 42.8203C155.786 42.625 156.226 42.5273 156.682 42.5273C156.942 42.5273 157.186 42.5762 157.414 42.6738C157.674 42.7715 157.902 42.9017 158.098 43.0645C158.065 43.2272 158.033 43.4062 158 43.6016C158 43.7969 158 43.9922 158 44.1875C158 44.5456 158 44.8874 158 45.2129C158.033 45.5059 158.065 45.8314 158.098 46.1895C157.837 46.6452 157.528 47.0521 157.17 47.4102C156.844 47.7682 156.617 48.224 156.486 48.7773C155.998 48.7773 155.559 48.8913 155.168 49.1191C154.81 49.3145 154.468 49.5423 154.143 49.8027C153.817 50.0306 153.492 50.2585 153.166 50.4863C152.84 50.6816 152.482 50.7793 152.092 50.7793C151.604 50.7793 151.262 50.7142 151.066 50.584C150.871 50.4212 150.725 50.2585 150.627 50.0957C150.529 49.9329 150.432 49.7865 150.334 49.6562C150.269 49.526 150.106 49.4772 149.846 49.5098C149.781 49.0866 149.65 48.696 149.455 48.3379C149.26 47.9473 149.048 47.5729 148.82 47.2148C148.625 46.8568 148.413 46.4987 148.186 46.1406C147.99 45.75 147.844 45.3594 147.746 44.9688C147.551 44.1224 147.469 43.2435 147.502 42.332C147.535 41.4206 147.388 40.5417 147.062 39.6953C147.128 39.2396 147.176 38.7839 147.209 38.3281C147.242 37.8398 147.258 37.3678 147.258 36.9121C147.258 36.0007 147.225 35.1055 147.16 34.2266C147.128 33.3151 147.095 32.3874 147.062 31.4434C146.835 31.1504 146.688 30.8249 146.623 30.4668C146.59 30.0762 146.558 29.7018 146.525 29.3438C146.428 29.2461 146.314 29.1484 146.184 29.0508C146.086 28.9531 146.021 28.8229 145.988 28.6602C145.728 28.5951 145.533 28.5625 145.402 28.5625C144.947 28.5625 144.556 28.6764 144.23 28.9043C143.938 29.0996 143.661 29.1973 143.4 29.1973C143.14 29.1973 142.896 29.1647 142.668 29.0996C142.44 29.0345 142.212 29.002 141.984 29.002C141.789 29.002 141.675 29.0508 141.643 29.1484C141.643 29.2135 141.577 29.2786 141.447 29.3438C141.35 29.4089 141.122 29.474 140.764 29.5391C140.406 29.6042 139.999 29.6693 139.543 29.7344C139.12 29.7669 138.697 29.7995 138.273 29.832C137.883 29.8646 137.622 29.8809 137.492 29.8809C136.971 29.8809 136.581 29.7832 136.32 29.5879C136.027 29.36 135.686 29.1159 135.295 28.8555C135.36 28.6602 135.393 28.5299 135.393 28.4648C135.393 28.1393 135.295 27.8789 135.1 27.6836C134.904 27.4557 134.807 27.2604 134.807 27.0977C134.807 26.7396 134.953 26.4629 135.246 26.2676C135.507 26.0723 135.653 25.763 135.686 25.3398C136.434 25.0143 137.199 24.7702 137.98 24.6074C138.762 24.4447 139.559 24.3145 140.373 24.2168C141.187 24.1191 141.984 24.0052 142.766 23.875C143.579 23.7448 144.377 23.5332 145.158 23.2402C145.386 23.2728 145.598 23.3053 145.793 23.3379C146.021 23.3379 146.249 23.3379 146.477 23.3379C147.453 23.3379 148.413 23.2402 149.357 23.0449C150.334 22.8171 151.327 22.7031 152.336 22.7031C152.596 22.7031 152.857 22.7194 153.117 22.752C153.378 22.7845 153.638 22.8333 153.898 22.8984C155.201 22.7031 156.486 22.4915 157.756 22.2637C159.058 22.0358 160.393 21.8405 161.76 21.6777C162.411 21.6126 163.046 21.5638 163.664 21.5312C164.315 21.4661 164.966 21.3848 165.617 21.2871C165.845 21.2546 166.008 21.2057 166.105 21.1406C166.236 21.043 166.301 20.8639 166.301 20.6035C166.594 20.7337 166.919 20.7988 167.277 20.7988C167.831 20.7988 168.368 20.7012 168.889 20.5059C169.41 20.3105 169.947 20.2129 170.5 20.2129C170.63 20.2129 170.744 20.2292 170.842 20.2617C170.939 20.2617 171.037 20.2617 171.135 20.2617C171.363 20.2617 171.477 20.1641 171.477 19.9688C171.509 19.7409 171.672 19.5944 171.965 19.5293C172.193 19.4642 172.518 19.4154 172.941 19.3828C173.365 19.3503 173.804 19.3177 174.26 19.2852C174.748 19.2201 175.188 19.1549 175.578 19.0898C176.001 18.9922 176.311 18.862 176.506 18.6992L176.848 18.1621C177.434 18.1947 177.857 18.4551 178.117 18.9434C178.41 19.3991 178.573 19.9036 178.605 20.457C178.736 20.5872 178.915 20.6523 179.143 20.6523C179.403 20.6198 179.631 20.6035 179.826 20.6035H179.973ZM199.748 39.4512C199.748 39.8092 199.618 40.0859 199.357 40.2812C199.097 40.444 198.967 40.6719 198.967 40.9648C198.967 41.0951 199.032 41.2578 199.162 41.4531C198.706 41.4531 198.397 41.5996 198.234 41.8926C198.072 42.1855 197.909 42.5111 197.746 42.8691H197.111C196.949 42.8691 196.818 42.9017 196.721 42.9668C196.623 43.0319 196.525 43.1296 196.428 43.2598C196.363 43.3574 196.265 43.5202 196.135 43.748C195.516 43.8783 194.914 44.0898 194.328 44.3828C193.775 44.6432 193.221 44.9362 192.668 45.2617C192.147 45.5547 191.61 45.8639 191.057 46.1895C190.503 46.4824 189.934 46.7266 189.348 46.9219C189.055 47.4102 188.632 47.8008 188.078 48.0938H187.932C187.769 48.1263 187.622 48.11 187.492 48.0449C187.395 47.9473 187.264 47.8984 187.102 47.8984C187.004 47.8984 186.939 47.9147 186.906 47.9473C185.93 48.5983 184.839 48.9238 183.635 48.9238C183.309 48.9238 183 48.9076 182.707 48.875C182.414 48.8099 182.105 48.7773 181.779 48.7773C181.682 48.7773 181.617 48.8099 181.584 48.875L181.486 49.0703C181.454 49.1354 181.405 49.2005 181.34 49.2656C181.307 49.3307 181.193 49.3633 180.998 49.3633C180.64 49.3633 180.282 49.3145 179.924 49.2168C179.566 49.1191 179.191 49.1029 178.801 49.168C178.052 48.7448 177.466 48.3379 177.043 47.9473C176.62 47.5566 176.229 46.9707 175.871 46.1895C175.708 45.8314 175.48 45.4896 175.188 45.1641C174.927 44.8385 174.732 44.4805 174.602 44.0898C174.569 43.9596 174.52 43.7318 174.455 43.4062C174.39 43.0482 174.325 42.6738 174.26 42.2832C174.195 41.8926 174.13 41.5182 174.064 41.1602C174.032 40.8021 174.016 40.5579 174.016 40.4277C174.016 40.0371 174.032 39.6628 174.064 39.3047C174.13 38.9141 174.195 38.5234 174.26 38.1328C174.455 36.8958 174.585 35.6589 174.65 34.4219C174.748 33.1523 175.025 31.9316 175.48 30.7598C175.415 30.4017 175.383 30.0599 175.383 29.7344V28.6602C175.383 28.0417 175.301 27.5208 175.139 27.0977C175.399 26.6745 175.529 26.2025 175.529 25.6816C175.529 25.0957 175.285 24.7539 174.797 24.6562V24.5098C174.797 23.8262 174.569 23.2891 174.113 22.8984C174.113 21.7591 174.39 20.9128 174.943 20.3594C175.529 19.7734 176.294 19.2689 177.238 18.8457C177.368 18.6504 177.417 18.4876 177.385 18.3574C177.613 18.4225 177.824 18.4876 178.02 18.5527C178.215 18.6178 178.41 18.6504 178.605 18.6504C178.931 18.6504 179.224 18.6016 179.484 18.5039C179.582 18.8945 179.826 19.1387 180.217 19.2363C180.64 19.3014 180.982 19.3991 181.242 19.5293V20.1641C181.242 21.1732 181.486 22.1335 181.975 23.0449C181.844 23.3053 181.763 23.582 181.73 23.875C181.698 24.168 181.682 24.4447 181.682 24.7051C181.682 25.0957 181.698 25.4863 181.73 25.877C181.763 26.2676 181.779 26.6419 181.779 27C181.779 27.3906 181.73 27.7812 181.633 28.1719C181.568 28.5625 181.389 28.9043 181.096 29.1973C181.063 29.6204 181.031 30.1087 180.998 30.6621C180.998 31.1829 180.965 31.7201 180.9 32.2734C180.868 32.8268 180.786 33.3639 180.656 33.8848C180.526 34.4056 180.331 34.8288 180.07 35.1543C180.038 35.6426 180.005 36.1471 179.973 36.668C179.973 37.1562 179.973 37.6283 179.973 38.084C179.973 38.8001 180.005 39.6465 180.07 40.623C180.168 41.5996 180.396 42.4134 180.754 43.0645C180.917 43.3249 181.226 43.5202 181.682 43.6504C182.17 43.7806 182.561 43.8457 182.854 43.8457C183.212 43.8457 183.57 43.7969 183.928 43.6992C184.318 43.569 184.595 43.3574 184.758 43.0645C184.953 43.097 185.083 43.1947 185.148 43.3574C185.214 43.5202 185.327 43.6504 185.49 43.748C187.346 42.9668 189.201 42.2181 191.057 41.502C192.912 40.7858 194.735 39.9557 196.525 39.0117C196.786 39.1419 197.062 39.207 197.355 39.207C197.681 39.207 198.007 39.1745 198.332 39.1094C198.658 39.0443 198.983 39.0117 199.309 39.0117H199.65C199.715 39.207 199.748 39.3535 199.748 39.4512ZM230.314 20.9453V21.1406C230.087 21.2057 229.973 21.3685 229.973 21.6289C229.615 21.7917 229.24 21.9219 228.85 22.0195C228.459 22.0846 228.085 22.1986 227.727 22.3613C227.368 22.3288 226.994 22.3125 226.604 22.3125C226.245 22.2799 225.887 22.2637 225.529 22.2637C224.553 22.2637 223.576 22.2962 222.6 22.3613C221.623 22.4264 220.646 22.4264 219.67 22.3613C219.214 22.6217 218.71 22.8333 218.156 22.9961C217.635 23.1263 217.131 23.1914 216.643 23.1914C216.252 23.1914 215.91 23.1426 215.617 23.0449C214.836 23.4355 213.973 23.7611 213.029 24.0215C212.118 24.2819 211.19 24.5423 210.246 24.8027C209.302 25.0306 208.391 25.3073 207.512 25.6328C206.665 25.9258 205.917 26.349 205.266 26.9023C205.201 27.3581 205.152 27.8138 205.119 28.2695C205.087 28.6927 205.07 29.1159 205.07 29.5391C205.07 29.9948 205.087 30.418 205.119 30.8086C205.184 31.1992 205.298 31.5898 205.461 31.9805C205.624 32.0456 205.803 32.0944 205.998 32.127C206.226 32.1595 206.421 32.1758 206.584 32.1758C206.747 32.1758 206.91 32.1595 207.072 32.127C207.235 32.0618 207.349 31.9479 207.414 31.7852C207.902 31.7201 208.391 31.7038 208.879 31.7363C209.367 31.7363 209.855 31.7363 210.344 31.7363C210.832 31.7363 211.304 31.7201 211.76 31.6875C212.248 31.6549 212.72 31.5736 213.176 31.4434C213.697 31.3132 214.201 31.2318 214.689 31.1992C215.21 31.1667 215.715 31.1341 216.203 31.1016C216.691 31.069 217.196 31.0202 217.717 30.9551C218.238 30.8574 218.775 30.6784 219.328 30.418C219.751 30.5807 220.174 30.6621 220.598 30.6621C221.053 30.6621 221.493 30.6947 221.916 30.7598C222.144 30.9225 222.323 31.1016 222.453 31.2969C222.616 31.4922 222.697 31.7201 222.697 31.9805C222.697 32.4362 222.535 32.8919 222.209 33.3477C221.883 33.8034 221.623 34.2266 221.428 34.6172H220.891C220.109 34.6172 219.344 34.7311 218.596 34.959C217.88 35.1543 217.147 35.3984 216.398 35.6914C215.682 35.9518 214.95 36.196 214.201 36.4238C213.485 36.6191 212.736 36.7168 211.955 36.7168C211.825 36.7168 211.743 36.7982 211.711 36.9609C211.711 37.0911 211.678 37.1888 211.613 37.2539C211.451 37.2214 211.206 37.2051 210.881 37.2051C210.132 37.2051 209.416 37.2865 208.732 37.4492C208.049 37.612 207.349 37.6934 206.633 37.6934C206.438 37.6934 206.242 37.6934 206.047 37.6934C205.852 37.6608 205.656 37.6283 205.461 37.5957C205.298 37.8561 205.087 38.0352 204.826 38.1328C204.566 38.1979 204.322 38.3281 204.094 38.5234C203.996 38.8164 203.931 39.1745 203.898 39.5977C203.898 40.0208 203.882 40.4603 203.85 40.916C203.85 41.3392 203.817 41.7461 203.752 42.1367C203.687 42.5273 203.557 42.8366 203.361 43.0645C203.394 43.2272 203.524 43.2923 203.752 43.2598C203.98 43.1947 204.094 43.2923 204.094 43.5527C204.094 43.8457 204.061 44.1549 203.996 44.4805C203.931 44.806 203.898 45.1315 203.898 45.457C203.898 46.0755 203.964 46.7591 204.094 47.5078C204.257 48.224 204.484 48.8913 204.777 49.5098C205.103 50.1283 205.526 50.6491 206.047 51.0723C206.568 51.4629 207.219 51.6582 208 51.6582C208.521 51.6582 209.009 51.5605 209.465 51.3652C209.921 51.1699 210.295 50.8444 210.588 50.3887L210.832 50.3398C210.962 50.3398 211.076 50.3561 211.174 50.3887C211.304 50.4212 211.434 50.4375 211.564 50.4375C211.76 50.4375 212.004 50.3236 212.297 50.0957C212.622 49.8353 212.964 49.5423 213.322 49.2168C213.713 48.8913 214.104 48.582 214.494 48.2891C214.885 47.9635 215.259 47.7357 215.617 47.6055C215.845 47.1497 216.057 46.694 216.252 46.2383C216.48 45.7826 216.805 45.4245 217.229 45.1641V43.748C217.554 43.39 217.896 43.0645 218.254 42.7715C218.645 42.4785 218.938 42.1042 219.133 41.6484C219.296 41.7135 219.442 41.7624 219.572 41.7949C219.735 41.8275 219.898 41.8438 220.061 41.8438C220.223 41.8438 220.386 41.8275 220.549 41.7949C220.744 41.7624 220.923 41.7135 221.086 41.6484C221.346 42.0065 221.542 42.4134 221.672 42.8691C221.835 43.2923 222.03 43.6992 222.258 44.0898C221.965 44.6758 221.623 45.3757 221.232 46.1895C220.842 47.0033 220.419 47.8171 219.963 48.6309C219.507 49.4447 219.019 50.2259 218.498 50.9746C218.01 51.6908 217.521 52.2441 217.033 52.6348C216.936 52.7324 216.724 52.8464 216.398 52.9766C216.04 53.237 215.715 53.4811 215.422 53.709C215.129 53.9694 214.852 54.2624 214.592 54.5879C213.648 54.8809 212.736 55.2715 211.857 55.7598C211.011 56.248 210.165 56.7201 209.318 57.1758C208.928 57.0781 208.505 57.0293 208.049 57.0293C207.658 57.0293 207.268 57.0456 206.877 57.0781C206.486 57.1432 206.063 57.1758 205.607 57.1758C205.477 57.013 205.282 56.8991 205.021 56.834C204.794 56.8014 204.712 56.6387 204.777 56.3457C203.671 56.2806 202.775 55.9714 202.092 55.418C201.408 54.8971 200.822 54.2461 200.334 53.4648C199.878 52.6836 199.504 51.8372 199.211 50.9258C198.918 50.0143 198.609 49.1354 198.283 48.2891V48.1426C198.283 47.9798 198.348 47.8822 198.479 47.8496C198.609 47.8171 198.674 47.7194 198.674 47.5566C198.674 47.4915 198.658 47.4427 198.625 47.4102C198.527 47.0521 198.446 46.7428 198.381 46.4824C198.316 46.222 198.283 45.9128 198.283 45.5547C198.283 45.0339 198.316 44.5293 198.381 44.041C198.446 43.5202 198.479 42.9993 198.479 42.4785C198.479 41.9577 198.413 41.502 198.283 41.1113C198.413 40.9486 198.527 40.737 198.625 40.4766C198.69 40.1836 198.739 39.8906 198.771 39.5977C198.804 39.3047 198.82 39.0117 198.82 38.7188C198.853 38.4258 198.902 38.1654 198.967 37.9375C198.837 37.5794 198.723 37.2702 198.625 37.0098C198.527 36.7168 198.479 36.375 198.479 35.9844V35.6426C198.804 35.0892 199.081 34.5195 199.309 33.9336C199.536 33.3477 199.781 32.7454 200.041 32.127V31.9805C200.041 31.0365 200.008 30.0924 199.943 29.1484C199.878 28.2044 199.846 27.2604 199.846 26.3164V25.3887C199.846 25.0632 199.862 24.7539 199.895 24.4609C200.155 24.3307 200.35 24.1517 200.48 23.9238C200.611 23.696 200.806 23.5169 201.066 23.3867H202.678L202.971 22.8984C203.068 22.7357 203.133 22.5566 203.166 22.3613C203.524 22.2637 203.866 22.1335 204.191 21.9707C204.549 21.7754 204.875 21.5801 205.168 21.3848C205.624 21.1243 206.031 20.8965 206.389 20.7012C206.779 20.4733 207.154 20.2943 207.512 20.1641C207.902 20.0013 208.309 19.8711 208.732 19.7734C209.156 19.6758 209.644 19.5944 210.197 19.5293C210.458 19.5293 210.62 19.4805 210.686 19.3828C210.783 19.2852 210.913 19.1712 211.076 19.041C211.467 19.1061 211.857 19.1712 212.248 19.2363C212.639 19.2689 213.029 19.2852 213.42 19.2852C214.201 19.2852 214.934 19.1387 215.617 18.8457C216.594 18.8457 217.554 18.8294 218.498 18.7969C219.475 18.7643 220.451 18.748 221.428 18.748C222.274 18.748 223.12 18.7806 223.967 18.8457C224.813 18.9108 225.643 19.0247 226.457 19.1875C226.75 19.0898 227.076 19.041 227.434 19.041C227.824 19.041 228.215 19.0898 228.605 19.1875C229.029 19.2526 229.436 19.2526 229.826 19.1875C229.859 19.5456 229.94 19.8548 230.07 20.1152C230.233 20.3431 230.314 20.6198 230.314 20.9453ZM259.025 45.3105C258.863 45.571 258.667 45.8151 258.439 46.043C258.212 46.2383 258 46.4499 257.805 46.6777C257.577 46.7754 257.316 46.8242 257.023 46.8242C256.763 46.8242 256.503 46.8242 256.242 46.8242C256.014 46.7917 255.786 46.7917 255.559 46.8242C255.363 46.8242 255.201 46.8893 255.07 47.0195C254.81 46.9544 254.615 46.8405 254.484 46.6777C254.354 46.4824 254.126 46.3685 253.801 46.3359C253.671 46.3034 253.54 46.3034 253.41 46.3359C252.922 45.7826 252.466 45.1966 252.043 44.5781C251.652 43.9596 251.278 43.3737 250.92 42.8203C250.887 41.6159 250.79 40.3952 250.627 39.1582C250.594 38.8652 250.546 38.5723 250.48 38.2793C250.415 37.9863 250.367 37.7096 250.334 37.4492C250.334 37.1237 250.35 36.8145 250.383 36.5215C250.448 36.196 250.497 35.903 250.529 35.6426C250.66 34.6986 250.806 33.7708 250.969 32.8594C251.132 31.9479 251.278 31.0202 251.408 30.0762C251.538 29.2298 251.604 28.3509 251.604 27.4395C251.604 26.4954 251.457 25.6165 251.164 24.8027L251.115 24.5586C251.18 24.2982 251.245 24.0866 251.311 23.9238C251.408 23.7285 251.473 23.5169 251.506 23.2891C251.571 22.931 251.49 22.6706 251.262 22.5078C251.359 22.2474 251.522 22.0846 251.75 22.0195C251.978 21.9219 252.108 21.7266 252.141 21.4336C252.173 21.3034 252.173 21.1732 252.141 21.043C252.401 20.9453 252.661 20.8639 252.922 20.7988C253.215 20.7012 253.492 20.6849 253.752 20.75C254.175 20.8151 254.549 20.9616 254.875 21.1895C255.201 21.3848 255.51 21.6126 255.803 21.873C256.324 23.4355 256.535 25.0957 256.438 26.8535C256.34 28.5788 256.177 30.3203 255.949 32.0781C255.721 33.8359 255.575 35.5612 255.51 37.2539C255.445 38.9141 255.705 40.4603 256.291 41.8926L256.389 41.9414C256.551 41.974 256.682 41.9251 256.779 41.7949C256.877 41.6322 257.007 41.5671 257.17 41.5996C257.3 41.6647 257.382 41.6973 257.414 41.6973C257.544 42.3483 257.756 42.9668 258.049 43.5527C258.342 44.1387 258.667 44.7246 259.025 45.3105ZM295.793 19.9199C295.728 20.3105 295.63 20.6523 295.5 20.9453C295.402 21.2057 295.386 21.5638 295.451 22.0195C295.126 22.0521 294.865 22.166 294.67 22.3613C294.507 22.5241 294.361 22.7194 294.23 22.9473C294.133 23.1751 294.019 23.4193 293.889 23.6797C293.791 23.9076 293.661 24.1191 293.498 24.3145C293.758 25.4863 293.905 26.6745 293.938 27.8789C293.97 29.0833 294.051 30.2715 294.182 31.4434C294.344 32.9408 294.589 34.4219 294.914 35.8867C295.272 37.319 295.451 38.7839 295.451 40.2812C295.451 40.737 295.435 41.1602 295.402 41.5508C295.402 41.9414 295.402 42.3483 295.402 42.7715C295.402 43.0319 295.402 43.3086 295.402 43.6016C295.435 43.862 295.451 44.1224 295.451 44.3828C295.451 45.3268 295.321 46.2708 295.061 47.2148C294.833 48.1589 294.654 49.1029 294.523 50.0469C294.133 50.4049 293.791 50.7956 293.498 51.2188C293.238 51.6419 292.961 52.0326 292.668 52.3906C292.375 52.7487 292.033 53.0579 291.643 53.3184C291.252 53.6113 290.764 53.8066 290.178 53.9043C290.08 54.2298 289.885 54.474 289.592 54.6367C289.331 54.7995 289.104 55.0273 288.908 55.3203H288.811C287.997 55.3203 287.297 55.2064 286.711 54.9785C286.125 54.7507 285.572 54.4902 285.051 54.1973C284.562 53.9043 284.058 53.5951 283.537 53.2695C283.016 52.944 282.414 52.6836 281.73 52.4883C280.819 51.7396 279.989 50.9258 279.24 50.0469C278.492 49.1354 277.645 48.3216 276.701 47.6055C276.473 46.9544 276.164 46.4173 275.773 45.9941C275.415 45.571 275.057 45.0827 274.699 44.5293C274.536 44.3014 274.406 44.0898 274.309 43.8945C274.243 43.6992 274.146 43.4714 274.016 43.2109C273.918 42.9505 273.755 42.7715 273.527 42.6738C273.332 42.5762 273.153 42.4622 272.99 42.332C272.73 41.3229 272.355 40.3952 271.867 39.5488C271.379 38.7025 270.809 37.8887 270.158 37.1074C269.963 37.4655 269.8 37.8561 269.67 38.2793C269.572 38.6699 269.475 39.0768 269.377 39.5C269.279 39.8906 269.149 40.2975 268.986 40.7207C268.856 41.1113 268.677 41.4694 268.449 41.7949V41.9414C268.449 42.1042 268.514 42.2018 268.645 42.2344C268.775 42.2669 268.84 42.3646 268.84 42.5273C268.84 42.5599 268.824 42.5924 268.791 42.625C268.791 42.6576 268.791 42.6901 268.791 42.7227C268.628 42.8529 268.498 43.0156 268.4 43.2109C268.335 43.4062 268.173 43.5202 267.912 43.5527C267.945 43.7155 267.961 43.8783 267.961 44.041V44.4805C267.961 45.4245 267.847 46.3685 267.619 47.3125C267.424 48.2565 267.326 49.2168 267.326 50.1934V50.8281C267.326 51.056 267.342 51.2676 267.375 51.4629C267.44 51.6582 267.538 51.8535 267.668 52.0488C267.798 52.2441 267.863 52.4232 267.863 52.5859C267.863 52.8138 267.766 53.0254 267.57 53.2207C267.798 53.3835 268.059 53.5625 268.352 53.7578C268.645 53.9531 268.905 54.1647 269.133 54.3926C269.393 54.653 269.605 54.9134 269.768 55.1738C269.93 55.4668 270.012 55.776 270.012 56.1016C270.012 56.6549 269.833 57.0456 269.475 57.2734C269.117 57.5013 268.677 57.6803 268.156 57.8105C267.668 57.9408 267.147 58.0547 266.594 58.1523C266.073 58.2826 265.633 58.4941 265.275 58.7871H265.129C264.738 58.7871 264.445 58.6732 264.25 58.4453C264.055 58.2174 263.762 58.1035 263.371 58.1035C262.753 57.0944 262.329 55.9551 262.102 54.6855C261.874 53.4486 261.76 52.2604 261.76 51.1211C261.76 49.7214 261.89 48.3216 262.15 46.9219C262.378 45.5221 262.671 44.1387 263.029 42.7715C263.355 41.4043 263.713 40.0534 264.104 38.7188C264.527 37.3516 264.917 35.9844 265.275 34.6172L265.324 34.4707C265.324 34.3079 265.275 34.194 265.178 34.1289C265.113 34.0638 265.08 33.9661 265.08 33.8359C265.08 33.7708 265.096 33.7383 265.129 33.7383C265.227 33.4128 265.324 33.1035 265.422 32.8105C265.552 32.5176 265.65 32.1921 265.715 31.834C265.91 30.9225 266.04 29.9948 266.105 29.0508C266.203 28.0742 266.252 27.1139 266.252 26.1699C266.285 25.2259 266.317 24.2819 266.35 23.3379C266.415 22.3613 266.529 21.401 266.691 20.457C266.952 20.1966 267.196 19.9199 267.424 19.627C267.652 19.334 267.945 19.0736 268.303 18.8457C268.954 18.8783 269.605 18.9759 270.256 19.1387C270.907 19.3014 271.525 19.5618 272.111 19.9199C272.502 21.3197 272.762 22.7194 272.893 24.1191C273.055 25.5189 273.316 26.9186 273.674 28.3184V28.4648C273.674 28.6276 273.755 28.709 273.918 28.709C274.113 28.6764 274.26 28.7253 274.357 28.8555C274.292 28.9531 274.243 29.0671 274.211 29.1973C274.211 29.3275 274.211 29.4577 274.211 29.5879V30.418C274.276 30.6784 274.357 30.9551 274.455 31.248C274.553 31.541 274.764 31.7201 275.09 31.7852C275.253 32.8268 275.497 33.7871 275.822 34.666C276.148 35.5449 276.522 36.3913 276.945 37.2051C277.368 38.0189 277.824 38.8327 278.312 39.6465C278.801 40.4277 279.305 41.2578 279.826 42.1367C280.64 42.7552 281.34 43.4714 281.926 44.2852C282.512 45.0664 283.098 45.8314 283.684 46.5801C284.302 47.2962 284.986 47.931 285.734 48.4844C286.516 49.0378 287.525 49.3796 288.762 49.5098C288.924 49.3796 289.038 49.2005 289.104 48.9727L289.348 48.2891C289.445 48.0612 289.543 47.8659 289.641 47.7031C289.771 47.5078 289.95 47.3613 290.178 47.2637C290.243 46.3522 290.308 45.4245 290.373 44.4805C290.471 43.5365 290.682 42.6413 291.008 41.7949C290.845 41.502 290.764 41.1439 290.764 40.7207C290.764 40.3952 290.78 40.0859 290.812 39.793C290.878 39.5 290.91 39.207 290.91 38.9141C290.91 38.2956 290.78 37.791 290.52 37.4004C290.52 37.1725 290.536 36.9447 290.568 36.7168C290.601 36.4564 290.699 36.2122 290.861 35.9844C290.601 35.3333 290.389 34.6497 290.227 33.9336C290.096 33.2174 290.031 32.485 290.031 31.7363C290.031 31.3132 290.08 30.8737 290.178 30.418C289.982 29.9297 289.852 29.36 289.787 28.709L289.592 26.707C289.527 26.0234 289.429 25.3887 289.299 24.8027C289.169 24.2168 288.924 23.7448 288.566 23.3867C288.762 23.0938 288.859 22.752 288.859 22.3613C288.859 21.7103 288.762 21.0918 288.566 20.5059C288.371 19.9199 288.273 19.3014 288.273 18.6504C288.273 18.1947 288.371 17.7389 288.566 17.2832C289.283 17.3158 289.982 17.3971 290.666 17.5273C291.382 17.625 292.082 17.6738 292.766 17.6738C292.961 17.9342 293.189 18.1458 293.449 18.3086C293.71 18.4714 293.986 18.6341 294.279 18.7969C294.572 18.9271 294.849 19.0736 295.109 19.2363C295.402 19.3991 295.63 19.627 295.793 19.9199ZM341.008 20.457C341.008 20.6523 340.91 20.8151 340.715 20.9453C340.552 21.0755 340.357 21.2057 340.129 21.3359C339.934 21.4661 339.722 21.6126 339.494 21.7754C339.299 21.9382 339.169 22.1335 339.104 22.3613H338.664C338.469 22.3613 338.371 22.4264 338.371 22.5566H338.225C337.932 22.5566 337.736 22.4753 337.639 22.3125C337.541 22.1172 337.329 22.0195 337.004 22.0195C336.19 22.0195 335.376 22.0358 334.562 22.0684C333.781 22.0684 332.984 22.0846 332.17 22.1172C329.924 22.1172 327.71 22.1986 325.529 22.3613C323.381 22.4915 321.249 22.9473 319.133 23.7285C319.068 23.7611 318.986 23.7773 318.889 23.7773C318.726 23.7773 318.628 23.7122 318.596 23.582C318.596 23.4518 318.514 23.3867 318.352 23.3867C317.896 23.3867 317.473 23.4355 317.082 23.5332C316.691 23.6309 316.268 23.696 315.812 23.7285C315.292 24.1842 314.689 24.5586 314.006 24.8516C313.355 25.1445 312.671 25.4375 311.955 25.7305C311.271 25.9909 310.604 26.2839 309.953 26.6094C309.302 26.9023 308.732 27.293 308.244 27.7812C308.309 28.1719 308.358 28.5625 308.391 28.9531C308.456 29.3112 308.488 29.6693 308.488 30.0273C308.488 31.4271 308.358 32.8105 308.098 34.1777C307.837 35.5124 307.707 36.8633 307.707 38.2305V38.9629C307.707 39.1908 307.723 39.4349 307.756 39.6953C307.821 39.8581 307.935 39.972 308.098 40.0371C308.293 40.0697 308.456 40.1348 308.586 40.2324C309.009 39.9395 309.432 39.7116 309.855 39.5488C310.311 39.3535 310.767 39.1745 311.223 39.0117C311.711 38.8164 312.167 38.6374 312.59 38.4746C313.046 38.2793 313.485 38.0514 313.908 37.791H315.275C315.633 37.5306 316.057 37.3353 316.545 37.2051C317.033 37.0749 317.359 36.7819 317.521 36.3262C317.587 36.3913 317.652 36.4238 317.717 36.4238H317.912C318.303 36.4238 318.693 36.3424 319.084 36.1797C319.507 36.0169 319.93 35.8542 320.354 35.6914C320.777 35.4961 321.2 35.3171 321.623 35.1543C322.046 34.9915 322.486 34.9102 322.941 34.9102C323.039 34.9102 323.12 34.9264 323.186 34.959C323.283 34.959 323.381 34.959 323.479 34.959C323.674 34.6335 323.951 34.3893 324.309 34.2266C324.667 34.0312 325.041 33.8685 325.432 33.7383C325.822 33.6081 326.213 33.4779 326.604 33.3477C327.027 33.2174 327.385 33.0547 327.678 32.8594H327.873C328.068 32.8594 328.215 32.9082 328.312 33.0059C328.443 33.071 328.589 33.1361 328.752 33.2012C329.663 32.6152 330.591 32.3223 331.535 32.3223C332.512 32.2897 333.521 32.2246 334.562 32.127C334.79 32.5176 334.986 32.8431 335.148 33.1035C335.344 33.3314 335.441 33.6732 335.441 34.1289C335.441 34.3568 335.425 34.5195 335.393 34.6172C335.035 34.7474 334.758 34.8613 334.562 34.959L334.025 35.252C333.863 35.3171 333.667 35.3822 333.439 35.4473C333.212 35.4798 332.886 35.4961 332.463 35.4961C332.202 35.4961 332.089 35.5775 332.121 35.7402C332.154 35.8704 332.072 35.9518 331.877 35.9844C331.421 36.1471 330.965 36.2773 330.51 36.375C330.054 36.4727 329.598 36.6029 329.143 36.7656C328.199 37.0586 327.255 37.3841 326.311 37.7422C325.399 38.0677 324.455 38.3281 323.479 38.5234C322.665 39.1745 321.786 39.7116 320.842 40.1348C319.898 40.5254 318.921 40.8509 317.912 41.1113C316.838 41.8926 315.78 42.625 314.738 43.3086C313.697 43.9596 312.525 44.513 311.223 44.9688C311.06 45.1315 310.865 45.278 310.637 45.4082C310.409 45.5384 310.262 45.7337 310.197 45.9941C310.132 45.9941 310.051 45.9941 309.953 45.9941C309.888 45.9616 309.807 45.9453 309.709 45.9453C309.253 45.9453 308.895 46.0592 308.635 46.2871C308.407 46.4824 308.114 46.6126 307.756 46.6777C307.593 47.166 307.512 47.5892 307.512 47.9473C307.512 48.403 307.593 48.8099 307.756 49.168C307.919 49.526 308.114 49.8678 308.342 50.1934C308.602 50.5189 308.863 50.8444 309.123 51.1699C309.416 51.4629 309.66 51.7884 309.855 52.1465C309.79 52.5371 309.66 52.8464 309.465 53.0742C309.302 53.3346 309.107 53.5625 308.879 53.7578C308.651 53.9857 308.423 54.2135 308.195 54.4414C308 54.6693 307.854 54.9622 307.756 55.3203C307.17 55.418 306.6 55.4668 306.047 55.4668C305.689 55.4668 305.314 55.418 304.924 55.3203C304.566 55.2552 304.224 55.125 303.898 54.9297C303.378 54.2135 303.003 53.4486 302.775 52.6348C302.58 51.821 302.303 51.0072 301.945 50.1934L301.994 49.8516C301.994 49.1354 301.864 48.5169 301.604 47.9961C301.376 47.4427 301.018 46.8893 300.529 46.3359C300.562 46.2708 300.578 46.1569 300.578 45.9941C300.578 45.571 300.448 45.1803 300.188 44.8223C300.253 44.0736 300.448 43.4876 300.773 43.0645C301.132 42.6413 301.522 42.1693 301.945 41.6484V41.0625C301.945 39.6628 302.059 38.2956 302.287 36.9609C302.548 35.5938 302.678 34.2266 302.678 32.8594C302.678 32.013 302.613 31.2643 302.482 30.6133C302.385 30.5807 302.255 30.5645 302.092 30.5645C301.929 30.5645 301.799 30.6133 301.701 30.7109C301.604 30.776 301.522 30.8574 301.457 30.9551C301.392 31.0527 301.311 31.1504 301.213 31.248C301.148 31.3457 301.034 31.4108 300.871 31.4434C300.318 31.3457 299.96 31.0853 299.797 30.6621C299.634 30.2389 299.553 29.7669 299.553 29.2461C299.553 28.9531 299.569 28.6602 299.602 28.3672C299.634 28.0742 299.667 27.765 299.699 27.4395C300.936 26.0723 302.417 24.8027 304.143 23.6309C305.868 22.459 307.577 21.515 309.27 20.7988C309.367 20.7663 309.481 20.75 309.611 20.75C309.742 20.75 309.855 20.7826 309.953 20.8477C310.051 20.8802 310.165 20.8965 310.295 20.8965C310.393 20.8965 310.474 20.8639 310.539 20.7988C310.865 20.7988 311.092 20.7012 311.223 20.5059C311.353 20.3105 311.532 20.1152 311.76 19.9199C311.988 20.0827 312.183 20.1641 312.346 20.1641C312.671 20.1641 312.997 20.0176 313.322 19.7246C313.648 19.4316 314.006 19.2526 314.396 19.1875C315.894 18.9271 317.359 18.7155 318.791 18.5527C320.256 18.39 321.704 18.0156 323.137 17.4297C323.462 17.5924 323.788 17.6901 324.113 17.7227C324.439 17.7552 324.764 17.7715 325.09 17.7715C325.448 17.7715 325.839 17.7389 326.262 17.6738C326.717 17.5762 327.076 17.3809 327.336 17.0879C328.378 17.2181 329.484 17.2669 330.656 17.2344C331.861 17.2018 333.049 17.2181 334.221 17.2832C335.425 17.3483 336.581 17.5111 337.688 17.7715C338.794 18.0319 339.771 18.5039 340.617 19.1875C340.682 19.4154 340.764 19.627 340.861 19.8223C340.959 20.0176 341.008 20.2292 341.008 20.457ZM369.035 23.7285C368.84 24.0215 368.726 24.347 368.693 24.7051C368.661 25.0632 368.645 25.3887 368.645 25.6816C368.645 26.0723 368.645 26.4629 368.645 26.8535C368.677 27.2116 368.693 27.5697 368.693 27.9277V28.6602C368.628 28.888 368.531 29.1159 368.4 29.3438C368.27 29.5716 368.173 29.7995 368.107 30.0273C367.652 31.2318 367.424 32.4362 367.424 33.6406V33.7383C367.261 34.1289 367.098 34.487 366.936 34.8125C366.805 35.138 366.675 35.4635 366.545 35.7891C366.415 36.082 366.317 36.4076 366.252 36.7656C366.187 37.0911 366.171 37.4818 366.203 37.9375C365.747 39.0768 365.145 40.1185 364.396 41.0625C363.648 41.974 362.915 42.918 362.199 43.8945C361.516 44.1549 360.881 44.4967 360.295 44.9199C359.742 45.3431 359.204 45.8151 358.684 46.3359C357.674 46.6615 356.682 47.0358 355.705 47.459C354.729 47.8822 353.85 48.4518 353.068 49.168C352.45 49.2331 351.831 49.3307 351.213 49.4609C350.594 49.5911 349.992 49.7865 349.406 50.0469H348.82C348.527 50.0469 348.316 49.9818 348.186 49.8516C347.762 50.0794 347.323 50.2422 346.867 50.3398C346.411 50.4049 345.956 50.4375 345.5 50.4375C344.914 50.4375 344.328 50.4049 343.742 50.3398C343.189 50.2422 342.619 50.1445 342.033 50.0469C341.708 49.5911 341.252 49.2493 340.666 49.0215C340.08 48.7611 339.559 48.5169 339.104 48.2891C338.16 46.987 337.476 45.7337 337.053 44.5293C336.63 43.2923 336.19 41.9089 335.734 40.3789C335.799 39.9232 335.913 39.4837 336.076 39.0605C336.239 38.6048 336.304 38.1165 336.271 37.5957C336.857 35.903 337.622 34.373 338.566 33.0059C339.543 31.6061 340.65 30.2715 341.887 29.002C341.887 28.8066 341.919 28.6439 341.984 28.5137C342.082 28.3835 342.098 28.1882 342.033 27.9277C342.066 27.9603 342.131 27.9766 342.229 27.9766C342.489 27.9766 342.652 27.9115 342.717 27.7812C342.782 27.6185 342.798 27.4395 342.766 27.2441C343.938 26.4954 344.995 25.6328 345.939 24.6562C346.916 23.6797 348.023 22.8659 349.26 22.2148C349.357 21.9219 349.52 21.6777 349.748 21.4824C349.976 21.2871 350.155 21.0592 350.285 20.7988C351.327 20.5059 352.271 20.0664 353.117 19.4805C353.964 18.8945 354.859 18.3737 355.803 17.918C356.324 17.625 356.812 17.4297 357.268 17.332C357.756 17.2018 358.277 17.0716 358.83 16.9414C359.025 16.8763 359.204 16.8275 359.367 16.7949C359.53 16.7624 359.709 16.7461 359.904 16.7461C360.49 16.7461 361.06 16.86 361.613 17.0879C362.167 17.2832 362.736 17.3809 363.322 17.3809C363.485 17.3809 363.615 17.3809 363.713 17.3809C363.843 17.3483 363.973 17.3158 364.104 17.2832C364.657 17.9668 365.357 18.4876 366.203 18.8457C366.398 19.334 366.626 19.7572 366.887 20.1152C367.18 20.4733 367.473 20.8314 367.766 21.1895C368.059 21.515 368.319 21.8893 368.547 22.3125C368.807 22.7031 368.97 23.1751 369.035 23.7285ZM364.152 26.2676C364.152 26.1048 364.136 25.9583 364.104 25.8281C363.778 25.7305 363.469 25.6003 363.176 25.4375C362.883 25.2747 362.557 25.1934 362.199 25.1934C361.971 25.1934 361.743 25.2422 361.516 25.3398C361.483 25.112 361.385 24.9492 361.223 24.8516C361.092 24.7539 360.93 24.6725 360.734 24.6074C360.572 24.5098 360.393 24.4447 360.197 24.4121C360.035 24.347 359.888 24.2493 359.758 24.1191C359.66 23.8587 359.546 23.5983 359.416 23.3379C359.318 23.0449 359.123 22.8333 358.83 22.7031C358.537 22.9961 358.195 23.2402 357.805 23.4355C357.414 23.5983 357.007 23.7611 356.584 23.9238C356.193 24.0866 355.803 24.2819 355.412 24.5098C355.054 24.7376 354.745 25.0143 354.484 25.3398H353.605C353.41 25.6979 353.133 25.9746 352.775 26.1699C352.417 26.3327 352.108 26.5768 351.848 26.9023C351.327 27.1628 350.839 27.4883 350.383 27.8789C349.96 28.237 349.536 28.6276 349.113 29.0508C348.69 29.4414 348.267 29.8483 347.844 30.2715C347.453 30.6947 347.03 31.0853 346.574 31.4434C346.151 32.3548 345.679 33.1523 345.158 33.8359C344.67 34.487 344.198 35.1543 343.742 35.8379C343.319 36.5215 342.945 37.2702 342.619 38.084C342.326 38.8652 342.18 39.8418 342.18 41.0137V41.502C342.18 41.6647 342.196 41.8275 342.229 41.9902C342.652 42.446 342.993 42.9342 343.254 43.4551C343.547 43.9759 344.019 44.3503 344.67 44.5781C345.321 44.8385 346.005 44.9525 346.721 44.9199C347.469 44.8874 348.186 44.9688 348.869 45.1641C350.432 44.8711 351.929 44.3991 353.361 43.748C354.826 43.0645 356.21 42.2507 357.512 41.3066C357.707 41.1439 357.935 40.9811 358.195 40.8184C358.456 40.623 358.667 40.4277 358.83 40.2324C358.993 40.0697 359.123 39.8906 359.221 39.6953C359.351 39.5 359.481 39.321 359.611 39.1582C359.872 38.735 360.165 38.3118 360.49 37.8887C360.816 37.4655 361.158 37.0749 361.516 36.7168C361.678 36.0007 361.89 35.3171 362.15 34.666C362.411 33.9824 362.671 33.3151 362.932 32.6641C363.192 32.013 363.404 31.3457 363.566 30.6621C363.762 29.9785 363.859 29.2624 363.859 28.5137C363.859 28.3509 363.843 28.1719 363.811 27.9766C363.811 27.7812 363.794 27.6022 363.762 27.4395C364.022 27.0814 364.152 26.6908 364.152 26.2676ZM434.855 43.5039C434.79 43.9922 434.611 44.3665 434.318 44.627C434.058 44.8874 433.749 45.1315 433.391 45.3594C433.228 45.3268 433.065 45.3105 432.902 45.3105C432.772 45.278 432.626 45.2617 432.463 45.2617C431.454 45.2292 430.493 45.3594 429.582 45.6523C428.703 45.9453 427.792 46.1569 426.848 46.2871C426.522 46.3522 426.213 46.3848 425.92 46.3848C425.66 46.3522 425.383 46.3685 425.09 46.4336C424.048 46.5964 422.941 46.7266 421.77 46.8242C420.598 46.9219 419.426 47.0521 418.254 47.2148C417.082 47.3451 415.926 47.5241 414.787 47.752C413.68 47.9473 412.639 48.2402 411.662 48.6309C411.564 48.5658 411.467 48.5007 411.369 48.4355C411.271 48.3379 411.158 48.2891 411.027 48.2891C410.702 48.2891 410.393 48.3379 410.1 48.4355C409.807 48.5332 409.514 48.5658 409.221 48.5332C408.895 48.7285 408.537 48.875 408.146 48.9727C407.788 49.0378 407.414 49.1029 407.023 49.168C406.665 49.2005 406.307 49.2656 405.949 49.3633C405.591 49.4609 405.249 49.64 404.924 49.9004C404.663 49.7702 404.338 49.7051 403.947 49.7051C403.589 49.6725 403.345 49.5423 403.215 49.3145C402.466 49.6725 401.669 49.9004 400.822 49.998C400.008 50.0957 399.178 50.1283 398.332 50.0957C397.779 50.0632 397.144 49.9818 396.428 49.8516C395.712 49.7214 394.995 49.5423 394.279 49.3145C393.563 49.054 392.896 48.7611 392.277 48.4355C391.659 48.0775 391.187 47.6543 390.861 47.166C390.633 46.8405 390.471 46.4824 390.373 46.0918C390.275 45.7012 390.048 45.4082 389.689 45.2129C389.787 44.4642 389.901 43.7318 390.031 43.0156C390.161 42.2995 390.292 41.5671 390.422 40.8184C391.073 40.265 391.691 39.679 392.277 39.0605C392.863 38.4421 393.417 37.791 393.938 37.1074C394.556 36.8145 395.126 36.4564 395.646 36.0332C396.2 35.61 396.737 35.1868 397.258 34.7637C397.811 34.3079 398.348 33.8685 398.869 33.4453C399.423 33.0221 400.008 32.6478 400.627 32.3223C400.725 32.0944 400.855 31.9154 401.018 31.7852C401.213 31.6224 401.408 31.4759 401.604 31.3457C401.799 31.1829 401.978 31.0202 402.141 30.8574C402.303 30.6621 402.417 30.4342 402.482 30.1738C403.622 29.4902 404.615 28.6276 405.461 27.5859C406.307 26.5443 406.861 25.3724 407.121 24.0703C406.568 23.6146 405.933 23.3216 405.217 23.1914C404.533 23.0286 403.817 22.9147 403.068 22.8496C402.417 22.8171 401.734 22.8171 401.018 22.8496C400.334 22.8822 399.634 22.8659 398.918 22.8008C398.202 23.0286 397.453 23.1751 396.672 23.2402C395.923 23.3053 395.174 23.3704 394.426 23.4355C393.677 23.4681 392.928 23.5658 392.18 23.7285C391.464 23.8587 390.764 24.1191 390.08 24.5098C389.95 24.5098 389.82 24.4935 389.689 24.4609C389.592 24.4284 389.478 24.4121 389.348 24.4121C388.306 24.3796 387.329 24.5911 386.418 25.0469C385.507 25.4701 384.611 25.8932 383.732 26.3164C383.667 26.4466 383.635 26.5443 383.635 26.6094C383.635 26.8047 383.667 27 383.732 27.1953C383.83 27.3581 383.879 27.5371 383.879 27.7324C383.846 27.765 383.83 27.7975 383.83 27.8301C383.83 27.8626 383.814 27.8952 383.781 27.9277C383.749 28.0905 383.7 28.237 383.635 28.3672C383.602 28.4974 383.553 28.6439 383.488 28.8066C383.13 29.8483 382.935 30.8737 382.902 31.8828C382.87 32.7292 382.87 33.5592 382.902 34.373C382.935 35.1868 382.935 36.0169 382.902 36.8633C382.837 37.9049 382.674 38.8815 382.414 39.793C382.577 40.5742 382.723 41.4043 382.854 42.2832C382.984 43.1296 383.146 43.9759 383.342 44.8223C383.537 45.6686 383.765 46.4987 384.025 47.3125C384.318 48.0938 384.693 48.8424 385.148 49.5586C385.116 49.6237 385.132 49.6725 385.197 49.7051C385.262 49.7376 385.327 49.7539 385.393 49.7539H385.783C385.946 49.7539 386.011 49.819 385.979 49.9492C386.044 50.0469 386.092 50.1445 386.125 50.2422C386.158 50.3073 386.223 50.3724 386.32 50.4375C386.385 50.5352 386.385 50.6654 386.32 50.8281C386.288 51.4792 386.125 52.0814 385.832 52.6348C385.539 53.1882 385.36 53.7904 385.295 54.4414C384.904 54.5391 384.546 54.5879 384.221 54.5879C383.667 54.5553 383.179 54.3926 382.756 54.0996C382.333 53.8392 381.942 53.5137 381.584 53.123C381.226 52.7324 380.884 52.3418 380.559 51.9512C380.233 51.528 379.875 51.1699 379.484 50.877C379.257 49.9655 379.029 48.9564 378.801 47.8496C378.605 46.7428 378.264 45.7988 377.775 45.0176C377.906 44.7246 377.971 44.3665 377.971 43.9434C378.003 43.2923 377.938 42.6576 377.775 42.0391C377.645 41.388 377.613 40.737 377.678 40.0859C377.678 39.7279 377.71 39.3698 377.775 39.0117C377.873 38.6536 377.938 38.2956 377.971 37.9375C378.003 37.3841 377.938 36.847 377.775 36.3262C377.645 35.8053 377.596 35.2682 377.629 34.7148C377.661 34.4544 377.71 34.2103 377.775 33.9824C377.873 33.722 378.003 33.4941 378.166 33.2988C378.003 32.9082 377.954 32.5339 378.02 32.1758C378.052 31.6224 378.117 31.1016 378.215 30.6133C378.312 30.125 378.378 29.6367 378.41 29.1484C378.41 28.888 378.394 28.6439 378.361 28.416C378.329 28.1556 378.28 27.9115 378.215 27.6836L377.775 27.5371C377.58 27.5371 377.385 27.5859 377.189 27.6836C377.027 27.7812 376.88 27.8952 376.75 28.0254C376.62 28.1556 376.506 28.2695 376.408 28.3672C376.311 28.4323 376.213 28.4648 376.115 28.4648C376.05 28.4648 375.969 28.4648 375.871 28.4648C375.806 28.4323 375.741 28.416 375.676 28.416C375.611 28.416 375.48 28.4811 375.285 28.6113C375.122 28.7415 374.911 28.888 374.65 29.0508C374.423 29.181 374.195 29.3275 373.967 29.4902C373.739 29.6204 373.56 29.7018 373.43 29.7344C373.072 29.6693 372.779 29.5553 372.551 29.3926C372.355 29.1973 372.16 29.0182 371.965 28.8555C371.802 28.6602 371.623 28.4974 371.428 28.3672C371.232 28.2044 370.988 28.1393 370.695 28.1719C370.598 27.9766 370.549 27.765 370.549 27.5371C370.516 27.3092 370.516 27.0814 370.549 26.8535V26.0723C370.777 25.6491 371.086 25.3073 371.477 25.0469C371.835 24.7539 372.225 24.5098 372.648 24.3145L373.918 23.7285C374.341 23.5332 374.732 23.2891 375.09 22.9961H375.529C376.115 23.0286 376.62 22.9147 377.043 22.6543C377.499 22.3939 377.922 22.1009 378.312 21.7754C378.703 21.4173 379.094 21.0592 379.484 20.7012C379.908 20.3431 380.363 20.0664 380.852 19.8711C381.21 20.0339 381.584 20.1803 381.975 20.3105C382.365 20.4082 382.772 20.4733 383.195 20.5059C383.618 20.5059 384.058 20.4408 384.514 20.3105C384.969 20.1803 385.327 19.9362 385.588 19.5781C385.751 19.6432 385.881 19.6921 385.979 19.7246C386.109 19.7246 386.255 19.7246 386.418 19.7246C386.906 19.7572 387.395 19.6921 387.883 19.5293C388.371 19.334 388.843 19.1061 389.299 18.8457C389.95 18.8783 390.585 18.8457 391.203 18.748C391.854 18.6178 392.489 18.4876 393.107 18.3574C393.758 18.2272 394.393 18.1133 395.012 18.0156C395.663 17.8854 396.314 17.8366 396.965 17.8691C398.039 17.9017 399.097 17.804 400.139 17.5762C401.18 17.3483 402.238 17.2669 403.312 17.332C404.061 17.3646 404.794 17.4297 405.51 17.5273C406.258 17.5924 407.007 17.6087 407.756 17.5762C408.179 17.7715 408.553 17.9505 408.879 18.1133C409.237 18.2435 409.676 18.276 410.197 18.2109C411.239 19.0898 412.183 20.1152 413.029 21.2871V22.1172C412.997 22.8659 412.867 23.5983 412.639 24.3145C412.411 25.0306 412.134 25.7467 411.809 26.4629C411.516 27.1465 411.19 27.8301 410.832 28.5137C410.474 29.1647 410.132 29.8158 409.807 30.4668C407.691 32.3874 405.575 34.2917 403.459 36.1797C401.343 38.0677 399.162 39.8906 396.916 41.6484C396.851 41.974 396.753 42.2669 396.623 42.5273C396.525 42.7878 396.46 43.0645 396.428 43.3574C396.428 43.5202 396.444 43.6504 396.477 43.748C396.704 43.8132 396.9 43.9434 397.062 44.1387C397.258 44.3014 397.323 44.5293 397.258 44.8223H397.697C397.86 44.8223 397.941 44.8874 397.941 45.0176L398.723 45.0664C399.96 45.1315 401.197 45.099 402.434 44.9688C403.671 44.8385 404.908 44.6921 406.145 44.5293C407.414 44.3665 408.667 44.2201 409.904 44.0898C411.141 43.9271 412.378 43.8294 413.615 43.7969C413.908 43.6992 414.217 43.6178 414.543 43.5527C414.868 43.4876 415.161 43.3574 415.422 43.1621H415.568C415.796 43.1621 415.959 43.2272 416.057 43.3574C416.187 43.4876 416.366 43.569 416.594 43.6016C416.757 43.6016 416.919 43.569 417.082 43.5039C417.277 43.4388 417.473 43.39 417.668 43.3574C418.124 43.2272 418.596 43.1458 419.084 43.1133C419.605 43.0807 420.109 43.0319 420.598 42.9668C422.486 42.804 424.357 42.7064 426.213 42.6738C428.068 42.6087 429.924 42.3646 431.779 41.9414C431.942 42.1693 432.17 42.332 432.463 42.4297C432.756 42.4948 433.065 42.5762 433.391 42.6738C433.716 42.7389 434.009 42.8203 434.27 42.918C434.562 43.0156 434.758 43.2109 434.855 43.5039ZM467.961 45.8477C467.798 46.3685 467.749 46.8893 467.814 47.4102C467.717 47.5404 467.603 47.6217 467.473 47.6543C467.342 47.6868 467.212 47.7357 467.082 47.8008C466.952 47.8333 466.838 47.8984 466.74 47.9961C466.675 48.0612 466.675 48.2077 466.74 48.4355C465.666 48.5007 464.641 48.7285 463.664 49.1191C462.688 49.5098 461.727 49.9329 460.783 50.3887C460.295 50.2259 459.872 50.0306 459.514 49.8027C459.156 49.5749 458.7 49.4284 458.146 49.3633C457.593 48.2565 457.072 47.1009 456.584 45.8965C456.128 44.6595 455.9 43.4225 455.9 42.1855C455.9 41.2741 456.063 40.444 456.389 39.6953C456.389 38.7188 456.47 37.7585 456.633 36.8145C456.796 35.8704 456.975 34.9427 457.17 34.0312C457.398 33.0872 457.593 32.1432 457.756 31.1992C457.919 30.2552 458 29.2949 458 28.3184V27.2441C457.935 27.2441 457.854 27.3255 457.756 27.4883C457.658 27.6185 457.561 27.7812 457.463 27.9766C457.398 28.1393 457.333 28.3021 457.268 28.4648C457.202 28.6276 457.154 28.7253 457.121 28.7578C456.568 29.181 456.128 29.7181 455.803 30.3691C455.51 30.9876 455.184 31.5736 454.826 32.127C454.37 32.8105 453.882 33.4779 453.361 34.1289C452.873 34.7799 452.255 35.2845 451.506 35.6426V35.7402C451.506 35.903 451.457 36.0169 451.359 36.082C451.262 36.1471 451.245 36.3099 451.311 36.5703C450.497 36.8307 449.732 37.2051 449.016 37.6934C448.332 38.1816 447.762 38.8001 447.307 39.5488C446.656 39.7116 446.037 39.9395 445.451 40.2324C444.898 40.4928 444.328 40.7858 443.742 41.1113C443.482 41.2415 443.205 41.4043 442.912 41.5996C442.619 41.7949 442.326 41.9251 442.033 41.9902C441.773 42.0879 441.415 42.153 440.959 42.1855C440.536 42.2181 440.08 42.2507 439.592 42.2832C439.136 42.3158 438.68 42.332 438.225 42.332H437.15C436.988 42.332 436.776 42.2507 436.516 42.0879C436.255 41.9251 435.962 41.7461 435.637 41.5508C435.344 41.3555 435.035 41.1764 434.709 41.0137C434.383 40.8184 434.074 40.6882 433.781 40.623C433.521 39.7767 433.146 39.028 432.658 38.377C432.202 37.6934 431.714 37.0098 431.193 36.3262C431.031 35.5449 430.803 34.7311 430.51 33.8848C430.249 33.0384 429.777 32.3385 429.094 31.7852C429.257 31.5573 429.338 31.2969 429.338 31.0039C429.338 30.6458 429.257 30.304 429.094 29.9785C428.931 29.653 428.85 29.2949 428.85 28.9043C428.85 28.6439 428.866 28.4486 428.898 28.3184C428.54 28.709 428.28 29.2135 428.117 29.832C427.987 30.418 427.922 30.9551 427.922 31.4434C427.922 31.834 427.971 32.1921 428.068 32.5176C427.743 32.9733 427.531 33.543 427.434 34.2266C427.368 34.9102 427.336 35.5124 427.336 36.0332C427.336 36.6842 427.385 37.319 427.482 37.9375C426.962 38.4583 426.701 39.0931 426.701 39.8418C426.701 40.265 426.799 40.6393 426.994 40.9648C426.994 41.0951 426.962 41.1927 426.896 41.2578C426.831 41.3229 426.75 41.3717 426.652 41.4043C426.587 41.4368 426.506 41.4857 426.408 41.5508C426.343 41.5833 426.311 41.6647 426.311 41.7949C426.311 41.9577 426.311 42.1367 426.311 42.332C426.343 42.5273 426.359 42.7227 426.359 42.918C426.359 43.3737 426.343 43.8457 426.311 44.334C426.278 44.8223 426.262 45.2943 426.262 45.75C426.262 46.694 426.343 47.3776 426.506 47.8008C426.701 48.1914 426.929 48.4844 427.189 48.6797C427.482 48.875 427.792 49.0703 428.117 49.2656C428.443 49.4609 428.768 49.8353 429.094 50.3887C428.996 50.6816 428.817 50.9258 428.557 51.1211C428.329 51.2839 428.101 51.4629 427.873 51.6582C427.678 51.821 427.499 52.0163 427.336 52.2441C427.173 52.472 427.108 52.7975 427.141 53.2207H426.896C426.473 53.2207 426.066 53.2858 425.676 53.416C425.285 53.5462 424.878 53.6113 424.455 53.6113C424.357 53.6113 424.26 53.5951 424.162 53.5625C424.064 53.5625 423.967 53.5625 423.869 53.5625L423.381 53.2695C423.218 53.1719 423.055 53.123 422.893 53.123C422.73 53.123 422.518 53.1556 422.258 53.2207C421.802 51.7559 421.444 50.2422 421.184 48.6797C420.956 47.1172 420.842 45.5872 420.842 44.0898C420.842 43.9271 420.874 43.7643 420.939 43.6016C421.037 43.4062 421.167 43.3411 421.33 43.4062V42.4785C421.33 41.4694 421.411 40.4928 421.574 39.5488C421.77 38.5723 421.867 37.5632 421.867 36.5215C421.867 36.2285 421.851 35.9355 421.818 35.6426C421.818 35.3496 421.802 35.0729 421.77 34.8125C421.932 34.2591 422.095 33.7057 422.258 33.1523C422.453 32.5664 422.551 31.9642 422.551 31.3457C422.551 31.0853 422.502 30.776 422.404 30.418C422.665 30.2227 422.86 29.9785 422.99 29.6855C423.12 29.36 423.218 29.0182 423.283 28.6602C423.348 28.2695 423.397 27.8952 423.43 27.5371C423.462 27.179 423.495 26.8535 423.527 26.5605C423.853 25.9095 424.032 25.2096 424.064 24.4609C424.097 23.7122 424.26 23.0124 424.553 22.3613C424.52 22.2311 424.504 22.0033 424.504 21.6777C424.504 21.0267 424.602 20.3757 424.797 19.7246C425.025 19.041 425.464 18.5202 426.115 18.1621C426.701 18.39 427.385 18.5039 428.166 18.5039C428.915 18.5039 429.631 18.39 430.314 18.1621C430.51 18.2272 430.689 18.3086 430.852 18.4062C431.014 18.4714 431.177 18.5527 431.34 18.6504C431.535 18.7155 431.73 18.7806 431.926 18.8457C432.121 18.8783 432.349 18.8783 432.609 18.8457C432.935 19.7897 433.212 20.75 433.439 21.7266C433.7 22.7031 433.895 23.696 434.025 24.7051C434.09 25.1283 434.107 25.584 434.074 26.0723C434.074 26.5605 434.107 27.0163 434.172 27.4395C434.204 27.6999 434.286 27.944 434.416 28.1719C434.546 28.3672 434.676 28.5951 434.807 28.8555C434.937 29.1159 435.035 29.4089 435.1 29.7344C435.197 30.0599 435.23 30.4668 435.197 30.9551C435.555 31.8014 435.946 32.6152 436.369 33.3965C436.825 34.1452 437.313 34.8939 437.834 35.6426C438.127 35.7402 438.387 35.8704 438.615 36.0332C438.843 36.1634 438.99 36.3913 439.055 36.7168C439.348 36.7168 439.608 36.7656 439.836 36.8633L440.666 37.1074C441.903 36.7168 443.042 36.196 444.084 35.5449C445.158 34.8939 446.281 34.3405 447.453 33.8848C448.885 32.485 450.122 30.9388 451.164 29.2461C452.206 27.5208 453.247 25.8118 454.289 24.1191V23.0449C454.484 22.9473 454.647 22.8333 454.777 22.7031C454.94 22.5404 455.135 22.4264 455.363 22.3613C455.396 21.9707 455.477 21.5964 455.607 21.2383C455.77 20.8477 455.933 20.4896 456.096 20.1641C456.291 19.806 456.454 19.4642 456.584 19.1387C456.714 18.7806 456.779 18.4062 456.779 18.0156C456.779 17.7878 456.763 17.5924 456.73 17.4297C457.219 16.9414 457.805 16.6973 458.488 16.6973C459.139 16.6973 459.79 16.86 460.441 17.1855C461.125 17.4785 461.76 17.7552 462.346 18.0156C462.704 18.7969 462.964 19.627 463.127 20.5059C463.322 21.3522 463.452 22.2311 463.518 23.1426C463.583 24.054 463.615 24.9655 463.615 25.877V29.3438C463.583 29.6042 463.485 29.7995 463.322 29.9297C463.192 30.0273 463.094 30.1901 463.029 30.418V30.9062C463.029 31.069 463.013 31.2318 462.98 31.3945C462.98 32.0781 462.899 32.7943 462.736 33.543C462.574 34.487 462.362 35.4473 462.102 36.4238C461.874 37.3678 461.76 38.3281 461.76 39.3047C461.76 39.6628 461.776 40.0208 461.809 40.3789C461.841 40.737 461.906 41.0951 462.004 41.4531C461.841 41.7461 461.76 42.1204 461.76 42.5762C461.76 43.097 461.841 43.5853 462.004 44.041C462.199 44.4642 462.427 44.8874 462.688 45.3105C463.143 45.3105 463.599 45.2943 464.055 45.2617C464.51 45.2292 464.982 45.2129 465.471 45.2129C465.926 45.2129 466.35 45.2617 466.74 45.3594C467.131 45.4245 467.538 45.5872 467.961 45.8477ZM505.9 48.4355C505.803 48.8913 505.591 49.2656 505.266 49.5586C504.973 49.819 504.615 50.0306 504.191 50.1934C503.768 50.3561 503.329 50.4701 502.873 50.5352C502.45 50.5677 502.059 50.584 501.701 50.584C501.538 50.584 501.376 50.584 501.213 50.584C501.083 50.5514 500.936 50.5352 500.773 50.5352C500.611 50.5352 500.529 50.6165 500.529 50.7793C500.529 50.9421 500.448 51.056 500.285 51.1211C500.122 51.056 499.96 51.0072 499.797 50.9746C499.634 50.9421 499.471 50.9258 499.309 50.9258C499.081 50.9258 498.853 50.9421 498.625 50.9746C498.43 51.0072 498.234 51.0234 498.039 51.0234C497.779 51.0234 497.583 50.9909 497.453 50.9258C497.355 50.8607 497.258 50.7956 497.16 50.7305C497.095 50.6328 497.014 50.5352 496.916 50.4375C496.851 50.3398 496.737 50.2585 496.574 50.1934C496.346 50.0957 496.151 50.0794 495.988 50.1445C495.858 50.2096 495.646 50.112 495.354 49.8516C494.963 49.526 494.621 49.1354 494.328 48.6797C494.068 48.1914 493.807 47.6868 493.547 47.166C493.286 46.6452 493.01 46.1243 492.717 45.6035C492.424 45.0827 492.082 44.627 491.691 44.2363H491.301C490.715 44.2363 490.308 44.4805 490.08 44.9688C489.917 44.8711 489.755 44.7572 489.592 44.627C489.429 44.4642 489.25 44.334 489.055 44.2363C488.306 44.4642 487.525 44.6595 486.711 44.8223C485.897 44.985 485.083 45.0664 484.27 45.0664H483.586C483.391 45.0664 483.179 45.0339 482.951 44.9688C482.626 45.099 482.333 45.2617 482.072 45.457C481.812 45.6198 481.519 45.7012 481.193 45.7012C480.998 45.7012 480.77 45.6361 480.51 45.5059C480.314 45.5059 480.217 45.5872 480.217 45.75C480.249 45.9128 480.152 45.9941 479.924 45.9941H479.484C479.029 45.9941 478.573 46.0104 478.117 46.043C477.694 46.0755 477.255 46.0918 476.799 46.0918C476.18 46.0918 475.546 46.0104 474.895 45.8477C474.732 45.9453 474.553 45.9941 474.357 45.9941C474.227 46.0592 474.13 46.1732 474.064 46.3359C473.999 46.4661 473.934 46.5964 473.869 46.7266C473.804 46.8242 473.706 46.9219 473.576 47.0195C473.479 47.0846 473.332 47.1009 473.137 47.0684C473.072 47.459 472.909 47.7682 472.648 47.9961C472.388 48.224 472.258 48.5658 472.258 49.0215C471.9 49.2168 471.607 49.4609 471.379 49.7539C471.151 50.0469 470.923 50.3561 470.695 50.6816C470.467 51.0072 470.223 51.3164 469.963 51.6094C469.735 51.9023 469.442 52.1302 469.084 52.293C468.921 52.4883 468.872 52.7975 468.938 53.2207C468.579 53.5137 468.14 53.7741 467.619 54.002C467.098 54.2298 466.61 54.3438 466.154 54.3438C465.21 54.3438 464.559 53.8392 464.201 52.8301C464.201 52.5046 464.234 52.1628 464.299 51.8047C464.331 51.4141 464.396 51.056 464.494 50.7305C464.592 50.3724 464.738 50.0632 464.934 49.8027C465.129 49.5098 465.406 49.2982 465.764 49.168C465.764 48.875 465.666 48.6797 465.471 48.582C465.275 48.4518 465.194 48.2402 465.227 47.9473C466.105 47.5241 466.87 46.9707 467.521 46.2871C468.173 45.6035 468.758 44.8874 469.279 44.1387C469.833 43.3574 470.386 42.5762 470.939 41.7949C471.493 41.0137 472.111 40.3138 472.795 39.6953V38.6699C473.771 37.6283 474.406 36.4564 474.699 35.1543C475.057 35.0892 475.285 34.9264 475.383 34.666C475.513 34.4056 475.578 34.0964 475.578 33.7383C475.741 33.7383 475.839 33.6732 475.871 33.543C475.936 33.3802 476.083 33.3314 476.311 33.3965C476.604 32.6152 476.929 31.8991 477.287 31.248C477.645 30.597 478.003 29.946 478.361 29.2949C478.719 28.6113 479.029 27.9115 479.289 27.1953C479.582 26.4792 479.794 25.6816 479.924 24.8027C480.38 24.7702 480.624 24.5586 480.656 24.168C480.721 23.7448 480.786 23.3704 480.852 23.0449C481.34 22.5892 481.698 22.0521 481.926 21.4336C482.186 20.8151 482.414 20.1803 482.609 19.5293C482.805 18.8457 483.016 18.1784 483.244 17.5273C483.505 16.8438 483.863 16.2415 484.318 15.7207V15.5742C484.318 15.4115 484.253 15.3138 484.123 15.2812C483.993 15.2161 483.928 15.1022 483.928 14.9395C483.96 14.9069 483.977 14.8743 483.977 14.8418C484.367 14.679 484.66 14.4186 484.855 14.0605C485.051 13.6699 485.344 13.3932 485.734 13.2305C486.418 13.7839 487.02 14.1257 487.541 14.2559C488.062 14.3535 488.745 14.4349 489.592 14.5C490.015 14.9557 490.243 15.5091 490.275 16.1602C490.34 16.7786 490.454 17.3971 490.617 18.0156C490.878 19.0573 491.154 20.0827 491.447 21.0918C491.773 22.0684 492.017 23.0775 492.18 24.1191C492.277 24.7376 492.456 25.3236 492.717 25.877C492.977 26.4303 493.156 27 493.254 27.5859C493.319 28.0417 493.319 28.5625 493.254 29.1484C493.189 29.7018 493.254 30.1901 493.449 30.6133L493.791 31.3945C493.954 31.7526 494.084 32.127 494.182 32.5176C494.312 32.9082 494.426 33.2988 494.523 33.6895C494.784 34.666 495.012 35.724 495.207 36.8633C495.435 37.9701 495.777 38.9792 496.232 39.8906C496.395 40.2161 496.639 40.444 496.965 40.5742C497.323 40.7044 497.714 40.8021 498.137 40.8672C498.56 40.8997 498.967 40.916 499.357 40.916C499.781 40.8835 500.139 40.8672 500.432 40.8672H500.92C501.115 40.8672 501.311 40.8997 501.506 40.9648C501.636 41.2253 501.701 41.4531 501.701 41.6484C501.701 42.0391 501.571 42.3483 501.311 42.5762C501.05 42.804 500.92 43.0645 500.92 43.3574C500.92 43.5202 500.985 43.6992 501.115 43.8945C500.985 43.862 500.79 43.8457 500.529 43.8457C499.781 43.8457 499.048 43.9759 498.332 44.2363C498.592 44.7897 498.934 45.2617 499.357 45.6523C499.813 46.0104 500.285 46.3522 500.773 46.6777C501.099 46.4173 501.441 46.2871 501.799 46.2871C502.189 46.2871 502.548 46.3848 502.873 46.5801C503.231 46.7428 503.605 46.8242 503.996 46.8242C504.289 46.8242 504.501 46.7754 504.631 46.6777C504.891 46.9707 505.103 47.2799 505.266 47.6055C505.428 47.8984 505.64 48.1751 505.9 48.4355ZM490.617 40.623C490.552 40.0697 490.438 39.679 490.275 39.4512C490.145 39.1908 490.031 38.8815 489.934 38.5234C489.803 38.0677 489.706 37.5794 489.641 37.0586C489.608 36.5378 489.543 36.0332 489.445 35.5449C489.217 34.4382 488.957 33.3314 488.664 32.2246C488.404 31.1178 488.062 30.0436 487.639 29.002C487.769 28.8066 487.834 28.6276 487.834 28.4648V28.3184C487.541 27.9928 487.329 27.6022 487.199 27.1465C487.069 26.6582 486.939 26.1862 486.809 25.7305C486.711 25.2422 486.564 24.8027 486.369 24.4121C486.206 23.9889 485.93 23.6471 485.539 23.3867C485.441 23.582 485.393 23.8099 485.393 24.0703C485.393 24.2982 485.409 24.5098 485.441 24.7051C485.507 24.9004 485.539 25.112 485.539 25.3398C485.214 25.5026 484.969 25.763 484.807 26.1211C484.676 26.4466 484.449 26.707 484.123 26.9023C483.863 27.944 483.488 28.9368 483 29.8809C482.512 30.7923 481.991 31.7038 481.438 32.6152C480.917 33.5267 480.412 34.4544 479.924 35.3984C479.436 36.3099 479.045 37.2702 478.752 38.2793C478.329 38.5723 478.036 38.9466 477.873 39.4023C477.743 39.8581 477.678 40.3138 477.678 40.7695C477.971 40.9323 478.296 41.0299 478.654 41.0625C479.045 41.0625 479.419 41.0625 479.777 41.0625C480.135 41.0625 480.477 41.0951 480.803 41.1602C481.128 41.2253 481.421 41.388 481.682 41.6484C482.105 41.5182 482.561 41.4368 483.049 41.4043C483.57 41.3392 483.993 41.1927 484.318 40.9648C484.969 41.1927 485.669 41.3066 486.418 41.3066C486.809 41.3066 487.183 41.2741 487.541 41.209C487.932 41.1439 488.306 41.0625 488.664 40.9648C488.957 41.0299 489.185 41.1439 489.348 41.3066C489.51 41.4368 489.755 41.4857 490.08 41.4531C490.243 41.3229 490.34 41.1927 490.373 41.0625C490.406 40.8997 490.487 40.7533 490.617 40.623ZM545.061 20.6035C544.93 21.0267 544.719 21.4173 544.426 21.7754L543.596 22.8008C543.335 23.1263 543.107 23.4844 542.912 23.875C542.749 24.2331 542.701 24.6562 542.766 25.1445C542.701 25.1445 542.619 25.1445 542.521 25.1445C542.424 25.112 542.342 25.0957 542.277 25.0957C541.757 25.0957 541.35 25.2259 541.057 25.4863C540.796 25.7142 540.438 25.9095 539.982 26.0723C539.917 25.877 539.836 25.6979 539.738 25.5352C539.641 25.3398 539.494 25.2096 539.299 25.1445C538.518 25.3073 537.736 25.4375 536.955 25.5352C536.174 25.6003 535.393 25.6979 534.611 25.8281C534.253 25.8932 533.895 25.9909 533.537 26.1211C533.179 26.2188 532.805 26.3164 532.414 26.4141C532.219 26.4792 532.007 26.5117 531.779 26.5117C531.551 26.4792 531.324 26.4792 531.096 26.5117C530.314 26.5443 529.468 26.6094 528.557 26.707C527.645 26.7721 526.831 27.0163 526.115 27.4395C525.79 27.3743 525.448 27.3255 525.09 27.293C524.732 27.2604 524.374 27.2441 524.016 27.2441C523.234 27.2441 522.372 27.3255 521.428 27.4883C520.516 27.6185 519.702 27.8952 518.986 28.3184C518.824 28.2533 518.645 28.2044 518.449 28.1719C518.286 28.1393 518.091 28.123 517.863 28.123C517.798 28.123 517.749 28.1393 517.717 28.1719C517.684 28.1719 517.635 28.1719 517.57 28.1719C517.538 28.4648 517.57 28.7578 517.668 29.0508C517.798 29.3112 518.01 29.5228 518.303 29.6855C518.173 30.0436 518.107 30.4342 518.107 30.8574C518.107 31.4108 518.14 31.9642 518.205 32.5176C518.303 33.071 518.352 33.6243 518.352 34.1777C518.352 34.7962 518.27 35.2845 518.107 35.6426C518.433 36.6191 518.596 37.6608 518.596 38.7676C518.596 39.1582 518.563 39.5488 518.498 39.9395C518.465 40.2975 518.449 40.6882 518.449 41.1113C518.449 41.4694 518.579 41.7624 518.84 41.9902C519.1 42.1855 519.23 42.4622 519.23 42.8203C519.23 42.9505 519.198 43.0807 519.133 43.2109C519.589 43.1133 520.028 42.9831 520.451 42.8203C520.874 42.625 521.314 42.5273 521.77 42.5273C522.03 42.5273 522.274 42.5762 522.502 42.6738C522.762 42.7715 522.99 42.9017 523.186 43.0645C523.153 43.2272 523.12 43.4062 523.088 43.6016C523.088 43.7969 523.088 43.9922 523.088 44.1875C523.088 44.5456 523.088 44.8874 523.088 45.2129C523.12 45.5059 523.153 45.8314 523.186 46.1895C522.925 46.6452 522.616 47.0521 522.258 47.4102C521.932 47.7682 521.704 48.224 521.574 48.7773C521.086 48.7773 520.646 48.8913 520.256 49.1191C519.898 49.3145 519.556 49.5423 519.23 49.8027C518.905 50.0306 518.579 50.2585 518.254 50.4863C517.928 50.6816 517.57 50.7793 517.18 50.7793C516.691 50.7793 516.35 50.7142 516.154 50.584C515.959 50.4212 515.812 50.2585 515.715 50.0957C515.617 49.9329 515.52 49.7865 515.422 49.6562C515.357 49.526 515.194 49.4772 514.934 49.5098C514.868 49.0866 514.738 48.696 514.543 48.3379C514.348 47.9473 514.136 47.5729 513.908 47.2148C513.713 46.8568 513.501 46.4987 513.273 46.1406C513.078 45.75 512.932 45.3594 512.834 44.9688C512.639 44.1224 512.557 43.2435 512.59 42.332C512.622 41.4206 512.476 40.5417 512.15 39.6953C512.215 39.2396 512.264 38.7839 512.297 38.3281C512.329 37.8398 512.346 37.3678 512.346 36.9121C512.346 36.0007 512.313 35.1055 512.248 34.2266C512.215 33.3151 512.183 32.3874 512.15 31.4434C511.923 31.1504 511.776 30.8249 511.711 30.4668C511.678 30.0762 511.646 29.7018 511.613 29.3438C511.516 29.2461 511.402 29.1484 511.271 29.0508C511.174 28.9531 511.109 28.8229 511.076 28.6602C510.816 28.5951 510.62 28.5625 510.49 28.5625C510.035 28.5625 509.644 28.6764 509.318 28.9043C509.025 29.0996 508.749 29.1973 508.488 29.1973C508.228 29.1973 507.984 29.1647 507.756 29.0996C507.528 29.0345 507.3 29.002 507.072 29.002C506.877 29.002 506.763 29.0508 506.73 29.1484C506.73 29.2135 506.665 29.2786 506.535 29.3438C506.438 29.4089 506.21 29.474 505.852 29.5391C505.493 29.6042 505.087 29.6693 504.631 29.7344C504.208 29.7669 503.785 29.7995 503.361 29.832C502.971 29.8646 502.71 29.8809 502.58 29.8809C502.059 29.8809 501.669 29.7832 501.408 29.5879C501.115 29.36 500.773 29.1159 500.383 28.8555C500.448 28.6602 500.48 28.5299 500.48 28.4648C500.48 28.1393 500.383 27.8789 500.188 27.6836C499.992 27.4557 499.895 27.2604 499.895 27.0977C499.895 26.7396 500.041 26.4629 500.334 26.2676C500.594 26.0723 500.741 25.763 500.773 25.3398C501.522 25.0143 502.287 24.7702 503.068 24.6074C503.85 24.4447 504.647 24.3145 505.461 24.2168C506.275 24.1191 507.072 24.0052 507.854 23.875C508.667 23.7448 509.465 23.5332 510.246 23.2402C510.474 23.2728 510.686 23.3053 510.881 23.3379C511.109 23.3379 511.337 23.3379 511.564 23.3379C512.541 23.3379 513.501 23.2402 514.445 23.0449C515.422 22.8171 516.415 22.7031 517.424 22.7031C517.684 22.7031 517.945 22.7194 518.205 22.752C518.465 22.7845 518.726 22.8333 518.986 22.8984C520.288 22.7031 521.574 22.4915 522.844 22.2637C524.146 22.0358 525.48 21.8405 526.848 21.6777C527.499 21.6126 528.133 21.5638 528.752 21.5312C529.403 21.4661 530.054 21.3848 530.705 21.2871C530.933 21.2546 531.096 21.2057 531.193 21.1406C531.324 21.043 531.389 20.8639 531.389 20.6035C531.682 20.7337 532.007 20.7988 532.365 20.7988C532.919 20.7988 533.456 20.7012 533.977 20.5059C534.497 20.3105 535.035 20.2129 535.588 20.2129C535.718 20.2129 535.832 20.2292 535.93 20.2617C536.027 20.2617 536.125 20.2617 536.223 20.2617C536.451 20.2617 536.564 20.1641 536.564 19.9688C536.597 19.7409 536.76 19.5944 537.053 19.5293C537.281 19.4642 537.606 19.4154 538.029 19.3828C538.452 19.3503 538.892 19.3177 539.348 19.2852C539.836 19.2201 540.275 19.1549 540.666 19.0898C541.089 18.9922 541.398 18.862 541.594 18.6992L541.936 18.1621C542.521 18.1947 542.945 18.4551 543.205 18.9434C543.498 19.3991 543.661 19.9036 543.693 20.457C543.824 20.5872 544.003 20.6523 544.23 20.6523C544.491 20.6198 544.719 20.6035 544.914 20.6035H545.061ZM548.771 45.3105C548.609 45.571 548.413 45.8151 548.186 46.043C547.958 46.2383 547.746 46.4499 547.551 46.6777C547.323 46.7754 547.062 46.8242 546.77 46.8242C546.509 46.8242 546.249 46.8242 545.988 46.8242C545.76 46.7917 545.533 46.7917 545.305 46.8242C545.109 46.8242 544.947 46.8893 544.816 47.0195C544.556 46.9544 544.361 46.8405 544.23 46.6777C544.1 46.4824 543.872 46.3685 543.547 46.3359C543.417 46.3034 543.286 46.3034 543.156 46.3359C542.668 45.7826 542.212 45.1966 541.789 44.5781C541.398 43.9596 541.024 43.3737 540.666 42.8203C540.633 41.6159 540.536 40.3952 540.373 39.1582C540.34 38.8652 540.292 38.5723 540.227 38.2793C540.161 37.9863 540.113 37.7096 540.08 37.4492C540.08 37.1237 540.096 36.8145 540.129 36.5215C540.194 36.196 540.243 35.903 540.275 35.6426C540.406 34.6986 540.552 33.7708 540.715 32.8594C540.878 31.9479 541.024 31.0202 541.154 30.0762C541.285 29.2298 541.35 28.3509 541.35 27.4395C541.35 26.4954 541.203 25.6165 540.91 24.8027L540.861 24.5586C540.926 24.2982 540.992 24.0866 541.057 23.9238C541.154 23.7285 541.219 23.5169 541.252 23.2891C541.317 22.931 541.236 22.6706 541.008 22.5078C541.105 22.2474 541.268 22.0846 541.496 22.0195C541.724 21.9219 541.854 21.7266 541.887 21.4336C541.919 21.3034 541.919 21.1732 541.887 21.043C542.147 20.9453 542.408 20.8639 542.668 20.7988C542.961 20.7012 543.238 20.6849 543.498 20.75C543.921 20.8151 544.296 20.9616 544.621 21.1895C544.947 21.3848 545.256 21.6126 545.549 21.873C546.07 23.4355 546.281 25.0957 546.184 26.8535C546.086 28.5788 545.923 30.3203 545.695 32.0781C545.467 33.8359 545.321 35.5612 545.256 37.2539C545.191 38.9141 545.451 40.4603 546.037 41.8926L546.135 41.9414C546.298 41.974 546.428 41.9251 546.525 41.7949C546.623 41.6322 546.753 41.5671 546.916 41.5996C547.046 41.6647 547.128 41.6973 547.16 41.6973C547.29 42.3483 547.502 42.9668 547.795 43.5527C548.088 44.1387 548.413 44.7246 548.771 45.3105ZM584.318 23.7285C584.123 24.0215 584.009 24.347 583.977 24.7051C583.944 25.0632 583.928 25.3887 583.928 25.6816C583.928 26.0723 583.928 26.4629 583.928 26.8535C583.96 27.2116 583.977 27.5697 583.977 27.9277V28.6602C583.911 28.888 583.814 29.1159 583.684 29.3438C583.553 29.5716 583.456 29.7995 583.391 30.0273C582.935 31.2318 582.707 32.4362 582.707 33.6406V33.7383C582.544 34.1289 582.382 34.487 582.219 34.8125C582.089 35.138 581.958 35.4635 581.828 35.7891C581.698 36.082 581.6 36.4076 581.535 36.7656C581.47 37.0911 581.454 37.4818 581.486 37.9375C581.031 39.0768 580.428 40.1185 579.68 41.0625C578.931 41.974 578.199 42.918 577.482 43.8945C576.799 44.1549 576.164 44.4967 575.578 44.9199C575.025 45.3431 574.488 45.8151 573.967 46.3359C572.958 46.6615 571.965 47.0358 570.988 47.459C570.012 47.8822 569.133 48.4518 568.352 49.168C567.733 49.2331 567.115 49.3307 566.496 49.4609C565.878 49.5911 565.275 49.7865 564.689 50.0469H564.104C563.811 50.0469 563.599 49.9818 563.469 49.8516C563.046 50.0794 562.606 50.2422 562.15 50.3398C561.695 50.4049 561.239 50.4375 560.783 50.4375C560.197 50.4375 559.611 50.4049 559.025 50.3398C558.472 50.2422 557.902 50.1445 557.316 50.0469C556.991 49.5911 556.535 49.2493 555.949 49.0215C555.363 48.7611 554.842 48.5169 554.387 48.2891C553.443 46.987 552.759 45.7337 552.336 44.5293C551.913 43.2923 551.473 41.9089 551.018 40.3789C551.083 39.9232 551.197 39.4837 551.359 39.0605C551.522 38.6048 551.587 38.1165 551.555 37.5957C552.141 35.903 552.906 34.373 553.85 33.0059C554.826 31.6061 555.933 30.2715 557.17 29.002C557.17 28.8066 557.202 28.6439 557.268 28.5137C557.365 28.3835 557.382 28.1882 557.316 27.9277C557.349 27.9603 557.414 27.9766 557.512 27.9766C557.772 27.9766 557.935 27.9115 558 27.7812C558.065 27.6185 558.081 27.4395 558.049 27.2441C559.221 26.4954 560.279 25.6328 561.223 24.6562C562.199 23.6797 563.306 22.8659 564.543 22.2148C564.641 21.9219 564.803 21.6777 565.031 21.4824C565.259 21.2871 565.438 21.0592 565.568 20.7988C566.61 20.5059 567.554 20.0664 568.4 19.4805C569.247 18.8945 570.142 18.3737 571.086 17.918C571.607 17.625 572.095 17.4297 572.551 17.332C573.039 17.2018 573.56 17.0716 574.113 16.9414C574.309 16.8763 574.488 16.8275 574.65 16.7949C574.813 16.7624 574.992 16.7461 575.188 16.7461C575.773 16.7461 576.343 16.86 576.896 17.0879C577.45 17.2832 578.02 17.3809 578.605 17.3809C578.768 17.3809 578.898 17.3809 578.996 17.3809C579.126 17.3483 579.257 17.3158 579.387 17.2832C579.94 17.9668 580.64 18.4876 581.486 18.8457C581.682 19.334 581.91 19.7572 582.17 20.1152C582.463 20.4733 582.756 20.8314 583.049 21.1895C583.342 21.515 583.602 21.8893 583.83 22.3125C584.09 22.7031 584.253 23.1751 584.318 23.7285ZM579.436 26.2676C579.436 26.1048 579.419 25.9583 579.387 25.8281C579.061 25.7305 578.752 25.6003 578.459 25.4375C578.166 25.2747 577.84 25.1934 577.482 25.1934C577.255 25.1934 577.027 25.2422 576.799 25.3398C576.766 25.112 576.669 24.9492 576.506 24.8516C576.376 24.7539 576.213 24.6725 576.018 24.6074C575.855 24.5098 575.676 24.4447 575.48 24.4121C575.318 24.347 575.171 24.2493 575.041 24.1191C574.943 23.8587 574.829 23.5983 574.699 23.3379C574.602 23.0449 574.406 22.8333 574.113 22.7031C573.82 22.9961 573.479 23.2402 573.088 23.4355C572.697 23.5983 572.29 23.7611 571.867 23.9238C571.477 24.0866 571.086 24.2819 570.695 24.5098C570.337 24.7376 570.028 25.0143 569.768 25.3398H568.889C568.693 25.6979 568.417 25.9746 568.059 26.1699C567.701 26.3327 567.391 26.5768 567.131 26.9023C566.61 27.1628 566.122 27.4883 565.666 27.8789C565.243 28.237 564.82 28.6276 564.396 29.0508C563.973 29.4414 563.55 29.8483 563.127 30.2715C562.736 30.6947 562.313 31.0853 561.857 31.4434C561.434 32.3548 560.962 33.1523 560.441 33.8359C559.953 34.487 559.481 35.1543 559.025 35.8379C558.602 36.5215 558.228 37.2702 557.902 38.084C557.609 38.8652 557.463 39.8418 557.463 41.0137V41.502C557.463 41.6647 557.479 41.8275 557.512 41.9902C557.935 42.446 558.277 42.9342 558.537 43.4551C558.83 43.9759 559.302 44.3503 559.953 44.5781C560.604 44.8385 561.288 44.9525 562.004 44.9199C562.753 44.8874 563.469 44.9688 564.152 45.1641C565.715 44.8711 567.212 44.3991 568.645 43.748C570.109 43.0645 571.493 42.2507 572.795 41.3066C572.99 41.1439 573.218 40.9811 573.479 40.8184C573.739 40.623 573.951 40.4277 574.113 40.2324C574.276 40.0697 574.406 39.8906 574.504 39.6953C574.634 39.5 574.764 39.321 574.895 39.1582C575.155 38.735 575.448 38.3118 575.773 37.8887C576.099 37.4655 576.441 37.0749 576.799 36.7168C576.962 36.0007 577.173 35.3171 577.434 34.666C577.694 33.9824 577.954 33.3151 578.215 32.6641C578.475 32.013 578.687 31.3457 578.85 30.6621C579.045 29.9785 579.143 29.2624 579.143 28.5137C579.143 28.3509 579.126 28.1719 579.094 27.9766C579.094 27.7812 579.077 27.6022 579.045 27.4395C579.305 27.0814 579.436 26.6908 579.436 26.2676ZM619.816 19.9199C619.751 20.3105 619.654 20.6523 619.523 20.9453C619.426 21.2057 619.41 21.5638 619.475 22.0195C619.149 22.0521 618.889 22.166 618.693 22.3613C618.531 22.5241 618.384 22.7194 618.254 22.9473C618.156 23.1751 618.042 23.4193 617.912 23.6797C617.814 23.9076 617.684 24.1191 617.521 24.3145C617.782 25.4863 617.928 26.6745 617.961 27.8789C617.993 29.0833 618.075 30.2715 618.205 31.4434C618.368 32.9408 618.612 34.4219 618.938 35.8867C619.296 37.319 619.475 38.7839 619.475 40.2812C619.475 40.737 619.458 41.1602 619.426 41.5508C619.426 41.9414 619.426 42.3483 619.426 42.7715C619.426 43.0319 619.426 43.3086 619.426 43.6016C619.458 43.862 619.475 44.1224 619.475 44.3828C619.475 45.3268 619.344 46.2708 619.084 47.2148C618.856 48.1589 618.677 49.1029 618.547 50.0469C618.156 50.4049 617.814 50.7956 617.521 51.2188C617.261 51.6419 616.984 52.0326 616.691 52.3906C616.398 52.7487 616.057 53.0579 615.666 53.3184C615.275 53.6113 614.787 53.8066 614.201 53.9043C614.104 54.2298 613.908 54.474 613.615 54.6367C613.355 54.7995 613.127 55.0273 612.932 55.3203H612.834C612.02 55.3203 611.32 55.2064 610.734 54.9785C610.148 54.7507 609.595 54.4902 609.074 54.1973C608.586 53.9043 608.081 53.5951 607.561 53.2695C607.04 52.944 606.438 52.6836 605.754 52.4883C604.842 51.7396 604.012 50.9258 603.264 50.0469C602.515 49.1354 601.669 48.3216 600.725 47.6055C600.497 46.9544 600.188 46.4173 599.797 45.9941C599.439 45.571 599.081 45.0827 598.723 44.5293C598.56 44.3014 598.43 44.0898 598.332 43.8945C598.267 43.6992 598.169 43.4714 598.039 43.2109C597.941 42.9505 597.779 42.7715 597.551 42.6738C597.355 42.5762 597.176 42.4622 597.014 42.332C596.753 41.3229 596.379 40.3952 595.891 39.5488C595.402 38.7025 594.833 37.8887 594.182 37.1074C593.986 37.4655 593.824 37.8561 593.693 38.2793C593.596 38.6699 593.498 39.0768 593.4 39.5C593.303 39.8906 593.173 40.2975 593.01 40.7207C592.88 41.1113 592.701 41.4694 592.473 41.7949V41.9414C592.473 42.1042 592.538 42.2018 592.668 42.2344C592.798 42.2669 592.863 42.3646 592.863 42.5273C592.863 42.5599 592.847 42.5924 592.814 42.625C592.814 42.6576 592.814 42.6901 592.814 42.7227C592.652 42.8529 592.521 43.0156 592.424 43.2109C592.359 43.4062 592.196 43.5202 591.936 43.5527C591.968 43.7155 591.984 43.8783 591.984 44.041V44.4805C591.984 45.4245 591.87 46.3685 591.643 47.3125C591.447 48.2565 591.35 49.2168 591.35 50.1934V50.8281C591.35 51.056 591.366 51.2676 591.398 51.4629C591.464 51.6582 591.561 51.8535 591.691 52.0488C591.822 52.2441 591.887 52.4232 591.887 52.5859C591.887 52.8138 591.789 53.0254 591.594 53.2207C591.822 53.3835 592.082 53.5625 592.375 53.7578C592.668 53.9531 592.928 54.1647 593.156 54.3926C593.417 54.653 593.628 54.9134 593.791 55.1738C593.954 55.4668 594.035 55.776 594.035 56.1016C594.035 56.6549 593.856 57.0456 593.498 57.2734C593.14 57.5013 592.701 57.6803 592.18 57.8105C591.691 57.9408 591.171 58.0547 590.617 58.1523C590.096 58.2826 589.657 58.4941 589.299 58.7871H589.152C588.762 58.7871 588.469 58.6732 588.273 58.4453C588.078 58.2174 587.785 58.1035 587.395 58.1035C586.776 57.0944 586.353 55.9551 586.125 54.6855C585.897 53.4486 585.783 52.2604 585.783 51.1211C585.783 49.7214 585.913 48.3216 586.174 46.9219C586.402 45.5221 586.695 44.1387 587.053 42.7715C587.378 41.4043 587.736 40.0534 588.127 38.7188C588.55 37.3516 588.941 35.9844 589.299 34.6172L589.348 34.4707C589.348 34.3079 589.299 34.194 589.201 34.1289C589.136 34.0638 589.104 33.9661 589.104 33.8359C589.104 33.7708 589.12 33.7383 589.152 33.7383C589.25 33.4128 589.348 33.1035 589.445 32.8105C589.576 32.5176 589.673 32.1921 589.738 31.834C589.934 30.9225 590.064 29.9948 590.129 29.0508C590.227 28.0742 590.275 27.1139 590.275 26.1699C590.308 25.2259 590.34 24.2819 590.373 23.3379C590.438 22.3613 590.552 21.401 590.715 20.457C590.975 20.1966 591.219 19.9199 591.447 19.627C591.675 19.334 591.968 19.0736 592.326 18.8457C592.977 18.8783 593.628 18.9759 594.279 19.1387C594.93 19.3014 595.549 19.5618 596.135 19.9199C596.525 21.3197 596.786 22.7194 596.916 24.1191C597.079 25.5189 597.339 26.9186 597.697 28.3184V28.4648C597.697 28.6276 597.779 28.709 597.941 28.709C598.137 28.6764 598.283 28.7253 598.381 28.8555C598.316 28.9531 598.267 29.0671 598.234 29.1973C598.234 29.3275 598.234 29.4577 598.234 29.5879V30.418C598.299 30.6784 598.381 30.9551 598.479 31.248C598.576 31.541 598.788 31.7201 599.113 31.7852C599.276 32.8268 599.52 33.7871 599.846 34.666C600.171 35.5449 600.546 36.3913 600.969 37.2051C601.392 38.0189 601.848 38.8327 602.336 39.6465C602.824 40.4277 603.329 41.2578 603.85 42.1367C604.663 42.7552 605.363 43.4714 605.949 44.2852C606.535 45.0664 607.121 45.8314 607.707 46.5801C608.326 47.2962 609.009 47.931 609.758 48.4844C610.539 49.0378 611.548 49.3796 612.785 49.5098C612.948 49.3796 613.062 49.2005 613.127 48.9727L613.371 48.2891C613.469 48.0612 613.566 47.8659 613.664 47.7031C613.794 47.5078 613.973 47.3613 614.201 47.2637C614.266 46.3522 614.331 45.4245 614.396 44.4805C614.494 43.5365 614.706 42.6413 615.031 41.7949C614.868 41.502 614.787 41.1439 614.787 40.7207C614.787 40.3952 614.803 40.0859 614.836 39.793C614.901 39.5 614.934 39.207 614.934 38.9141C614.934 38.2956 614.803 37.791 614.543 37.4004C614.543 37.1725 614.559 36.9447 614.592 36.7168C614.624 36.4564 614.722 36.2122 614.885 35.9844C614.624 35.3333 614.413 34.6497 614.25 33.9336C614.12 33.2174 614.055 32.485 614.055 31.7363C614.055 31.3132 614.104 30.8737 614.201 30.418C614.006 29.9297 613.876 29.36 613.811 28.709L613.615 26.707C613.55 26.0234 613.452 25.3887 613.322 24.8027C613.192 24.2168 612.948 23.7448 612.59 23.3867C612.785 23.0938 612.883 22.752 612.883 22.3613C612.883 21.7103 612.785 21.0918 612.59 20.5059C612.395 19.9199 612.297 19.3014 612.297 18.6504C612.297 18.1947 612.395 17.7389 612.59 17.2832C613.306 17.3158 614.006 17.3971 614.689 17.5273C615.406 17.625 616.105 17.6738 616.789 17.6738C616.984 17.9342 617.212 18.1458 617.473 18.3086C617.733 18.4714 618.01 18.6341 618.303 18.7969C618.596 18.9271 618.872 19.0736 619.133 19.2363C619.426 19.3991 619.654 19.627 619.816 19.9199Z" fill="#0C0B0B"/>
</svg>
