<svg width="207" height="63" viewBox="0 0 207 63" fill="none" xmlns="http://www.w3.org/2000/svg">
<path d="M25.4648 11.5293C25.3346 11.4642 25.1393 11.8385 24.8789 12.6523C24.651 13.4336 24.3418 14.459 23.9512 15.7285C23.5605 16.9655 23.1374 18.3815 22.6816 19.9766C22.2585 21.5391 21.7865 23.1016 21.2656 24.6641C20.7448 26.2266 20.224 27.6914 19.7031 29.0586C19.1823 30.3932 18.6615 31.4512 18.1406 32.2324C17.6198 33.0137 17.1315 33.4531 16.6758 33.5508C16.2201 33.6159 15.8132 33.1439 15.4551 32.1348C15.1947 31.679 14.8203 30.9629 14.332 29.9863C13.8763 28.9772 13.3392 27.8542 12.7207 26.6172C12.1022 25.3802 11.4512 24.0781 10.7676 22.7109C10.084 21.3438 9.43294 20.0579 8.81445 18.8535C8.22852 17.6165 7.67513 16.5098 7.1543 15.5332C6.66602 14.5566 6.30794 13.8405 6.08008 13.3848C5.68945 12.6686 5.33138 12.099 5.00586 11.6758C4.71289 11.2201 4.24089 10.9922 3.58984 10.9922C3.58984 13.2708 3.72005 15.7773 3.98047 18.5117C4.24089 21.2461 4.51758 24.013 4.81055 26.8125C5.13607 29.612 5.42904 32.3789 5.68945 35.1133C5.94987 37.8151 6.08008 40.3216 6.08008 42.6328C6.21029 42.9258 6.16146 43.2025 5.93359 43.4629C5.73828 43.7233 5.44531 43.9186 5.05469 44.0488C4.69661 44.179 4.28971 44.179 3.83398 44.0488C3.41081 43.9512 3.05273 43.6908 2.75977 43.2676C2.4668 40.3704 2.30404 37.4245 2.27148 34.4297C2.27148 31.4023 2.25521 28.375 2.22266 25.3477C2.1901 22.3203 2.0599 19.293 1.83203 16.2656C1.60417 13.2057 1.14844 10.1621 0.464844 7.13477C0.432292 6.54883 0.529948 6.19076 0.757812 6.06055C0.985677 5.89779 1.27865 5.81641 1.63672 5.81641C2.41797 5.81641 3.11784 6.01172 3.73633 6.40234C4.38737 6.76042 4.97331 7.23242 5.49414 7.81836C6.01497 8.37174 6.4707 8.99023 6.86133 9.67383C7.28451 10.3574 7.65885 10.9759 7.98438 11.5293C8.24479 11.9525 8.60286 12.6198 9.05859 13.5312L10.6211 16.7051C11.207 17.877 11.8092 19.1139 12.4277 20.416C13.0788 21.6855 13.6973 22.9062 14.2832 24.0781C14.8691 25.2174 15.4062 26.2428 15.8945 27.1543C16.3828 28.0332 16.7572 28.668 17.0176 29.0586C17.1478 29.0586 17.2617 29.0098 17.3594 28.9121C17.457 28.8145 17.5872 28.5378 17.75 28.082C17.9453 27.6263 18.1895 26.9264 18.4824 25.9824C18.8079 25.0384 19.2474 23.7363 19.8008 22.0762C20.3542 20.416 21.0378 18.3164 21.8516 15.7773C22.6654 13.2383 23.6582 10.1458 24.8301 6.5C24.8952 6.33724 25.1068 6.19076 25.4648 6.06055C25.8229 5.93034 26.1484 5.86523 26.4414 5.86523C26.7344 5.86523 26.9297 5.96289 27.0273 6.1582C27.1576 6.35352 27.2552 6.67904 27.3203 7.13477C27.6133 9.90169 27.8411 12.7988 28.0039 15.8262C28.1992 18.821 28.4434 21.8646 28.7363 24.957C29.0293 28.0169 29.3874 31.0605 29.8105 34.0879C30.2663 37.1152 30.8848 39.9961 31.666 42.7305L28.2969 44.0488L25.4648 11.5293ZM46.9492 43.8047L34.3516 23.6387C34.319 23.6061 34.2865 23.4922 34.2539 23.2969C34.2214 23.069 34.2051 22.89 34.2051 22.7598C34.2051 22.3366 34.2702 21.9785 34.4004 21.6855C34.5632 21.36 34.9538 21.1973 35.5723 21.1973C35.7025 21.1973 35.9303 21.2786 36.2559 21.4414C36.5814 21.5716 36.7767 21.7018 36.8418 21.832C37.5579 22.9714 38.2904 24.2409 39.0391 25.6406C39.8203 27.0404 40.6178 28.4401 41.4316 29.8398C42.278 31.2396 43.1569 32.5905 44.0684 33.8926C44.9798 35.1621 45.9401 36.2526 46.9492 37.1641L48.1211 18.0234C48.1536 18.0234 48.235 18.0234 48.3652 18.0234C48.528 17.9909 48.6419 17.9746 48.707 17.9746C49 17.9746 49.293 18.0234 49.5859 18.1211C49.8789 18.1862 50.0905 18.3978 50.2207 18.7559C50.2533 19.9277 50.2533 21.3763 50.2207 23.1016C50.2207 24.8268 50.1882 26.6009 50.123 28.4238C50.0905 30.2467 50.0417 32.0046 49.9766 33.6973C49.944 35.3574 49.9115 36.6921 49.8789 37.7012C49.8464 38.3522 49.7812 39.3288 49.6836 40.6309C49.6185 41.9329 49.5208 43.3978 49.3906 45.0254C49.293 46.6855 49.1628 48.4271 49 50.25C48.8698 52.0729 48.7396 53.7982 48.6094 55.4258C48.4792 57.0534 48.3652 58.5182 48.2676 59.8203C48.1699 61.1549 48.0885 62.1152 48.0234 62.7012H45.4844L46.9492 43.8047ZM75.0254 35.2598C75.0254 34.2181 75.123 32.8021 75.3184 31.0117C75.5462 29.2214 75.8717 27.3008 76.2949 25.25C76.7507 23.1992 77.304 21.1322 77.9551 19.0488C78.6061 16.9329 79.3711 15.0286 80.25 13.3359C81.1615 11.6432 82.1868 10.2598 83.3262 9.18555C84.498 8.11133 85.7839 7.57422 87.1836 7.57422C87.9974 7.57422 88.681 7.7207 89.2344 8.01367C89.8203 8.30664 90.2923 8.71354 90.6504 9.23438C91.041 9.72266 91.3177 10.2923 91.4805 10.9434C91.6758 11.5618 91.7734 12.2454 91.7734 12.9941C91.1875 12.9941 90.7155 12.8477 90.3574 12.5547C89.9993 12.2292 89.6738 11.8874 89.3809 11.5293C89.0879 11.1712 88.7786 10.8457 88.4531 10.5527C88.1602 10.2272 87.7533 10.0645 87.2324 10.0645C86.1908 10.0645 85.2305 10.569 84.3516 11.5781C83.4727 12.5547 82.6751 13.8079 81.959 15.3379C81.2428 16.8678 80.6081 18.5768 80.0547 20.4648C79.5013 22.3203 79.0293 24.1432 78.6387 25.9336C78.2806 27.6914 78.0039 29.3027 77.8086 30.7676C77.6133 32.1999 77.5156 33.2741 77.5156 33.9902C77.5156 34.9342 77.5645 35.862 77.6621 36.7734C77.7598 37.6523 77.9714 38.4499 78.2969 39.166C78.6224 39.8822 79.0944 40.4681 79.7129 40.9238C80.3314 41.347 81.2103 41.5586 82.3496 41.5586C83.6517 41.5586 84.9375 41.1354 86.207 40.2891C87.5091 39.4427 88.7135 38.4173 89.8203 37.2129C90.9271 35.9759 91.8874 34.6738 92.7012 33.3066C93.515 31.9069 94.1009 30.6862 94.459 29.6445C94.5241 29.612 94.6706 29.5957 94.8984 29.5957C95.1263 29.5632 95.2728 29.5469 95.3379 29.5469C95.7285 29.5469 96.0866 29.5957 96.4121 29.6934C96.7702 29.7585 96.9492 30.0514 96.9492 30.5723C96.7539 31.6139 96.2982 32.7207 95.582 33.8926C94.8659 35.0319 94.0195 36.1549 93.043 37.2617C92.0664 38.3685 90.9922 39.3939 89.8203 40.3379C88.6484 41.2819 87.5091 42.0794 86.4023 42.7305C85.2956 43.3815 84.2702 43.821 83.3262 44.0488C82.3822 44.3092 81.6172 44.293 81.0312 44C79.957 44 79.0293 43.707 78.248 43.1211C77.4993 42.5026 76.8809 41.7539 76.3926 40.875C75.9368 39.9961 75.5951 39.0521 75.3672 38.043C75.1393 37.0339 75.0254 36.1061 75.0254 35.2598ZM111.842 38.3359C111.712 38.7266 111.386 39.2637 110.865 39.9473C110.377 40.5983 109.791 41.2656 109.107 41.9492C108.424 42.6003 107.708 43.1862 106.959 43.707C106.243 44.1953 105.608 44.4395 105.055 44.4395C104.013 44.4395 103.15 43.9512 102.467 42.9746C101.816 41.998 101.311 40.7448 100.953 39.2148C100.595 37.6849 100.351 35.9922 100.221 34.1367C100.09 32.2487 100.009 30.4095 99.9766 28.6191C99.944 26.8288 99.9277 25.2012 99.9277 23.7363C99.9277 22.2715 99.8789 21.1647 99.7812 20.416C99.9115 20.0905 100.074 19.8952 100.27 19.8301C100.497 19.765 100.758 19.7324 101.051 19.7324C101.311 19.7324 101.539 19.765 101.734 19.8301C101.962 19.8952 102.158 20.0905 102.32 20.416C102.32 20.7741 102.32 21.3763 102.32 22.2227C102.353 23.069 102.402 24.0293 102.467 25.1035C102.532 26.1452 102.597 27.252 102.662 28.4238C102.727 29.5632 102.776 30.6536 102.809 31.6953C102.874 32.737 102.923 33.681 102.955 34.5273C103.02 35.3411 103.069 35.9434 103.102 36.334C103.134 36.5618 103.167 36.9362 103.199 37.457C103.264 37.9779 103.346 38.5312 103.443 39.1172C103.574 39.6706 103.72 40.1751 103.883 40.6309C104.078 41.0866 104.322 41.3307 104.615 41.3633C105.104 41.3633 105.592 41.1517 106.08 40.7285C106.601 40.3053 107.105 39.7682 107.594 39.1172C108.082 38.4661 108.538 37.75 108.961 36.9688C109.384 36.1875 109.758 35.4388 110.084 34.7227C110.442 33.974 110.702 33.3066 110.865 32.7207C111.061 32.1348 111.174 31.7116 111.207 31.4512C111.272 30.8978 111.337 30.1165 111.402 29.1074C111.467 28.0658 111.516 26.959 111.549 25.7871C111.581 24.6152 111.598 23.5085 111.598 22.4668C111.63 21.4251 111.646 20.6276 111.646 20.0742L114.332 20.2207C114.365 22.8574 114.348 25.25 114.283 27.3984C114.218 29.5143 114.202 31.5163 114.234 33.4043C114.267 35.2598 114.413 37.0664 114.674 38.8242C114.934 40.582 115.406 42.4049 116.09 44.293C115.992 44.3906 115.797 44.5208 115.504 44.6836C115.211 44.8789 114.999 44.9766 114.869 44.9766C114.055 44.9766 113.502 44.6999 113.209 44.1465C112.949 43.6257 112.77 43.0072 112.672 42.291C112.607 41.5423 112.542 40.8099 112.477 40.0938C112.444 39.3451 112.232 38.7591 111.842 38.3359ZM118.824 20.4648V20.0742C118.824 19.7487 118.938 19.5208 119.166 19.3906C119.426 19.2604 119.719 19.1953 120.045 19.1953C120.305 19.1953 120.549 19.2279 120.777 19.293C121.005 19.3255 121.184 19.5046 121.314 19.8301C121.412 20.3184 121.51 21.002 121.607 21.8809C121.705 22.7272 121.819 23.6712 121.949 24.7129C122.079 25.7546 122.21 26.8613 122.34 28.0332C122.503 29.1725 122.649 30.263 122.779 31.3047C122.942 32.3138 123.105 33.2253 123.268 34.0391C123.43 34.8529 123.609 35.4714 123.805 35.8945C123.707 32.7695 123.805 30.0677 124.098 27.7891C124.391 25.4779 124.944 23.6061 125.758 22.1738C126.604 20.709 127.743 19.6999 129.176 19.1465C130.641 18.5605 132.464 18.4303 134.645 18.7559C135.654 18.7559 136.158 19.293 136.158 20.3672C136.158 20.7904 135.882 21.0833 135.328 21.2461C134.775 21.3763 134.156 21.474 133.473 21.5391C132.789 21.5716 132.122 21.6204 131.471 21.6855C130.82 21.7507 130.348 21.9134 130.055 22.1738C128.883 22.8249 128.053 23.834 127.564 25.2012C127.109 26.5684 126.783 28.1797 126.588 30.0352C126.393 31.8906 126.246 33.9251 126.148 36.1387C126.083 38.3197 125.872 40.5658 125.514 42.877C125.514 43.2025 125.383 43.4466 125.123 43.6094C124.863 43.7721 124.537 43.8535 124.146 43.8535C123.788 43.8535 123.43 43.7721 123.072 43.6094C122.747 43.4466 122.486 43.2025 122.291 42.877L118.824 20.4648ZM152.516 42.7305C152.353 41.8841 152.206 40.875 152.076 39.7031C151.979 38.4987 151.865 37.2943 151.734 36.0898C151.604 34.8529 151.441 33.6973 151.246 32.623C151.083 31.5488 150.823 30.6699 150.465 29.9863C148.805 33.3717 147.34 36.041 146.07 37.9941C144.801 39.9147 143.678 41.2982 142.701 42.1445C141.757 42.9583 140.96 43.349 140.309 43.3164C139.658 43.2839 139.12 42.9909 138.697 42.4375C138.274 41.8841 137.965 41.1842 137.77 40.3379C137.607 39.459 137.493 38.6452 137.428 37.8965C137.428 37.1803 137.59 36.1712 137.916 34.8691C138.242 33.5671 138.681 32.151 139.234 30.6211C139.788 29.0586 140.439 27.4798 141.188 25.8848C141.969 24.2897 142.799 22.8411 143.678 21.5391C144.557 20.237 145.468 19.1628 146.412 18.3164C147.356 17.4701 148.3 17.0469 149.244 17.0469C150.644 16.819 151.669 17.1283 152.32 17.9746C153.004 18.7884 153.134 20.1719 152.711 22.125C152.711 24.2734 152.792 26.1126 152.955 27.6426C153.15 29.1725 153.346 30.6374 153.541 32.0371C153.769 33.4368 153.964 34.9017 154.127 36.4316C154.322 37.9616 154.42 39.8008 154.42 41.9492C154.42 42.3398 154.371 42.6816 154.273 42.9746C154.208 43.235 153.818 43.3652 153.102 43.3652C153.004 43.3652 152.874 43.2839 152.711 43.1211C152.581 42.9583 152.516 42.8281 152.516 42.7305ZM149.879 20.9043C149.521 20.3835 149.033 20.3346 148.414 20.7578C147.796 21.181 147.145 21.8809 146.461 22.8574C145.777 23.834 145.077 25.0059 144.361 26.373C143.645 27.7402 142.978 29.1237 142.359 30.5234C141.741 31.9232 141.204 33.2578 140.748 34.5273C140.292 35.7643 139.983 36.7897 139.82 37.6035C139.82 38.7754 139.999 39.4427 140.357 39.6055C140.715 39.7357 141.155 39.5404 141.676 39.0195C142.197 38.4987 142.783 37.75 143.434 36.7734C144.117 35.7969 144.768 34.7552 145.387 33.6484C146.038 32.5417 146.64 31.4674 147.193 30.4258C147.779 29.3841 148.235 28.5378 148.561 27.8867C148.854 27.2031 149.081 26.5684 149.244 25.9824C149.407 25.3965 149.537 24.8431 149.635 24.3223C149.765 23.7689 149.83 23.2155 149.83 22.6621C149.863 22.1087 149.879 21.5228 149.879 20.9043ZM158.277 23.1504C157.952 23.3132 157.643 23.4922 157.35 23.6875C157.089 23.8503 156.829 24.013 156.568 24.1758C156.308 24.306 156.048 24.4036 155.787 24.4688C155.527 24.5339 155.25 24.5339 154.957 24.4688C154.762 24.4688 154.599 24.3548 154.469 24.127C154.339 23.8665 154.241 23.5898 154.176 23.2969C154.078 22.9714 154.013 22.6621 153.98 22.3691C153.948 22.0436 153.948 21.7995 153.98 21.6367L158.668 18.9512L158.961 6.45117C159.026 6.02799 159.286 5.86523 159.742 5.96289C160.198 6.02799 160.67 6.12565 161.158 6.25586C161.223 6.25586 161.321 6.28841 161.451 6.35352C161.614 6.38607 161.728 6.41862 161.793 6.45117C161.728 7.33008 161.646 8.29036 161.549 9.33203C161.484 10.3411 161.419 11.3665 161.354 12.4082C161.288 13.4173 161.24 14.4102 161.207 15.3867C161.207 16.3633 161.256 17.2422 161.354 18.0234L168.678 15.9727C168.808 15.9401 168.906 16.0378 168.971 16.2656C169.068 16.4609 169.15 16.7051 169.215 16.998C169.312 17.291 169.378 17.584 169.41 17.877C169.443 18.1699 169.459 18.3164 169.459 18.3164L161.158 21.832C161.158 22.125 161.174 22.8249 161.207 23.9316C161.272 25.0384 161.337 26.3568 161.402 27.8867C161.467 29.3841 161.533 31.0117 161.598 32.7695C161.663 34.4948 161.728 36.1061 161.793 37.6035C161.858 39.1009 161.907 40.4193 161.939 41.5586C161.972 42.6654 161.988 43.3652 161.988 43.6582C161.923 44.6348 161.63 45.123 161.109 45.123C160.621 45.123 160.084 44.8789 159.498 44.3906L158.277 23.1504ZM171.803 33.4531C171.64 33.4857 171.396 33.5345 171.07 33.5996C170.745 33.6647 170.403 33.681 170.045 33.6484C169.687 33.6159 169.378 33.5182 169.117 33.3555C168.824 33.1927 168.678 32.916 168.678 32.5254C168.678 32.2975 168.727 32.1348 168.824 32.0371C168.922 31.9395 169.085 31.793 169.312 31.5977C170.029 31.0117 170.631 30.263 171.119 29.3516C171.64 28.4076 172.112 27.4147 172.535 26.373C172.958 25.2988 173.398 24.2409 173.854 23.1992C174.342 22.125 174.895 21.1647 175.514 20.3184C176.132 19.472 176.897 18.7884 177.809 18.2676C178.72 17.7467 179.843 17.5026 181.178 17.5352C181.731 17.5352 182.35 17.6654 183.033 17.9258C183.717 18.1862 184.352 18.5443 184.938 19C185.523 19.4232 186.012 19.944 186.402 20.5625C186.793 21.181 186.988 21.8646 186.988 22.6133C187.151 22.8737 186.988 23.248 186.5 23.7363C186.044 24.2246 185.41 24.7617 184.596 25.3477C183.782 25.901 182.854 26.487 181.812 27.1055C180.803 27.6914 179.827 28.2448 178.883 28.7656C177.939 29.2865 177.109 29.7422 176.393 30.1328C175.676 30.5234 175.204 30.8164 174.977 31.0117C174.814 31.3372 174.684 31.7116 174.586 32.1348C174.488 32.5579 174.407 32.9648 174.342 33.3555C174.309 33.7135 174.277 34.0553 174.244 34.3809C174.244 34.6738 174.244 34.9017 174.244 35.0645C174.244 35.6829 174.212 36.3665 174.146 37.1152C174.114 37.8639 174.146 38.5801 174.244 39.2637C174.374 39.9147 174.651 40.4681 175.074 40.9238C175.497 41.347 176.214 41.5586 177.223 41.5586C178.297 41.5586 179.306 41.2982 180.25 40.7773C181.194 40.224 182.073 39.5566 182.887 38.7754C183.701 37.9941 184.433 37.1478 185.084 36.2363C185.768 35.3249 186.37 34.4785 186.891 33.6973C187.444 32.8835 187.932 32.2161 188.355 31.6953C188.779 31.1745 189.137 30.9141 189.43 30.9141C189.755 30.9141 190.097 30.9792 190.455 31.1094C190.846 31.207 191.041 31.4674 191.041 31.8906C191.041 32.4766 190.797 33.1764 190.309 33.9902C189.853 34.804 189.234 35.6667 188.453 36.5781C187.704 37.4896 186.826 38.401 185.816 39.3125C184.84 40.1914 183.847 40.9889 182.838 41.7051C181.829 42.3887 180.836 42.9583 179.859 43.4141C178.883 43.8372 178.02 44.0488 177.271 44.0488C175.807 44.0488 174.7 43.6908 173.951 42.9746C173.202 42.2585 172.665 41.3633 172.34 40.2891C172.047 39.2148 171.884 38.0755 171.852 36.8711C171.852 35.6341 171.835 34.4948 171.803 33.4531ZM180.787 20.2695C180.234 20.2695 179.648 20.5462 179.029 21.0996C178.411 21.6204 177.825 22.2715 177.271 23.0527C176.751 23.8014 176.311 24.5827 175.953 25.3965C175.628 26.1777 175.465 26.8288 175.465 27.3496C175.953 27.3496 176.653 27.1706 177.564 26.8125C178.508 26.4219 179.436 25.9499 180.348 25.3965C181.259 24.8431 182.057 24.2572 182.74 23.6387C183.424 23.0202 183.766 22.4342 183.766 21.8809C183.766 21.5879 183.652 21.3438 183.424 21.1484C183.196 20.9531 182.919 20.7904 182.594 20.6602C182.301 20.5299 181.992 20.4323 181.666 20.3672C181.34 20.3021 181.048 20.2695 180.787 20.2695ZM204.176 35.0645C203.85 35.8132 203.427 36.6758 202.906 37.6523C202.418 38.6289 201.832 39.5566 201.148 40.4355C200.497 41.3145 199.732 42.0632 198.854 42.6816C197.975 43.3001 196.998 43.6094 195.924 43.6094C195.436 43.6094 195.045 43.5605 194.752 43.4629C194.492 43.3327 194.247 43.1536 194.02 42.9258C193.824 42.6979 193.629 42.4212 193.434 42.0957C193.271 41.7702 193.059 41.4121 192.799 41.0215C192.701 39.4264 192.636 37.7174 192.604 35.8945C192.604 34.0391 192.701 32.1999 192.896 30.377C193.092 28.5215 193.417 26.7799 193.873 25.1523C194.361 23.5247 195.029 22.1413 195.875 21.002C196.754 19.8626 197.844 19.0488 199.146 18.5605C200.449 18.0723 202.027 18.0397 203.883 18.4629C203.98 17.5514 203.997 16.3307 203.932 14.8008C203.867 13.2708 203.769 11.6595 203.639 9.9668C203.508 8.27409 203.378 6.64648 203.248 5.08398C203.118 3.48893 203.036 2.18685 203.004 1.17773C203.004 0.884766 203.134 0.673177 203.395 0.542969C203.688 0.380208 203.997 0.282552 204.322 0.25C204.648 0.217448 204.957 0.217448 205.25 0.25C205.576 0.282552 205.787 0.33138 205.885 0.396484C205.82 4.40039 205.803 8.33919 205.836 12.2129C205.868 16.054 205.901 19.8952 205.934 23.7363C205.999 27.5449 206.064 31.3372 206.129 35.1133C206.194 38.8893 206.227 42.6654 206.227 46.4414C206.227 46.7995 206.194 47.1738 206.129 47.5645C206.096 47.9876 205.82 48.1992 205.299 48.1992C205.104 48.1992 204.908 48.1341 204.713 48.0039C204.518 47.9062 204.387 47.7435 204.322 47.5156L204.176 35.0645ZM202.076 20.9043C201.067 20.8392 200.123 21.2461 199.244 22.125C198.398 22.9714 197.649 24.0781 196.998 25.4453C196.38 26.8125 195.875 28.3262 195.484 29.9863C195.094 31.6139 194.85 33.1927 194.752 34.7227C194.687 36.2201 194.785 37.5547 195.045 38.7266C195.338 39.8984 195.842 40.696 196.559 41.1191C197.275 41.1191 197.942 40.8424 198.561 40.2891C199.179 39.7031 199.749 38.9707 200.27 38.0918C200.79 37.2129 201.246 36.2363 201.637 35.1621C202.027 34.0553 202.353 32.9974 202.613 31.9883C202.906 30.9792 203.118 30.0677 203.248 29.2539C203.411 28.4076 203.492 27.7728 203.492 27.3496C203.492 27.0241 203.508 26.5033 203.541 25.7871C203.574 25.071 203.557 24.3548 203.492 23.6387C203.427 22.9225 203.281 22.2878 203.053 21.7344C202.857 21.181 202.532 20.9043 202.076 20.9043Z" fill="#0C0B0B"/>
</svg>
