<svg width="263" height="63" viewBox="0 0 263 63" fill="none" xmlns="http://www.w3.org/2000/svg">
<path d="M25.4648 11.5293C25.3346 11.4642 25.1393 11.8385 24.8789 12.6523C24.651 13.4336 24.3418 14.459 23.9512 15.7285C23.5605 16.9655 23.1374 18.3815 22.6816 19.9766C22.2585 21.5391 21.7865 23.1016 21.2656 24.6641C20.7448 26.2266 20.224 27.6914 19.7031 29.0586C19.1823 30.3932 18.6615 31.4512 18.1406 32.2324C17.6198 33.0137 17.1315 33.4531 16.6758 33.5508C16.2201 33.6159 15.8132 33.1439 15.4551 32.1348C15.1947 31.679 14.8203 30.9629 14.332 29.9863C13.8763 28.9772 13.3392 27.8542 12.7207 26.6172C12.1022 25.3802 11.4512 24.0781 10.7676 22.7109C10.084 21.3438 9.43294 20.0579 8.81445 18.8535C8.22852 17.6165 7.67513 16.5098 7.1543 15.5332C6.66602 14.5566 6.30794 13.8405 6.08008 13.3848C5.68945 12.6686 5.33138 12.099 5.00586 11.6758C4.71289 11.2201 4.24089 10.9922 3.58984 10.9922C3.58984 13.2708 3.72005 15.7773 3.98047 18.5117C4.24089 21.2461 4.51758 24.013 4.81055 26.8125C5.13607 29.612 5.42904 32.3789 5.68945 35.1133C5.94987 37.8151 6.08008 40.3216 6.08008 42.6328C6.21029 42.9258 6.16146 43.2025 5.93359 43.4629C5.73828 43.7233 5.44531 43.9186 5.05469 44.0488C4.69661 44.179 4.28971 44.179 3.83398 44.0488C3.41081 43.9512 3.05273 43.6908 2.75977 43.2676C2.4668 40.3704 2.30404 37.4245 2.27148 34.4297C2.27148 31.4023 2.25521 28.375 2.22266 25.3477C2.1901 22.3203 2.0599 19.293 1.83203 16.2656C1.60417 13.2057 1.14844 10.1621 0.464844 7.13477C0.432292 6.54883 0.529948 6.19076 0.757812 6.06055C0.985677 5.89779 1.27865 5.81641 1.63672 5.81641C2.41797 5.81641 3.11784 6.01172 3.73633 6.40234C4.38737 6.76042 4.97331 7.23242 5.49414 7.81836C6.01497 8.37174 6.4707 8.99023 6.86133 9.67383C7.28451 10.3574 7.65885 10.9759 7.98438 11.5293C8.24479 11.9525 8.60286 12.6198 9.05859 13.5312L10.6211 16.7051C11.207 17.877 11.8092 19.1139 12.4277 20.416C13.0788 21.6855 13.6973 22.9062 14.2832 24.0781C14.8691 25.2174 15.4062 26.2428 15.8945 27.1543C16.3828 28.0332 16.7572 28.668 17.0176 29.0586C17.1478 29.0586 17.2617 29.0098 17.3594 28.9121C17.457 28.8145 17.5872 28.5378 17.75 28.082C17.9453 27.6263 18.1895 26.9264 18.4824 25.9824C18.8079 25.0384 19.2474 23.7363 19.8008 22.0762C20.3542 20.416 21.0378 18.3164 21.8516 15.7773C22.6654 13.2383 23.6582 10.1458 24.8301 6.5C24.8952 6.33724 25.1068 6.19076 25.4648 6.06055C25.8229 5.93034 26.1484 5.86523 26.4414 5.86523C26.7344 5.86523 26.9297 5.96289 27.0273 6.1582C27.1576 6.35352 27.2552 6.67904 27.3203 7.13477C27.6133 9.90169 27.8411 12.7988 28.0039 15.8262C28.1992 18.821 28.4434 21.8646 28.7363 24.957C29.0293 28.0169 29.3874 31.0605 29.8105 34.0879C30.2663 37.1152 30.8848 39.9961 31.666 42.7305L28.2969 44.0488L25.4648 11.5293ZM46.9492 43.8047L34.3516 23.6387C34.319 23.6061 34.2865 23.4922 34.2539 23.2969C34.2214 23.069 34.2051 22.89 34.2051 22.7598C34.2051 22.3366 34.2702 21.9785 34.4004 21.6855C34.5632 21.36 34.9538 21.1973 35.5723 21.1973C35.7025 21.1973 35.9303 21.2786 36.2559 21.4414C36.5814 21.5716 36.7767 21.7018 36.8418 21.832C37.5579 22.9714 38.2904 24.2409 39.0391 25.6406C39.8203 27.0404 40.6178 28.4401 41.4316 29.8398C42.278 31.2396 43.1569 32.5905 44.0684 33.8926C44.9798 35.1621 45.9401 36.2526 46.9492 37.1641L48.1211 18.0234C48.1536 18.0234 48.235 18.0234 48.3652 18.0234C48.528 17.9909 48.6419 17.9746 48.707 17.9746C49 17.9746 49.293 18.0234 49.5859 18.1211C49.8789 18.1862 50.0905 18.3978 50.2207 18.7559C50.2533 19.9277 50.2533 21.3763 50.2207 23.1016C50.2207 24.8268 50.1882 26.6009 50.123 28.4238C50.0905 30.2467 50.0417 32.0046 49.9766 33.6973C49.944 35.3574 49.9115 36.6921 49.8789 37.7012C49.8464 38.3522 49.7812 39.3288 49.6836 40.6309C49.6185 41.9329 49.5208 43.3978 49.3906 45.0254C49.293 46.6855 49.1628 48.4271 49 50.25C48.8698 52.0729 48.7396 53.7982 48.6094 55.4258C48.4792 57.0534 48.3652 58.5182 48.2676 59.8203C48.1699 61.1549 48.0885 62.1152 48.0234 62.7012H45.4844L46.9492 43.8047ZM89.7227 27.1055C89.3646 27.3659 88.7298 27.7565 87.8184 28.2773C86.9395 28.7656 85.9954 29.3027 84.9863 29.8887C83.9772 30.4746 83.0169 31.0443 82.1055 31.5977C81.194 32.1185 80.5592 32.5091 80.2012 32.7695C79.485 33.3229 78.9967 33.9577 78.7363 34.6738C78.4759 35.39 78.3457 36.1712 78.3457 37.0176C78.3457 37.8314 78.4271 38.694 78.5898 39.6055C78.7526 40.4844 78.8665 41.3796 78.9316 42.291C78.9316 42.7467 78.7852 43.1699 78.4922 43.5605C78.1992 43.9512 77.8249 44.1465 77.3691 44.1465C77.1738 44.1465 76.9622 44.0977 76.7344 44C76.5065 43.8698 76.3926 43.6908 76.3926 43.4629L75.2695 12.1641C75.2695 11.9688 75.3346 11.7083 75.4648 11.3828C75.6276 11.0573 75.7578 10.8783 75.8555 10.8457C75.9531 10.8457 76.0833 10.862 76.2461 10.8945C76.4414 10.9271 76.6367 10.9922 76.832 11.0898C77.0273 11.1549 77.2064 11.2363 77.3691 11.334C77.5645 11.3991 77.6947 11.4642 77.7598 11.5293C77.89 12.8314 77.9714 14.3288 78.0039 16.0215C78.0365 17.7142 78.069 19.4232 78.1016 21.1484C78.1667 22.8737 78.248 24.5501 78.3457 26.1777C78.4759 27.7728 78.6875 29.1237 78.9805 30.2305C80.3802 29.6445 81.6986 29.0911 82.9355 28.5703C84.1725 28.0495 85.2467 27.4473 86.1582 26.7637C87.0697 26.0801 87.7858 25.25 88.3066 24.2734C88.8275 23.2643 89.0716 22.0111 89.0391 20.5137C89.0391 19.6999 89.0228 18.9837 88.9902 18.3652C88.9577 17.7467 88.8926 17.1445 88.7949 16.5586C88.6973 15.9401 88.5508 15.2891 88.3555 14.6055C88.1927 13.8893 87.9811 13.0755 87.7207 12.1641C87.6556 11.5781 87.7533 11.2038 88.0137 11.041C88.2741 10.8783 88.5833 10.7969 88.9414 10.7969C89.3646 10.7969 89.6901 10.8945 89.918 11.0898C90.1458 11.2852 90.3249 11.5456 90.4551 11.8711C90.6178 12.1966 90.7155 12.5547 90.748 12.9453C90.7806 13.3034 90.8132 13.6452 90.8457 13.9707C90.9108 14.4915 90.9922 15.2728 91.0898 16.3145C91.1875 17.3561 91.2852 18.5443 91.3828 19.8789C91.513 21.181 91.6432 22.5645 91.7734 24.0293C91.9362 25.4941 92.0827 26.8776 92.2129 28.1797C92.3431 29.4818 92.4408 30.6536 92.5059 31.6953C92.6035 32.737 92.6849 33.5182 92.75 34.0391C92.8477 35.276 92.9779 36.4967 93.1406 37.7012C93.3034 38.9056 93.3848 40.1426 93.3848 41.4121V42.1934C93.3848 42.4538 93.3522 42.7142 93.2871 42.9746C93.2546 43.2025 93.1406 43.4141 92.9453 43.6094C92.7826 43.7721 92.5059 43.9023 92.1152 44C91.5293 43.5768 91.1875 43.1048 91.0898 42.584C90.9922 42.0632 90.9108 41.4935 90.8457 40.875C90.8132 40.5169 90.7806 39.9798 90.748 39.2637C90.7155 38.515 90.6504 37.7012 90.5527 36.8223C90.4876 35.9108 90.4062 34.9668 90.3086 33.9902C90.2435 32.9811 90.1621 32.0371 90.0645 31.1582C89.9993 30.2467 89.9342 29.4329 89.8691 28.7168C89.804 28.0007 89.7552 27.4635 89.7227 27.1055ZM110.182 42.7305C110.019 41.8841 109.872 40.875 109.742 39.7031C109.645 38.4987 109.531 37.2943 109.4 36.0898C109.27 34.8529 109.107 33.6973 108.912 32.623C108.749 31.5488 108.489 30.6699 108.131 29.9863C106.471 33.3717 105.006 36.041 103.736 37.9941C102.467 39.9147 101.344 41.2982 100.367 42.1445C99.4232 42.9583 98.6257 43.349 97.9746 43.3164C97.3236 43.2839 96.7865 42.9909 96.3633 42.4375C95.9401 41.8841 95.6309 41.1842 95.4355 40.3379C95.2728 39.459 95.1589 38.6452 95.0938 37.8965C95.0938 37.1803 95.2565 36.1712 95.582 34.8691C95.9076 33.5671 96.347 32.151 96.9004 30.6211C97.4538 29.0586 98.1048 27.4798 98.8535 25.8848C99.6348 24.2897 100.465 22.8411 101.344 21.5391C102.223 20.237 103.134 19.1628 104.078 18.3164C105.022 17.4701 105.966 17.0469 106.91 17.0469C108.31 16.819 109.335 17.1283 109.986 17.9746C110.67 18.7884 110.8 20.1719 110.377 22.125C110.377 24.2734 110.458 26.1126 110.621 27.6426C110.816 29.1725 111.012 30.6374 111.207 32.0371C111.435 33.4368 111.63 34.9017 111.793 36.4316C111.988 37.9616 112.086 39.8008 112.086 41.9492C112.086 42.3398 112.037 42.6816 111.939 42.9746C111.874 43.235 111.484 43.3652 110.768 43.3652C110.67 43.3652 110.54 43.2839 110.377 43.1211C110.247 42.9583 110.182 42.8281 110.182 42.7305ZM107.545 20.9043C107.187 20.3835 106.699 20.3346 106.08 20.7578C105.462 21.181 104.811 21.8809 104.127 22.8574C103.443 23.834 102.743 25.0059 102.027 26.373C101.311 27.7402 100.644 29.1237 100.025 30.5234C99.4069 31.9232 98.8698 33.2578 98.4141 34.5273C97.9583 35.7643 97.6491 36.7897 97.4863 37.6035C97.4863 38.7754 97.6654 39.4427 98.0234 39.6055C98.3815 39.7357 98.821 39.5404 99.3418 39.0195C99.8626 38.4987 100.449 37.75 101.1 36.7734C101.783 35.7969 102.434 34.7552 103.053 33.6484C103.704 32.5417 104.306 31.4674 104.859 30.4258C105.445 29.3841 105.901 28.5378 106.227 27.8867C106.52 27.2031 106.747 26.5684 106.91 25.9824C107.073 25.3965 107.203 24.8431 107.301 24.3223C107.431 23.7689 107.496 23.2155 107.496 22.6621C107.529 22.1087 107.545 21.5228 107.545 20.9043ZM116.676 43.3652C116.318 38.9707 115.992 34.5762 115.699 30.1816C115.439 25.7546 115.146 21.1647 114.82 16.4121C114.82 15.6309 115.243 15.2402 116.09 15.2402H116.48C116.578 15.2402 116.692 15.3704 116.822 15.6309C116.952 15.8913 117.083 16.3796 117.213 17.0957C117.376 17.7793 117.538 18.8372 117.701 20.2695C117.896 21.6693 118.124 23.5085 118.385 25.7871C118.645 28.0658 118.938 30.9141 119.264 34.332C119.947 32.1185 120.484 29.9701 120.875 27.8867C121.266 25.8034 121.77 23.9154 122.389 22.2227C123.007 20.4974 123.87 18.9837 124.977 17.6816C126.116 16.3796 127.743 15.4193 129.859 14.8008C131.031 14.9961 131.975 15.7122 132.691 16.9492C133.408 18.1536 133.977 19.651 134.4 21.4414C134.824 23.2318 135.117 25.1849 135.279 27.3008C135.442 29.3841 135.54 31.3861 135.572 33.3066C135.605 35.2272 135.621 36.9525 135.621 38.4824C135.621 39.9798 135.654 41.054 135.719 41.7051C135.621 41.9655 135.475 42.1934 135.279 42.3887C135.084 42.584 134.856 42.7305 134.596 42.8281C134.368 42.8932 134.14 42.9095 133.912 42.877C133.684 42.8118 133.473 42.6328 133.277 42.3398C133.277 41.9818 133.245 41.2493 133.18 40.1426C133.115 39.0358 133.033 37.75 132.936 36.2852C132.838 34.7878 132.724 33.209 132.594 31.5488C132.496 29.8561 132.398 28.2773 132.301 26.8125C132.236 25.3151 132.171 24.013 132.105 22.9062C132.04 21.7995 131.992 21.0671 131.959 20.709C131.275 19.5046 130.592 18.821 129.908 18.6582C129.257 18.4954 128.59 18.707 127.906 19.293C127.255 19.8789 126.62 20.7741 126.002 21.9785C125.383 23.1829 124.798 24.5501 124.244 26.0801C123.691 27.5775 123.17 29.1562 122.682 30.8164C122.193 32.4766 121.77 34.0879 121.412 35.6504C121.054 37.1803 120.745 38.5801 120.484 39.8496C120.257 41.0866 120.11 42.0469 120.045 42.7305C119.947 42.9583 119.736 43.1862 119.41 43.4141C119.117 43.6094 118.792 43.7559 118.434 43.8535C118.108 43.9512 117.766 43.9837 117.408 43.9512C117.083 43.8861 116.839 43.6908 116.676 43.3652ZM149.488 35.0645C149.163 35.8132 148.74 36.6758 148.219 37.6523C147.73 38.6289 147.145 39.5566 146.461 40.4355C145.81 41.3145 145.045 42.0632 144.166 42.6816C143.287 43.3001 142.311 43.6094 141.236 43.6094C140.748 43.6094 140.357 43.5605 140.064 43.4629C139.804 43.3327 139.56 43.1536 139.332 42.9258C139.137 42.6979 138.941 42.4212 138.746 42.0957C138.583 41.7702 138.372 41.4121 138.111 41.0215C138.014 39.4264 137.949 37.7174 137.916 35.8945C137.916 34.0391 138.014 32.1999 138.209 30.377C138.404 28.5215 138.73 26.7799 139.186 25.1523C139.674 23.5247 140.341 22.1413 141.188 21.002C142.066 19.8626 143.157 19.0488 144.459 18.5605C145.761 18.0723 147.34 18.0397 149.195 18.4629C149.293 17.5514 149.309 16.3307 149.244 14.8008C149.179 13.2708 149.081 11.6595 148.951 9.9668C148.821 8.27409 148.691 6.64648 148.561 5.08398C148.43 3.48893 148.349 2.18685 148.316 1.17773C148.316 0.884766 148.447 0.673177 148.707 0.542969C149 0.380208 149.309 0.282552 149.635 0.25C149.96 0.217448 150.27 0.217448 150.562 0.25C150.888 0.282552 151.1 0.33138 151.197 0.396484C151.132 4.40039 151.116 8.33919 151.148 12.2129C151.181 16.054 151.214 19.8952 151.246 23.7363C151.311 27.5449 151.376 31.3372 151.441 35.1133C151.507 38.8893 151.539 42.6654 151.539 46.4414C151.539 46.7995 151.507 47.1738 151.441 47.5645C151.409 47.9876 151.132 48.1992 150.611 48.1992C150.416 48.1992 150.221 48.1341 150.025 48.0039C149.83 47.9062 149.7 47.7435 149.635 47.5156L149.488 35.0645ZM147.389 20.9043C146.38 20.8392 145.436 21.2461 144.557 22.125C143.71 22.9714 142.962 24.0781 142.311 25.4453C141.692 26.8125 141.188 28.3262 140.797 29.9863C140.406 31.6139 140.162 33.1927 140.064 34.7227C139.999 36.2201 140.097 37.5547 140.357 38.7266C140.65 39.8984 141.155 40.696 141.871 41.1191C142.587 41.1191 143.255 40.8424 143.873 40.2891C144.492 39.7031 145.061 38.9707 145.582 38.0918C146.103 37.2129 146.559 36.2363 146.949 35.1621C147.34 34.0553 147.665 32.9974 147.926 31.9883C148.219 30.9792 148.43 30.0677 148.561 29.2539C148.723 28.4076 148.805 27.7728 148.805 27.3496C148.805 27.0241 148.821 26.5033 148.854 25.7871C148.886 25.071 148.87 24.3548 148.805 23.6387C148.74 22.9225 148.593 22.2878 148.365 21.7344C148.17 21.181 147.844 20.9043 147.389 20.9043ZM154.762 56.8418C155.12 53.4238 155.315 50.1686 155.348 47.0762C155.413 44.0163 155.396 40.9889 155.299 37.9941C155.234 34.9993 155.12 31.972 154.957 28.9121C154.794 25.8522 154.697 22.6133 154.664 19.1953C154.762 18.7396 154.876 18.3978 155.006 18.1699C155.169 17.9095 155.576 17.8444 156.227 17.9746C156.91 18.1374 157.317 18.528 157.447 19.1465C157.577 19.7324 157.61 20.3997 157.545 21.1484C157.48 21.8971 157.382 22.6458 157.252 23.3945C157.122 24.1432 157.122 24.7454 157.252 25.2012C158.294 24.4525 159.4 23.6712 160.572 22.8574C161.744 22.0436 162.965 21.3275 164.234 20.709C165.504 20.0579 166.822 19.5859 168.189 19.293C169.557 18.9674 170.924 18.9512 172.291 19.2441C173.984 19.6348 175.156 20.2207 175.807 21.002C176.49 21.7507 176.751 22.6296 176.588 23.6387C176.458 24.6152 176.002 25.7057 175.221 26.9102C174.439 28.082 173.479 29.2702 172.34 30.4746C171.201 31.679 169.931 32.8672 168.531 34.0391C167.132 35.2109 165.764 36.3014 164.43 37.3105C163.095 38.2871 161.842 39.1497 160.67 39.8984C159.531 40.6471 158.619 41.2005 157.936 41.5586C157.903 41.9492 157.854 42.5677 157.789 43.4141C157.757 44.2279 157.708 45.1556 157.643 46.1973C157.61 47.2389 157.561 48.3294 157.496 49.4688C157.464 50.6081 157.415 51.6986 157.35 52.7402C157.317 53.7819 157.268 54.7096 157.203 55.5234C157.171 56.3372 157.154 56.9395 157.154 57.3301C157.089 57.3626 156.975 57.3952 156.812 57.4277C156.65 57.4603 156.454 57.4766 156.227 57.4766C155.999 57.5091 155.787 57.5254 155.592 57.5254C155.396 57.5579 155.266 57.5579 155.201 57.5254C155.104 57.5254 155.006 57.4277 154.908 57.2324C154.811 57.0697 154.762 56.9395 154.762 56.8418ZM157.496 30.084C157.398 30.5397 157.366 31.1094 157.398 31.793C157.464 32.444 157.529 33.1439 157.594 33.8926C157.691 34.6087 157.789 35.3086 157.887 35.9922C157.984 36.6758 158.049 37.2617 158.082 37.75C159.319 36.806 160.751 35.8457 162.379 34.8691C164.039 33.8926 165.634 32.8346 167.164 31.6953C168.727 30.556 170.11 29.2865 171.314 27.8867C172.519 26.487 173.316 24.9082 173.707 23.1504C173.837 22.4668 173.772 22.0111 173.512 21.7832C173.284 21.5228 172.877 21.3438 172.291 21.2461C171.054 20.9857 169.638 21.0833 168.043 21.5391C166.448 21.9622 164.902 22.597 163.404 23.4434C161.939 24.2897 160.654 25.2988 159.547 26.4707C158.44 27.6426 157.757 28.847 157.496 30.084ZM179.518 43.0234C179.518 40.9076 179.469 38.6777 179.371 36.334C179.306 33.9902 179.225 31.6302 179.127 29.2539C179.062 26.8451 179.046 24.485 179.078 22.1738C179.111 19.8626 179.257 17.6979 179.518 15.6797C179.583 15.6471 179.729 15.6309 179.957 15.6309C180.217 15.5983 180.396 15.582 180.494 15.582C180.95 15.582 181.308 15.6634 181.568 15.8262C181.861 15.9564 182.008 16.2656 182.008 16.7539C182.008 18.6745 181.992 20.7741 181.959 23.0527C181.959 25.2988 181.943 27.5938 181.91 29.9375C181.91 32.2487 181.91 34.5436 181.91 36.8223C181.91 39.1009 181.943 41.168 182.008 43.0234C182.04 43.5768 181.926 43.9349 181.666 44.0977C181.438 44.293 181.145 44.3906 180.787 44.3906C180.396 44.3906 180.071 44.293 179.811 44.0977C179.55 43.9349 179.452 43.5768 179.518 43.0234ZM178.443 8.0625C178.443 7.67188 178.574 7.41146 178.834 7.28125C179.094 7.15104 179.387 7.08594 179.713 7.08594C180.364 7.08594 180.771 7.29753 180.934 7.7207C181.096 8.14388 181.178 8.63216 181.178 9.18555C180.982 9.54362 180.738 9.80404 180.445 9.9668C180.152 10.097 179.843 10.1296 179.518 10.0645C179.225 9.9668 178.964 9.75521 178.736 9.42969C178.541 9.10417 178.443 8.64844 178.443 8.0625ZM185.377 32.7695C185.475 31.5977 185.572 30.3281 185.67 28.9609C185.768 27.5612 185.914 26.1777 186.109 24.8105C186.337 23.4434 186.614 22.1413 186.939 20.9043C187.298 19.6673 187.753 18.5768 188.307 17.6328C188.893 16.6562 189.609 15.8913 190.455 15.3379C191.301 14.752 192.327 14.4753 193.531 14.5078C194.345 14.5078 194.964 14.8496 195.387 15.5332C195.842 16.2168 196.152 17.0469 196.314 18.0234C196.51 19 196.607 20.0091 196.607 21.0508C196.64 22.0599 196.656 22.89 196.656 23.541C196.005 23.541 195.468 23.2643 195.045 22.7109C194.622 22.125 194.296 21.4577 194.068 20.709C193.84 19.9603 193.678 19.2279 193.58 18.5117L193.434 17.0957C193.401 17.0957 193.336 17.0957 193.238 17.0957C193.173 17.0632 193.124 17.0469 193.092 17.0469C192.538 17.0469 192.018 17.3561 191.529 17.9746C191.074 18.5931 190.634 19.3906 190.211 20.3672C189.82 21.3112 189.479 22.3854 189.186 23.5898C188.893 24.7617 188.648 25.9173 188.453 27.0566C188.258 28.196 188.095 29.2539 187.965 30.2305C187.867 31.1745 187.818 31.9069 187.818 32.4277C187.753 33.2741 187.753 34.2018 187.818 35.2109C187.883 36.2201 188.079 37.1641 188.404 38.043C188.73 38.9219 189.186 39.6868 189.771 40.3379C190.357 40.9564 191.139 41.3796 192.115 41.6074C193.32 41.6074 194.296 41.4447 195.045 41.1191C195.794 40.7936 196.396 40.3542 196.852 39.8008C197.34 39.2474 197.714 38.6289 197.975 37.9453C198.235 37.2617 198.479 36.5618 198.707 35.8457C198.967 35.097 199.228 34.3646 199.488 33.6484C199.749 32.9323 200.123 32.265 200.611 31.6465C201.002 31.5488 201.279 31.5651 201.441 31.6953C201.637 31.793 201.767 31.9395 201.832 32.1348C201.897 32.3301 201.93 32.5579 201.93 32.8184V33.3555C201.93 34.7227 201.702 36.041 201.246 37.3105C200.79 38.5801 200.123 39.7194 199.244 40.7285C198.365 41.7051 197.307 42.5026 196.07 43.1211C194.866 43.707 193.482 44 191.92 44C190.618 44 189.527 43.5931 188.648 42.7793C187.802 41.9329 187.135 40.9238 186.646 39.752C186.191 38.5801 185.865 37.3594 185.67 36.0898C185.475 34.7878 185.377 33.681 185.377 32.7695ZM206.324 6.5C207.008 5.84896 207.545 5.58854 207.936 5.71875C208.359 5.84896 208.668 6.28841 208.863 7.03711C209.059 7.78581 209.173 8.76237 209.205 9.9668C209.238 11.1712 209.221 12.5384 209.156 14.0684C209.124 15.5658 209.042 17.1608 208.912 18.8535C208.782 20.5137 208.668 22.1576 208.57 23.7852C208.473 25.3802 208.408 26.9102 208.375 28.375C208.342 29.8398 208.391 31.1094 208.521 32.1836H208.668C208.733 32.1836 208.782 32.1673 208.814 32.1348C210.507 30.4421 212.021 28.6517 213.355 26.7637C214.69 24.8757 215.895 23.1016 216.969 21.4414C218.043 19.7487 218.987 18.2839 219.801 17.0469C220.647 15.8099 221.428 14.9635 222.145 14.5078C222.633 14.5078 223.04 14.5892 223.365 14.752C223.723 14.9147 223.902 15.2891 223.902 15.875C223.902 15.9401 223.886 16.054 223.854 16.2168C223.854 16.347 223.854 16.4447 223.854 16.5098C223.04 18.1699 222.145 19.8464 221.168 21.5391C220.191 23.1992 219.133 24.8105 217.994 26.373C216.855 27.9355 215.618 29.4167 214.283 30.8164C212.981 32.2161 211.565 33.4857 210.035 34.625C210.035 34.6576 210.019 34.7227 209.986 34.8203C209.986 34.8854 209.986 34.9342 209.986 34.9668C209.986 35.2923 210.247 35.6504 210.768 36.041C211.321 36.4316 212.005 36.806 212.818 37.1641C213.665 37.5221 214.592 37.8802 215.602 38.2383C216.643 38.5964 217.652 38.9056 218.629 39.166C219.638 39.4264 220.566 39.638 221.412 39.8008C222.291 39.9635 222.975 40.0449 223.463 40.0449C223.463 40.1751 223.463 40.4193 223.463 40.7773C223.495 41.1354 223.479 41.5098 223.414 41.9004C223.349 42.291 223.235 42.6491 223.072 42.9746C222.91 43.2676 222.649 43.4141 222.291 43.4141H222.096C222.031 43.4141 221.982 43.3978 221.949 43.3652L207.984 37.75C207.952 39.6706 207.822 41.2331 207.594 42.4375C207.366 43.6094 207.089 44.472 206.764 45.0254C206.471 45.6113 206.145 45.888 205.787 45.8555C205.462 45.8229 205.169 45.5625 204.908 45.0742L206.324 6.5ZM227.76 33.4531C227.597 33.4857 227.353 33.5345 227.027 33.5996C226.702 33.6647 226.36 33.681 226.002 33.6484C225.644 33.6159 225.335 33.5182 225.074 33.3555C224.781 33.1927 224.635 32.916 224.635 32.5254C224.635 32.2975 224.684 32.1348 224.781 32.0371C224.879 31.9395 225.042 31.793 225.27 31.5977C225.986 31.0117 226.588 30.263 227.076 29.3516C227.597 28.4076 228.069 27.4147 228.492 26.373C228.915 25.2988 229.355 24.2409 229.811 23.1992C230.299 22.125 230.852 21.1647 231.471 20.3184C232.089 19.472 232.854 18.7884 233.766 18.2676C234.677 17.7467 235.8 17.5026 237.135 17.5352C237.688 17.5352 238.307 17.6654 238.99 17.9258C239.674 18.1862 240.309 18.5443 240.895 19C241.48 19.4232 241.969 19.944 242.359 20.5625C242.75 21.181 242.945 21.8646 242.945 22.6133C243.108 22.8737 242.945 23.248 242.457 23.7363C242.001 24.2246 241.367 24.7617 240.553 25.3477C239.739 25.901 238.811 26.487 237.77 27.1055C236.76 27.6914 235.784 28.2448 234.84 28.7656C233.896 29.2865 233.066 29.7422 232.35 30.1328C231.633 30.5234 231.161 30.8164 230.934 31.0117C230.771 31.3372 230.641 31.7116 230.543 32.1348C230.445 32.5579 230.364 32.9648 230.299 33.3555C230.266 33.7135 230.234 34.0553 230.201 34.3809C230.201 34.6738 230.201 34.9017 230.201 35.0645C230.201 35.6829 230.169 36.3665 230.104 37.1152C230.071 37.8639 230.104 38.5801 230.201 39.2637C230.331 39.9147 230.608 40.4681 231.031 40.9238C231.454 41.347 232.171 41.5586 233.18 41.5586C234.254 41.5586 235.263 41.2982 236.207 40.7773C237.151 40.224 238.03 39.5566 238.844 38.7754C239.658 37.9941 240.39 37.1478 241.041 36.2363C241.725 35.3249 242.327 34.4785 242.848 33.6973C243.401 32.8835 243.889 32.2161 244.312 31.6953C244.736 31.1745 245.094 30.9141 245.387 30.9141C245.712 30.9141 246.054 30.9792 246.412 31.1094C246.803 31.207 246.998 31.4674 246.998 31.8906C246.998 32.4766 246.754 33.1764 246.266 33.9902C245.81 34.804 245.191 35.6667 244.41 36.5781C243.661 37.4896 242.783 38.401 241.773 39.3125C240.797 40.1914 239.804 40.9889 238.795 41.7051C237.786 42.3887 236.793 42.9583 235.816 43.4141C234.84 43.8372 233.977 44.0488 233.229 44.0488C231.764 44.0488 230.657 43.6908 229.908 42.9746C229.16 42.2585 228.622 41.3633 228.297 40.2891C228.004 39.2148 227.841 38.0755 227.809 36.8711C227.809 35.6341 227.792 34.4948 227.76 33.4531ZM236.744 20.2695C236.191 20.2695 235.605 20.5462 234.986 21.0996C234.368 21.6204 233.782 22.2715 233.229 23.0527C232.708 23.8014 232.268 24.5827 231.91 25.3965C231.585 26.1777 231.422 26.8288 231.422 27.3496C231.91 27.3496 232.61 27.1706 233.521 26.8125C234.465 26.4219 235.393 25.9499 236.305 25.3965C237.216 24.8431 238.014 24.2572 238.697 23.6387C239.381 23.0202 239.723 22.4342 239.723 21.8809C239.723 21.5879 239.609 21.3438 239.381 21.1484C239.153 20.9531 238.876 20.7904 238.551 20.6602C238.258 20.5299 237.949 20.4323 237.623 20.3672C237.298 20.3021 237.005 20.2695 236.744 20.2695ZM260.133 35.0645C259.807 35.8132 259.384 36.6758 258.863 37.6523C258.375 38.6289 257.789 39.5566 257.105 40.4355C256.454 41.3145 255.689 42.0632 254.811 42.6816C253.932 43.3001 252.955 43.6094 251.881 43.6094C251.393 43.6094 251.002 43.5605 250.709 43.4629C250.449 43.3327 250.204 43.1536 249.977 42.9258C249.781 42.6979 249.586 42.4212 249.391 42.0957C249.228 41.7702 249.016 41.4121 248.756 41.0215C248.658 39.4264 248.593 37.7174 248.561 35.8945C248.561 34.0391 248.658 32.1999 248.854 30.377C249.049 28.5215 249.374 26.7799 249.83 25.1523C250.318 23.5247 250.986 22.1413 251.832 21.002C252.711 19.8626 253.801 19.0488 255.104 18.5605C256.406 18.0723 257.984 18.0397 259.84 18.4629C259.938 17.5514 259.954 16.3307 259.889 14.8008C259.824 13.2708 259.726 11.6595 259.596 9.9668C259.465 8.27409 259.335 6.64648 259.205 5.08398C259.075 3.48893 258.993 2.18685 258.961 1.17773C258.961 0.884766 259.091 0.673177 259.352 0.542969C259.645 0.380208 259.954 0.282552 260.279 0.25C260.605 0.217448 260.914 0.217448 261.207 0.25C261.533 0.282552 261.744 0.33138 261.842 0.396484C261.777 4.40039 261.76 8.33919 261.793 12.2129C261.826 16.054 261.858 19.8952 261.891 23.7363C261.956 27.5449 262.021 31.3372 262.086 35.1133C262.151 38.8893 262.184 42.6654 262.184 46.4414C262.184 46.7995 262.151 47.1738 262.086 47.5645C262.053 47.9876 261.777 48.1992 261.256 48.1992C261.061 48.1992 260.865 48.1341 260.67 48.0039C260.475 47.9062 260.344 47.7435 260.279 47.5156L260.133 35.0645ZM258.033 20.9043C257.024 20.8392 256.08 21.2461 255.201 22.125C254.355 22.9714 253.606 24.0781 252.955 25.4453C252.337 26.8125 251.832 28.3262 251.441 29.9863C251.051 31.6139 250.807 33.1927 250.709 34.7227C250.644 36.2201 250.742 37.5547 251.002 38.7266C251.295 39.8984 251.799 40.696 252.516 41.1191C253.232 41.1191 253.899 40.8424 254.518 40.2891C255.136 39.7031 255.706 38.9707 256.227 38.0918C256.747 37.2129 257.203 36.2363 257.594 35.1621C257.984 34.0553 258.31 32.9974 258.57 31.9883C258.863 30.9792 259.075 30.0677 259.205 29.2539C259.368 28.4076 259.449 27.7728 259.449 27.3496C259.449 27.0241 259.465 26.5033 259.498 25.7871C259.531 25.071 259.514 24.3548 259.449 23.6387C259.384 22.9225 259.238 22.2878 259.01 21.7344C258.814 21.181 258.489 20.9043 258.033 20.9043Z" fill="#0C0B0B"/>
</svg>
