<svg width="386" height="66" viewBox="0 0 386 66" fill="none" xmlns="http://www.w3.org/2000/svg">
<path d="M5.9082 41.7051C5.97331 41.3796 6.38021 41.0703 7.12891 40.7773C7.8776 40.4844 8.80534 40.1751 9.91211 39.8496C11.0189 39.5241 12.2396 39.166 13.5742 38.7754C14.9089 38.3848 16.1947 37.9453 17.4316 37.457C18.6686 36.9688 19.7917 36.4154 20.8008 35.7969C21.8424 35.1784 22.6074 34.4622 23.0957 33.6484C23.0957 33.1602 22.7702 32.7858 22.1191 32.5254C21.5007 32.265 20.6543 32.0534 19.5801 31.8906C18.5384 31.6953 17.334 31.5488 15.9668 31.4512C14.6322 31.321 13.2487 31.1582 11.8164 30.9629C10.4167 30.735 9.0332 30.4746 7.66602 30.1816C6.33138 29.8561 5.12695 29.4167 4.05273 28.8633C3.01107 28.2773 2.16471 27.5449 1.51367 26.666C0.895182 25.7871 0.585938 24.7129 0.585938 23.4434C0.585938 22.1738 0.86263 20.9206 1.41602 19.6836C1.9694 18.4141 2.70182 17.1934 3.61328 16.0215C4.55729 14.8496 5.61523 13.7591 6.78711 12.75C7.99154 11.7409 9.24479 10.862 10.5469 10.1133C11.849 9.36458 13.1348 8.77865 14.4043 8.35547C15.7064 7.93229 16.9108 7.7207 18.0176 7.7207C18.3105 7.7207 18.6198 7.7207 18.9453 7.7207C19.2708 7.68815 19.5475 7.70443 19.7754 7.76953C20.0358 7.80208 20.2474 7.91602 20.4102 8.11133C20.5729 8.30664 20.6543 8.59961 20.6543 8.99023C20.6543 9.93424 20.3451 10.6178 19.7266 11.041C19.1081 11.4316 18.3594 11.627 17.4805 11.627L15.5762 10.2598C14.8275 10.2598 13.9974 10.4714 13.0859 10.8945C12.207 11.3177 11.2956 11.8874 10.3516 12.6035C9.4401 13.2871 8.54492 14.0846 7.66602 14.9961C6.78711 15.9076 6.00586 16.8516 5.32227 17.8281C4.67122 18.8047 4.13411 19.7812 3.71094 20.7578C3.32031 21.7344 3.125 22.6133 3.125 23.3945C3.125 24.5339 3.43424 25.4616 4.05273 26.1777C4.70378 26.8613 5.55013 27.4147 6.5918 27.8379C7.66602 28.2285 8.88672 28.5215 10.2539 28.7168C11.6211 28.9121 13.0046 29.0749 14.4043 29.2051C15.804 29.3353 17.1875 29.4655 18.5547 29.5957C19.9219 29.6934 21.1263 29.8887 22.168 30.1816C23.2422 30.4746 24.0885 30.8652 24.707 31.3535C25.3581 31.8418 25.6836 32.5091 25.6836 33.3555C26.0417 33.8763 25.9603 34.4785 25.4395 35.1621C24.9512 35.8132 24.1699 36.4805 23.0957 37.1641C22.054 37.8151 20.8008 38.4824 19.3359 39.166C17.9036 39.8171 16.4225 40.4193 14.8926 40.9727C13.3626 41.4935 11.8815 41.9492 10.4492 42.3398C9.01693 42.6979 7.79622 42.9258 6.78711 43.0234C6.49414 43.0234 6.23372 42.9258 6.00586 42.7305C5.81055 42.5352 5.77799 42.1934 5.9082 41.7051ZM29.7363 33.4531C29.5736 33.4857 29.3294 33.5345 29.0039 33.5996C28.6784 33.6647 28.3366 33.681 27.9785 33.6484C27.6204 33.6159 27.3112 33.5182 27.0508 33.3555C26.7578 33.1927 26.6113 32.916 26.6113 32.5254C26.6113 32.2975 26.6602 32.1348 26.7578 32.0371C26.8555 31.9395 27.0182 31.793 27.2461 31.5977C27.9622 31.0117 28.5645 30.263 29.0527 29.3516C29.5736 28.4076 30.0456 27.4147 30.4688 26.373C30.8919 25.2988 31.3314 24.2409 31.7871 23.1992C32.2754 22.125 32.8288 21.1647 33.4473 20.3184C34.0658 19.472 34.8307 18.7884 35.7422 18.2676C36.6536 17.7467 37.7767 17.5026 39.1113 17.5352C39.6647 17.5352 40.2832 17.6654 40.9668 17.9258C41.6504 18.1862 42.2852 18.5443 42.8711 19C43.457 19.4232 43.9453 19.944 44.3359 20.5625C44.7266 21.181 44.9219 21.8646 44.9219 22.6133C45.0846 22.8737 44.9219 23.248 44.4336 23.7363C43.9779 24.2246 43.3431 24.7617 42.5293 25.3477C41.7155 25.901 40.7878 26.487 39.7461 27.1055C38.737 27.6914 37.7604 28.2448 36.8164 28.7656C35.8724 29.2865 35.0423 29.7422 34.3262 30.1328C33.61 30.5234 33.138 30.8164 32.9102 31.0117C32.7474 31.3372 32.6172 31.7116 32.5195 32.1348C32.4219 32.5579 32.3405 32.9648 32.2754 33.3555C32.2428 33.7135 32.2103 34.0553 32.1777 34.3809C32.1777 34.6738 32.1777 34.9017 32.1777 35.0645C32.1777 35.6829 32.1452 36.3665 32.0801 37.1152C32.0475 37.8639 32.0801 38.5801 32.1777 39.2637C32.3079 39.9147 32.5846 40.4681 33.0078 40.9238C33.431 41.347 34.1471 41.5586 35.1562 41.5586C36.2305 41.5586 37.2396 41.2982 38.1836 40.7773C39.1276 40.224 40.0065 39.5566 40.8203 38.7754C41.6341 37.9941 42.3665 37.1478 43.0176 36.2363C43.7012 35.3249 44.3034 34.4785 44.8242 33.6973C45.3776 32.8835 45.8659 32.2161 46.2891 31.6953C46.7122 31.1745 47.0703 30.9141 47.3633 30.9141C47.6888 30.9141 48.0306 30.9792 48.3887 31.1094C48.7793 31.207 48.9746 31.4674 48.9746 31.8906C48.9746 32.4766 48.7305 33.1764 48.2422 33.9902C47.7865 34.804 47.168 35.6667 46.3867 36.5781C45.638 37.4896 44.7591 38.401 43.75 39.3125C42.7734 40.1914 41.7806 40.9889 40.7715 41.7051C39.7624 42.3887 38.7695 42.9583 37.793 43.4141C36.8164 43.8372 35.9538 44.0488 35.2051 44.0488C33.7402 44.0488 32.6335 43.6908 31.8848 42.9746C31.1361 42.2585 30.599 41.3633 30.2734 40.2891C29.9805 39.2148 29.8177 38.0755 29.7852 36.8711C29.7852 35.6341 29.7689 34.4948 29.7363 33.4531ZM38.7207 20.2695C38.1673 20.2695 37.5814 20.5462 36.9629 21.0996C36.3444 21.6204 35.7585 22.2715 35.2051 23.0527C34.6842 23.8014 34.2448 24.5827 33.8867 25.3965C33.5612 26.1777 33.3984 26.8288 33.3984 27.3496C33.8867 27.3496 34.5866 27.1706 35.498 26.8125C36.4421 26.4219 37.3698 25.9499 38.2812 25.3965C39.1927 24.8431 39.9902 24.2572 40.6738 23.6387C41.3574 23.0202 41.6992 22.4342 41.6992 21.8809C41.6992 21.5879 41.5853 21.3438 41.3574 21.1484C41.1296 20.9531 40.8529 20.7904 40.5273 20.6602C40.2344 20.5299 39.9251 20.4323 39.5996 20.3672C39.2741 20.3021 38.9811 20.2695 38.7207 20.2695ZM53.4668 43.3652C53.1087 38.9707 52.7832 34.5762 52.4902 30.1816C52.2298 25.7546 51.9368 21.1647 51.6113 16.4121C51.6113 15.6309 52.0345 15.2402 52.8809 15.2402H53.2715C53.3691 15.2402 53.4831 15.3704 53.6133 15.6309C53.7435 15.8913 53.8737 16.3796 54.0039 17.0957C54.1667 17.7793 54.3294 18.8372 54.4922 20.2695C54.6875 21.6693 54.9154 23.5085 55.1758 25.7871C55.4362 28.0658 55.7292 30.9141 56.0547 34.332C56.7383 32.1185 57.2754 29.9701 57.666 27.8867C58.0566 25.8034 58.5612 23.9154 59.1797 22.2227C59.7982 20.4974 60.6608 18.9837 61.7676 17.6816C62.9069 16.3796 64.5345 15.4193 66.6504 14.8008C67.8223 14.9961 68.7663 15.7122 69.4824 16.9492C70.1986 18.1536 70.7682 19.651 71.1914 21.4414C71.6146 23.2318 71.9076 25.1849 72.0703 27.3008C72.2331 29.3841 72.3307 31.3861 72.3633 33.3066C72.3958 35.2272 72.4121 36.9525 72.4121 38.4824C72.4121 39.9798 72.4447 41.054 72.5098 41.7051C72.4121 41.9655 72.2656 42.1934 72.0703 42.3887C71.875 42.584 71.6471 42.7305 71.3867 42.8281C71.1589 42.8932 70.931 42.9095 70.7031 42.877C70.4753 42.8118 70.2637 42.6328 70.0684 42.3398C70.0684 41.9818 70.0358 41.2493 69.9707 40.1426C69.9056 39.0358 69.8242 37.75 69.7266 36.2852C69.6289 34.7878 69.515 33.209 69.3848 31.5488C69.2871 29.8561 69.1895 28.2773 69.0918 26.8125C69.0267 25.3151 68.9616 24.013 68.8965 22.9062C68.8314 21.7995 68.7826 21.0671 68.75 20.709C68.0664 19.5046 67.3828 18.821 66.6992 18.6582C66.0482 18.4954 65.3809 18.707 64.6973 19.293C64.0462 19.8789 63.4115 20.7741 62.793 21.9785C62.1745 23.1829 61.5885 24.5501 61.0352 26.0801C60.4818 27.5775 59.9609 29.1562 59.4727 30.8164C58.9844 32.4766 58.5612 34.0879 58.2031 35.6504C57.8451 37.1803 57.5358 38.5801 57.2754 39.8496C57.0475 41.0866 56.901 42.0469 56.8359 42.7305C56.7383 42.9583 56.5267 43.1862 56.2012 43.4141C55.9082 43.6094 55.5827 43.7559 55.2246 43.8535C54.8991 43.9512 54.5573 43.9837 54.1992 43.9512C53.8737 43.8861 53.6296 43.6908 53.4668 43.3652ZM86.2793 35.0645C85.9538 35.8132 85.5306 36.6758 85.0098 37.6523C84.5215 38.6289 83.9355 39.5566 83.252 40.4355C82.6009 41.3145 81.8359 42.0632 80.957 42.6816C80.0781 43.3001 79.1016 43.6094 78.0273 43.6094C77.5391 43.6094 77.1484 43.5605 76.8555 43.4629C76.5951 43.3327 76.3509 43.1536 76.123 42.9258C75.9277 42.6979 75.7324 42.4212 75.5371 42.0957C75.3743 41.7702 75.1628 41.4121 74.9023 41.0215C74.8047 39.4264 74.7396 37.7174 74.707 35.8945C74.707 34.0391 74.8047 32.1999 75 30.377C75.1953 28.5215 75.5208 26.7799 75.9766 25.1523C76.4648 23.5247 77.1322 22.1413 77.9785 21.002C78.8574 19.8626 79.9479 19.0488 81.25 18.5605C82.5521 18.0723 84.1309 18.0397 85.9863 18.4629C86.084 17.5514 86.1003 16.3307 86.0352 14.8008C85.9701 13.2708 85.8724 11.6595 85.7422 9.9668C85.612 8.27409 85.4818 6.64648 85.3516 5.08398C85.2214 3.48893 85.14 2.18685 85.1074 1.17773C85.1074 0.884766 85.2376 0.673177 85.498 0.542969C85.791 0.380208 86.1003 0.282552 86.4258 0.25C86.7513 0.217448 87.0605 0.217448 87.3535 0.25C87.679 0.282552 87.8906 0.33138 87.9883 0.396484C87.9232 4.40039 87.9069 8.33919 87.9395 12.2129C87.972 16.054 88.0046 19.8952 88.0371 23.7363C88.1022 27.5449 88.1673 31.3372 88.2324 35.1133C88.2975 38.8893 88.3301 42.6654 88.3301 46.4414C88.3301 46.7995 88.2975 47.1738 88.2324 47.5645C88.1999 47.9876 87.9232 48.1992 87.4023 48.1992C87.207 48.1992 87.0117 48.1341 86.8164 48.0039C86.6211 47.9062 86.4909 47.7435 86.4258 47.5156L86.2793 35.0645ZM84.1797 20.9043C83.1706 20.8392 82.2266 21.2461 81.3477 22.125C80.5013 22.9714 79.7526 24.0781 79.1016 25.4453C78.4831 26.8125 77.9785 28.3262 77.5879 29.9863C77.1973 31.6139 76.9531 33.1927 76.8555 34.7227C76.7904 36.2201 76.888 37.5547 77.1484 38.7266C77.4414 39.8984 77.946 40.696 78.6621 41.1191C79.3783 41.1191 80.0456 40.8424 80.6641 40.2891C81.2826 39.7031 81.8522 38.9707 82.373 38.0918C82.8939 37.2129 83.3496 36.2363 83.7402 35.1621C84.1309 34.0553 84.4564 32.9974 84.7168 31.9883C85.0098 30.9792 85.2214 30.0677 85.3516 29.2539C85.5143 28.4076 85.5957 27.7728 85.5957 27.3496C85.5957 27.0241 85.612 26.5033 85.6445 25.7871C85.6771 25.071 85.6608 24.3548 85.5957 23.6387C85.5306 22.9225 85.3841 22.2878 85.1562 21.7344C84.9609 21.181 84.6354 20.9043 84.1797 20.9043ZM115.869 43.8535C115.771 42.9421 115.69 41.7051 115.625 40.1426C115.56 38.5801 115.495 36.8874 115.43 35.0645C115.365 33.209 115.283 31.2884 115.186 29.3027C115.12 27.3171 115.039 25.429 114.941 23.6387C114.844 21.8483 114.714 20.2207 114.551 18.7559C114.421 17.291 114.274 16.1191 114.111 15.2402C114.111 14.5892 114.258 14.2148 114.551 14.1172C114.844 13.987 115.218 13.9219 115.674 13.9219C115.739 13.9219 115.885 13.9219 116.113 13.9219C116.341 13.9219 116.504 13.9382 116.602 13.9707C116.895 14.9473 117.074 16.2168 117.139 17.7793C117.236 19.3092 117.301 20.9857 117.334 22.8086C117.399 24.6315 117.448 26.5195 117.48 28.4727C117.546 30.4258 117.66 32.2812 117.822 34.0391C118.278 31.4674 118.652 29.3353 118.945 27.6426C119.271 25.9499 119.564 24.599 119.824 23.5898C120.117 22.5482 120.378 21.7832 120.605 21.2949C120.866 20.7741 121.143 20.4323 121.436 20.2695C121.761 20.1068 122.103 20.0417 122.461 20.0742C122.852 20.0742 123.307 20.0742 123.828 20.0742C124.414 20.0742 124.886 20.3021 125.244 20.7578C125.635 21.2135 125.928 21.7995 126.123 22.5156C126.351 23.2318 126.514 24.013 126.611 24.8594C126.742 25.7057 126.855 26.5358 126.953 27.3496C127.051 28.1309 127.148 28.847 127.246 29.498C127.376 30.1491 127.572 30.6048 127.832 30.8652C128.646 28.4564 129.346 26.487 129.932 24.957C130.518 23.4271 131.022 22.2227 131.445 21.3438C131.868 20.4323 132.243 19.7812 132.568 19.3906C132.894 19 133.187 18.7721 133.447 18.707C133.708 18.6094 133.936 18.5931 134.131 18.6582C134.359 18.7233 134.587 18.7559 134.814 18.7559C135.693 18.7559 136.361 19.2116 136.816 20.123C137.337 21.5879 137.695 22.9876 137.891 24.3223C138.086 25.6243 138.2 26.8939 138.232 28.1309C138.265 29.3353 138.265 30.4909 138.232 31.5977C138.232 32.7044 138.265 33.7786 138.33 34.8203C138.428 35.862 138.607 36.8874 138.867 37.8965C139.16 38.9056 139.648 39.8984 140.332 40.875C140.072 41.3958 139.811 41.7539 139.551 41.9492C139.29 42.112 138.932 42.1934 138.477 42.1934C138.086 42.1934 137.744 42.0632 137.451 41.8027C137.158 41.5098 136.914 41.168 136.719 40.7773C136.523 40.3542 136.361 39.931 136.23 39.5078C136.133 39.0846 136.035 38.7103 135.938 38.3848C135.807 33.7298 135.596 30.1654 135.303 27.6914C135.042 25.1849 134.635 23.8665 134.082 23.7363C133.529 23.6061 132.812 24.6966 131.934 27.0078C131.087 29.2865 130.029 32.8672 128.76 37.75C128.662 37.9128 128.516 38.0104 128.32 38.043C128.125 38.0755 127.913 38.0918 127.686 38.0918C127.49 38.0918 127.279 38.0918 127.051 38.0918C126.855 38.0592 126.66 38.0592 126.465 38.0918C125.651 33.3066 124.967 29.8724 124.414 27.7891C123.893 25.6732 123.356 24.8594 122.803 25.3477C122.249 25.8359 121.631 27.5938 120.947 30.6211C120.264 33.6159 119.385 37.8314 118.311 43.2676L115.869 43.8535ZM144.287 33.4531C144.124 33.4857 143.88 33.5345 143.555 33.5996C143.229 33.6647 142.887 33.681 142.529 33.6484C142.171 33.6159 141.862 33.5182 141.602 33.3555C141.309 33.1927 141.162 32.916 141.162 32.5254C141.162 32.2975 141.211 32.1348 141.309 32.0371C141.406 31.9395 141.569 31.793 141.797 31.5977C142.513 31.0117 143.115 30.263 143.604 29.3516C144.124 28.4076 144.596 27.4147 145.02 26.373C145.443 25.2988 145.882 24.2409 146.338 23.1992C146.826 22.125 147.38 21.1647 147.998 20.3184C148.617 19.472 149.382 18.7884 150.293 18.2676C151.204 17.7467 152.327 17.5026 153.662 17.5352C154.215 17.5352 154.834 17.6654 155.518 17.9258C156.201 18.1862 156.836 18.5443 157.422 19C158.008 19.4232 158.496 19.944 158.887 20.5625C159.277 21.181 159.473 21.8646 159.473 22.6133C159.635 22.8737 159.473 23.248 158.984 23.7363C158.529 24.2246 157.894 24.7617 157.08 25.3477C156.266 25.901 155.339 26.487 154.297 27.1055C153.288 27.6914 152.311 28.2448 151.367 28.7656C150.423 29.2865 149.593 29.7422 148.877 30.1328C148.161 30.5234 147.689 30.8164 147.461 31.0117C147.298 31.3372 147.168 31.7116 147.07 32.1348C146.973 32.5579 146.891 32.9648 146.826 33.3555C146.794 33.7135 146.761 34.0553 146.729 34.3809C146.729 34.6738 146.729 34.9017 146.729 35.0645C146.729 35.6829 146.696 36.3665 146.631 37.1152C146.598 37.8639 146.631 38.5801 146.729 39.2637C146.859 39.9147 147.135 40.4681 147.559 40.9238C147.982 41.347 148.698 41.5586 149.707 41.5586C150.781 41.5586 151.79 41.2982 152.734 40.7773C153.678 40.224 154.557 39.5566 155.371 38.7754C156.185 37.9941 156.917 37.1478 157.568 36.2363C158.252 35.3249 158.854 34.4785 159.375 33.6973C159.928 32.8835 160.417 32.2161 160.84 31.6953C161.263 31.1745 161.621 30.9141 161.914 30.9141C162.24 30.9141 162.581 30.9792 162.939 31.1094C163.33 31.207 163.525 31.4674 163.525 31.8906C163.525 32.4766 163.281 33.1764 162.793 33.9902C162.337 34.804 161.719 35.6667 160.938 36.5781C160.189 37.4896 159.31 38.401 158.301 39.3125C157.324 40.1914 156.331 40.9889 155.322 41.7051C154.313 42.3887 153.32 42.9583 152.344 43.4141C151.367 43.8372 150.505 44.0488 149.756 44.0488C148.291 44.0488 147.184 43.6908 146.436 42.9746C145.687 42.2585 145.15 41.3633 144.824 40.2891C144.531 39.2148 144.368 38.0755 144.336 36.8711C144.336 35.6341 144.32 34.4948 144.287 33.4531ZM153.271 20.2695C152.718 20.2695 152.132 20.5462 151.514 21.0996C150.895 21.6204 150.309 22.2715 149.756 23.0527C149.235 23.8014 148.796 24.5827 148.438 25.3965C148.112 26.1777 147.949 26.8288 147.949 27.3496C148.438 27.3496 149.137 27.1706 150.049 26.8125C150.993 26.4219 151.921 25.9499 152.832 25.3965C153.743 24.8431 154.541 24.2572 155.225 23.6387C155.908 23.0202 156.25 22.4342 156.25 21.8809C156.25 21.5879 156.136 21.3438 155.908 21.1484C155.68 20.9531 155.404 20.7904 155.078 20.6602C154.785 20.5299 154.476 20.4323 154.15 20.3672C153.825 20.3021 153.532 20.2695 153.271 20.2695ZM202.344 42.7305C202.181 41.8841 202.035 40.875 201.904 39.7031C201.807 38.4987 201.693 37.2943 201.562 36.0898C201.432 34.8529 201.27 33.6973 201.074 32.623C200.911 31.5488 200.651 30.6699 200.293 29.9863C198.633 33.3717 197.168 36.041 195.898 37.9941C194.629 39.9147 193.506 41.2982 192.529 42.1445C191.585 42.9583 190.788 43.349 190.137 43.3164C189.486 43.2839 188.949 42.9909 188.525 42.4375C188.102 41.8841 187.793 41.1842 187.598 40.3379C187.435 39.459 187.321 38.6452 187.256 37.8965C187.256 37.1803 187.419 36.1712 187.744 34.8691C188.07 33.5671 188.509 32.151 189.062 30.6211C189.616 29.0586 190.267 27.4798 191.016 25.8848C191.797 24.2897 192.627 22.8411 193.506 21.5391C194.385 20.237 195.296 19.1628 196.24 18.3164C197.184 17.4701 198.128 17.0469 199.072 17.0469C200.472 16.819 201.497 17.1283 202.148 17.9746C202.832 18.7884 202.962 20.1719 202.539 22.125C202.539 24.2734 202.62 26.1126 202.783 27.6426C202.979 29.1725 203.174 30.6374 203.369 32.0371C203.597 33.4368 203.792 34.9017 203.955 36.4316C204.15 37.9616 204.248 39.8008 204.248 41.9492C204.248 42.3398 204.199 42.6816 204.102 42.9746C204.036 43.235 203.646 43.3652 202.93 43.3652C202.832 43.3652 202.702 43.2839 202.539 43.1211C202.409 42.9583 202.344 42.8281 202.344 42.7305ZM199.707 20.9043C199.349 20.3835 198.861 20.3346 198.242 20.7578C197.624 21.181 196.973 21.8809 196.289 22.8574C195.605 23.834 194.906 25.0059 194.189 26.373C193.473 27.7402 192.806 29.1237 192.188 30.5234C191.569 31.9232 191.032 33.2578 190.576 34.5273C190.12 35.7643 189.811 36.7897 189.648 37.6035C189.648 38.7754 189.827 39.4427 190.186 39.6055C190.544 39.7357 190.983 39.5404 191.504 39.0195C192.025 38.4987 192.611 37.75 193.262 36.7734C193.945 35.7969 194.596 34.7552 195.215 33.6484C195.866 32.5417 196.468 31.4674 197.021 30.4258C197.607 29.3841 198.063 28.5378 198.389 27.8867C198.682 27.2031 198.91 26.5684 199.072 25.9824C199.235 25.3965 199.365 24.8431 199.463 24.3223C199.593 23.7689 199.658 23.2155 199.658 22.6621C199.691 22.1087 199.707 21.5228 199.707 20.9043ZM231.25 43.8535C231.152 42.9421 231.071 41.7051 231.006 40.1426C230.941 38.5801 230.876 36.8874 230.811 35.0645C230.745 33.209 230.664 31.2884 230.566 29.3027C230.501 27.3171 230.42 25.429 230.322 23.6387C230.225 21.8483 230.094 20.2207 229.932 18.7559C229.801 17.291 229.655 16.1191 229.492 15.2402C229.492 14.5892 229.639 14.2148 229.932 14.1172C230.225 13.987 230.599 13.9219 231.055 13.9219C231.12 13.9219 231.266 13.9219 231.494 13.9219C231.722 13.9219 231.885 13.9382 231.982 13.9707C232.275 14.9473 232.454 16.2168 232.52 17.7793C232.617 19.3092 232.682 20.9857 232.715 22.8086C232.78 24.6315 232.829 26.5195 232.861 28.4727C232.926 30.4258 233.04 32.2812 233.203 34.0391C233.659 31.4674 234.033 29.3353 234.326 27.6426C234.652 25.9499 234.945 24.599 235.205 23.5898C235.498 22.5482 235.758 21.7832 235.986 21.2949C236.247 20.7741 236.523 20.4323 236.816 20.2695C237.142 20.1068 237.484 20.0417 237.842 20.0742C238.232 20.0742 238.688 20.0742 239.209 20.0742C239.795 20.0742 240.267 20.3021 240.625 20.7578C241.016 21.2135 241.309 21.7995 241.504 22.5156C241.732 23.2318 241.895 24.013 241.992 24.8594C242.122 25.7057 242.236 26.5358 242.334 27.3496C242.432 28.1309 242.529 28.847 242.627 29.498C242.757 30.1491 242.952 30.6048 243.213 30.8652C244.027 28.4564 244.727 26.487 245.312 24.957C245.898 23.4271 246.403 22.2227 246.826 21.3438C247.249 20.4323 247.624 19.7812 247.949 19.3906C248.275 19 248.568 18.7721 248.828 18.707C249.089 18.6094 249.316 18.5931 249.512 18.6582C249.74 18.7233 249.967 18.7559 250.195 18.7559C251.074 18.7559 251.742 19.2116 252.197 20.123C252.718 21.5879 253.076 22.9876 253.271 24.3223C253.467 25.6243 253.581 26.8939 253.613 28.1309C253.646 29.3353 253.646 30.4909 253.613 31.5977C253.613 32.7044 253.646 33.7786 253.711 34.8203C253.809 35.862 253.988 36.8874 254.248 37.8965C254.541 38.9056 255.029 39.8984 255.713 40.875C255.452 41.3958 255.192 41.7539 254.932 41.9492C254.671 42.112 254.313 42.1934 253.857 42.1934C253.467 42.1934 253.125 42.0632 252.832 41.8027C252.539 41.5098 252.295 41.168 252.1 40.7773C251.904 40.3542 251.742 39.931 251.611 39.5078C251.514 39.0846 251.416 38.7103 251.318 38.3848C251.188 33.7298 250.977 30.1654 250.684 27.6914C250.423 25.1849 250.016 23.8665 249.463 23.7363C248.91 23.6061 248.193 24.6966 247.314 27.0078C246.468 29.2865 245.41 32.8672 244.141 37.75C244.043 37.9128 243.896 38.0104 243.701 38.043C243.506 38.0755 243.294 38.0918 243.066 38.0918C242.871 38.0918 242.66 38.0918 242.432 38.0918C242.236 38.0592 242.041 38.0592 241.846 38.0918C241.032 33.3066 240.348 29.8724 239.795 27.7891C239.274 25.6732 238.737 24.8594 238.184 25.3477C237.63 25.8359 237.012 27.5938 236.328 30.6211C235.645 33.6159 234.766 37.8314 233.691 43.2676L231.25 43.8535ZM259.668 33.4531C259.505 33.4857 259.261 33.5345 258.936 33.5996C258.61 33.6647 258.268 33.681 257.91 33.6484C257.552 33.6159 257.243 33.5182 256.982 33.3555C256.689 33.1927 256.543 32.916 256.543 32.5254C256.543 32.2975 256.592 32.1348 256.689 32.0371C256.787 31.9395 256.95 31.793 257.178 31.5977C257.894 31.0117 258.496 30.263 258.984 29.3516C259.505 28.4076 259.977 27.4147 260.4 26.373C260.824 25.2988 261.263 24.2409 261.719 23.1992C262.207 22.125 262.76 21.1647 263.379 20.3184C263.997 19.472 264.762 18.7884 265.674 18.2676C266.585 17.7467 267.708 17.5026 269.043 17.5352C269.596 17.5352 270.215 17.6654 270.898 17.9258C271.582 18.1862 272.217 18.5443 272.803 19C273.389 19.4232 273.877 19.944 274.268 20.5625C274.658 21.181 274.854 21.8646 274.854 22.6133C275.016 22.8737 274.854 23.248 274.365 23.7363C273.91 24.2246 273.275 24.7617 272.461 25.3477C271.647 25.901 270.719 26.487 269.678 27.1055C268.669 27.6914 267.692 28.2448 266.748 28.7656C265.804 29.2865 264.974 29.7422 264.258 30.1328C263.542 30.5234 263.07 30.8164 262.842 31.0117C262.679 31.3372 262.549 31.7116 262.451 32.1348C262.354 32.5579 262.272 32.9648 262.207 33.3555C262.174 33.7135 262.142 34.0553 262.109 34.3809C262.109 34.6738 262.109 34.9017 262.109 35.0645C262.109 35.6829 262.077 36.3665 262.012 37.1152C261.979 37.8639 262.012 38.5801 262.109 39.2637C262.24 39.9147 262.516 40.4681 262.939 40.9238C263.363 41.347 264.079 41.5586 265.088 41.5586C266.162 41.5586 267.171 41.2982 268.115 40.7773C269.059 40.224 269.938 39.5566 270.752 38.7754C271.566 37.9941 272.298 37.1478 272.949 36.2363C273.633 35.3249 274.235 34.4785 274.756 33.6973C275.309 32.8835 275.798 32.2161 276.221 31.6953C276.644 31.1745 277.002 30.9141 277.295 30.9141C277.62 30.9141 277.962 30.9792 278.32 31.1094C278.711 31.207 278.906 31.4674 278.906 31.8906C278.906 32.4766 278.662 33.1764 278.174 33.9902C277.718 34.804 277.1 35.6667 276.318 36.5781C275.57 37.4896 274.691 38.401 273.682 39.3125C272.705 40.1914 271.712 40.9889 270.703 41.7051C269.694 42.3887 268.701 42.9583 267.725 43.4141C266.748 43.8372 265.885 44.0488 265.137 44.0488C263.672 44.0488 262.565 43.6908 261.816 42.9746C261.068 42.2585 260.531 41.3633 260.205 40.2891C259.912 39.2148 259.749 38.0755 259.717 36.8711C259.717 35.6341 259.701 34.4948 259.668 33.4531ZM268.652 20.2695C268.099 20.2695 267.513 20.5462 266.895 21.0996C266.276 21.6204 265.69 22.2715 265.137 23.0527C264.616 23.8014 264.176 24.5827 263.818 25.3965C263.493 26.1777 263.33 26.8288 263.33 27.3496C263.818 27.3496 264.518 27.1706 265.43 26.8125C266.374 26.4219 267.301 25.9499 268.213 25.3965C269.124 24.8431 269.922 24.2572 270.605 23.6387C271.289 23.0202 271.631 22.4342 271.631 21.8809C271.631 21.5879 271.517 21.3438 271.289 21.1484C271.061 20.9531 270.785 20.7904 270.459 20.6602C270.166 20.5299 269.857 20.4323 269.531 20.3672C269.206 20.3021 268.913 20.2695 268.652 20.2695ZM285.205 43.2676C285.205 43.3001 285.547 43.1048 286.23 42.6816C286.947 42.2585 287.777 41.7051 288.721 41.0215C289.697 40.3053 290.69 39.5404 291.699 38.7266C292.708 37.8802 293.538 37.0827 294.189 36.334C294.84 35.5853 295.182 34.9505 295.215 34.4297C295.28 33.8763 294.84 33.5182 293.896 33.3555C292.725 33.1927 291.732 33.209 290.918 33.4043C290.137 33.5996 289.421 33.8275 288.77 34.0879C288.118 34.3483 287.5 34.5924 286.914 34.8203C286.361 35.0482 285.742 35.1296 285.059 35.0645C283.626 35.0645 282.633 34.625 282.08 33.7461C281.559 32.8346 281.299 31.6139 281.299 30.084C281.299 28.554 281.641 27.1055 282.324 25.7383C283.008 24.3385 283.887 23.1341 284.961 22.125C286.035 21.1159 287.272 20.3184 288.672 19.7324C290.072 19.1139 291.504 18.8047 292.969 18.8047C293.555 18.8047 294.059 18.8535 294.482 18.9512C294.906 19.0488 295.117 19.4232 295.117 20.0742C295.117 20.5299 294.922 20.9694 294.531 21.3926C294.141 21.7832 293.701 21.9785 293.213 21.9785C293.18 21.9785 293.099 21.9622 292.969 21.9297C292.839 21.8646 292.708 21.7832 292.578 21.6855C292.448 21.5879 292.318 21.5228 292.188 21.4902C292.057 21.4251 291.976 21.3926 291.943 21.3926C290.902 21.0996 289.893 21.2461 288.916 21.832C287.939 22.418 287.061 23.2155 286.279 24.2246C285.531 25.2012 284.928 26.2754 284.473 27.4473C284.017 28.5866 283.789 29.612 283.789 30.5234C283.789 30.8815 283.854 31.1745 283.984 31.4023C284.147 31.5977 284.342 31.7441 284.57 31.8418C284.831 31.9395 285.107 32.0046 285.4 32.0371C285.726 32.0371 286.051 32.0371 286.377 32.0371C287.028 32.0371 287.679 31.9395 288.33 31.7441C289.014 31.5488 289.665 31.321 290.283 31.0605C290.934 30.8001 291.585 30.5723 292.236 30.377C292.92 30.1816 293.62 30.084 294.336 30.084C294.661 30.084 295.02 30.1816 295.41 30.377C295.801 30.5397 296.159 30.8001 296.484 31.1582C296.81 31.4837 297.087 31.8743 297.314 32.3301C297.542 32.7533 297.673 33.2253 297.705 33.7461C297.9 34.2018 297.835 34.804 297.51 35.5527C297.217 36.3014 296.761 37.099 296.143 37.9453C295.524 38.7917 294.775 39.6543 293.896 40.5332C293.018 41.3796 292.139 42.1608 291.26 42.877C290.381 43.5605 289.518 44.1139 288.672 44.5371C287.826 44.9928 287.109 45.2044 286.523 45.1719C285.872 45.1719 285.482 44.9766 285.352 44.5859C285.254 44.1953 285.205 43.7559 285.205 43.2676ZM303.516 43.2676C303.516 43.3001 303.857 43.1048 304.541 42.6816C305.257 42.2585 306.087 41.7051 307.031 41.0215C308.008 40.3053 309.001 39.5404 310.01 38.7266C311.019 37.8802 311.849 37.0827 312.5 36.334C313.151 35.5853 313.493 34.9505 313.525 34.4297C313.59 33.8763 313.151 33.5182 312.207 33.3555C311.035 33.1927 310.042 33.209 309.229 33.4043C308.447 33.5996 307.731 33.8275 307.08 34.0879C306.429 34.3483 305.811 34.5924 305.225 34.8203C304.671 35.0482 304.053 35.1296 303.369 35.0645C301.937 35.0645 300.944 34.625 300.391 33.7461C299.87 32.8346 299.609 31.6139 299.609 30.084C299.609 28.554 299.951 27.1055 300.635 25.7383C301.318 24.3385 302.197 23.1341 303.271 22.125C304.346 21.1159 305.583 20.3184 306.982 19.7324C308.382 19.1139 309.814 18.8047 311.279 18.8047C311.865 18.8047 312.37 18.8535 312.793 18.9512C313.216 19.0488 313.428 19.4232 313.428 20.0742C313.428 20.5299 313.232 20.9694 312.842 21.3926C312.451 21.7832 312.012 21.9785 311.523 21.9785C311.491 21.9785 311.41 21.9622 311.279 21.9297C311.149 21.8646 311.019 21.7832 310.889 21.6855C310.758 21.5879 310.628 21.5228 310.498 21.4902C310.368 21.4251 310.286 21.3926 310.254 21.3926C309.212 21.0996 308.203 21.2461 307.227 21.832C306.25 22.418 305.371 23.2155 304.59 24.2246C303.841 25.2012 303.239 26.2754 302.783 27.4473C302.327 28.5866 302.1 29.612 302.1 30.5234C302.1 30.8815 302.165 31.1745 302.295 31.4023C302.458 31.5977 302.653 31.7441 302.881 31.8418C303.141 31.9395 303.418 32.0046 303.711 32.0371C304.036 32.0371 304.362 32.0371 304.688 32.0371C305.339 32.0371 305.99 31.9395 306.641 31.7441C307.324 31.5488 307.975 31.321 308.594 31.0605C309.245 30.8001 309.896 30.5723 310.547 30.377C311.23 30.1816 311.93 30.084 312.646 30.084C312.972 30.084 313.33 30.1816 313.721 30.377C314.111 30.5397 314.469 30.8001 314.795 31.1582C315.12 31.4837 315.397 31.8743 315.625 32.3301C315.853 32.7533 315.983 33.2253 316.016 33.7461C316.211 34.2018 316.146 34.804 315.82 35.5527C315.527 36.3014 315.072 37.099 314.453 37.9453C313.835 38.7917 313.086 39.6543 312.207 40.5332C311.328 41.3796 310.449 42.1608 309.57 42.877C308.691 43.5605 307.829 44.1139 306.982 44.5371C306.136 44.9928 305.42 45.2044 304.834 45.1719C304.183 45.1719 303.792 44.9766 303.662 44.5859C303.564 44.1953 303.516 43.7559 303.516 43.2676ZM331.836 42.7305C331.673 41.8841 331.527 40.875 331.396 39.7031C331.299 38.4987 331.185 37.2943 331.055 36.0898C330.924 34.8529 330.762 33.6973 330.566 32.623C330.404 31.5488 330.143 30.6699 329.785 29.9863C328.125 33.3717 326.66 36.041 325.391 37.9941C324.121 39.9147 322.998 41.2982 322.021 42.1445C321.077 42.9583 320.28 43.349 319.629 43.3164C318.978 43.2839 318.441 42.9909 318.018 42.4375C317.594 41.8841 317.285 41.1842 317.09 40.3379C316.927 39.459 316.813 38.6452 316.748 37.8965C316.748 37.1803 316.911 36.1712 317.236 34.8691C317.562 33.5671 318.001 32.151 318.555 30.6211C319.108 29.0586 319.759 27.4798 320.508 25.8848C321.289 24.2897 322.119 22.8411 322.998 21.5391C323.877 20.237 324.788 19.1628 325.732 18.3164C326.676 17.4701 327.62 17.0469 328.564 17.0469C329.964 16.819 330.99 17.1283 331.641 17.9746C332.324 18.7884 332.454 20.1719 332.031 22.125C332.031 24.2734 332.113 26.1126 332.275 27.6426C332.471 29.1725 332.666 30.6374 332.861 32.0371C333.089 33.4368 333.285 34.9017 333.447 36.4316C333.643 37.9616 333.74 39.8008 333.74 41.9492C333.74 42.3398 333.691 42.6816 333.594 42.9746C333.529 43.235 333.138 43.3652 332.422 43.3652C332.324 43.3652 332.194 43.2839 332.031 43.1211C331.901 42.9583 331.836 42.8281 331.836 42.7305ZM329.199 20.9043C328.841 20.3835 328.353 20.3346 327.734 20.7578C327.116 21.181 326.465 21.8809 325.781 22.8574C325.098 23.834 324.398 25.0059 323.682 26.373C322.965 27.7402 322.298 29.1237 321.68 30.5234C321.061 31.9232 320.524 33.2578 320.068 34.5273C319.613 35.7643 319.303 36.7897 319.141 37.6035C319.141 38.7754 319.32 39.4427 319.678 39.6055C320.036 39.7357 320.475 39.5404 320.996 39.0195C321.517 38.4987 322.103 37.75 322.754 36.7734C323.438 35.7969 324.089 34.7552 324.707 33.6484C325.358 32.5417 325.96 31.4674 326.514 30.4258C327.1 29.3841 327.555 28.5378 327.881 27.8867C328.174 27.2031 328.402 26.5684 328.564 25.9824C328.727 25.3965 328.857 24.8431 328.955 24.3223C329.085 23.7689 329.15 23.2155 329.15 22.6621C329.183 22.1087 329.199 21.5228 329.199 20.9043ZM339.648 63.0918C342.513 62.929 344.759 62.1803 346.387 60.8457C348.047 59.5111 349.284 57.7858 350.098 55.6699C350.911 53.554 351.4 51.1289 351.562 48.3945C351.725 45.6927 351.742 42.8932 351.611 39.9961C351.481 37.099 351.286 34.2018 351.025 31.3047C350.798 28.375 350.7 25.6569 350.732 23.1504C349.333 27.252 348.014 30.5723 346.777 33.1113C345.54 35.6178 344.385 37.5221 343.311 38.8242C342.269 40.0938 341.309 40.875 340.43 41.168C339.583 41.4284 338.835 41.3796 338.184 41.0215C337.533 40.6309 336.995 40.0286 336.572 39.2148C336.182 38.3685 335.905 37.5059 335.742 36.627C335.807 35.1296 336.1 33.4857 336.621 31.6953C337.174 29.8724 337.874 28.0983 338.721 26.373C339.6 24.6152 340.609 22.9876 341.748 21.4902C342.887 19.9603 344.092 18.7721 345.361 17.9258C346.631 17.0469 347.949 16.5911 349.316 16.5586C350.684 16.4935 352.002 17.0143 353.271 18.1211C353.304 18.1536 353.353 18.5931 353.418 19.4395C353.516 20.2533 353.613 21.3438 353.711 22.7109C353.841 24.0456 353.971 25.5592 354.102 27.252C354.264 28.9121 354.411 30.6048 354.541 32.3301C354.671 34.0228 354.785 35.6504 354.883 37.2129C354.98 38.7754 355.078 40.1263 355.176 41.2656C355.306 43.1211 355.225 45.0905 354.932 47.1738C354.671 49.2572 354.248 51.2754 353.662 53.2285C353.076 55.2142 352.327 57.0697 351.416 58.7949C350.537 60.5202 349.512 61.9362 348.34 63.043C347.201 64.1497 345.915 64.8496 344.482 65.1426C343.083 65.4681 341.585 65.224 339.99 64.4102C339.893 64.4102 339.746 64.3939 339.551 64.3613C339.355 64.3613 339.193 64.3125 339.062 64.2148C338.965 64.1172 338.949 63.987 339.014 63.8242C339.079 63.6615 339.29 63.4173 339.648 63.0918ZM338.281 36.2852C338.607 37.2943 339.03 37.8151 339.551 37.8477C340.104 37.8477 340.69 37.5059 341.309 36.8223C341.927 36.1061 342.594 35.1133 343.311 33.8438C344.059 32.5742 344.792 31.1908 345.508 29.6934C346.224 28.196 346.924 26.666 347.607 25.1035C348.324 23.5085 348.991 22.0273 349.609 20.6602C349.609 20.3021 349.528 19.9766 349.365 19.6836C349.202 19.3581 348.844 19.2604 348.291 19.3906C347.38 19.5859 346.484 20.0254 345.605 20.709C344.759 21.3926 343.962 22.2389 343.213 23.248C342.497 24.2246 341.829 25.3151 341.211 26.5195C340.625 27.6914 340.104 28.8796 339.648 30.084C339.225 31.2559 338.883 32.3789 338.623 33.4531C338.395 34.5273 338.281 35.4714 338.281 36.2852ZM359.57 33.4531C359.408 33.4857 359.163 33.5345 358.838 33.5996C358.512 33.6647 358.171 33.681 357.812 33.6484C357.454 33.6159 357.145 33.5182 356.885 33.3555C356.592 33.1927 356.445 32.916 356.445 32.5254C356.445 32.2975 356.494 32.1348 356.592 32.0371C356.689 31.9395 356.852 31.793 357.08 31.5977C357.796 31.0117 358.398 30.263 358.887 29.3516C359.408 28.4076 359.88 27.4147 360.303 26.373C360.726 25.2988 361.165 24.2409 361.621 23.1992C362.109 22.125 362.663 21.1647 363.281 20.3184C363.9 19.472 364.665 18.7884 365.576 18.2676C366.488 17.7467 367.611 17.5026 368.945 17.5352C369.499 17.5352 370.117 17.6654 370.801 17.9258C371.484 18.1862 372.119 18.5443 372.705 19C373.291 19.4232 373.779 19.944 374.17 20.5625C374.561 21.181 374.756 21.8646 374.756 22.6133C374.919 22.8737 374.756 23.248 374.268 23.7363C373.812 24.2246 373.177 24.7617 372.363 25.3477C371.549 25.901 370.622 26.487 369.58 27.1055C368.571 27.6914 367.594 28.2448 366.65 28.7656C365.706 29.2865 364.876 29.7422 364.16 30.1328C363.444 30.5234 362.972 30.8164 362.744 31.0117C362.581 31.3372 362.451 31.7116 362.354 32.1348C362.256 32.5579 362.174 32.9648 362.109 33.3555C362.077 33.7135 362.044 34.0553 362.012 34.3809C362.012 34.6738 362.012 34.9017 362.012 35.0645C362.012 35.6829 361.979 36.3665 361.914 37.1152C361.882 37.8639 361.914 38.5801 362.012 39.2637C362.142 39.9147 362.419 40.4681 362.842 40.9238C363.265 41.347 363.981 41.5586 364.99 41.5586C366.064 41.5586 367.074 41.2982 368.018 40.7773C368.962 40.224 369.84 39.5566 370.654 38.7754C371.468 37.9941 372.201 37.1478 372.852 36.2363C373.535 35.3249 374.137 34.4785 374.658 33.6973C375.212 32.8835 375.7 32.2161 376.123 31.6953C376.546 31.1745 376.904 30.9141 377.197 30.9141C377.523 30.9141 377.865 30.9792 378.223 31.1094C378.613 31.207 378.809 31.4674 378.809 31.8906C378.809 32.4766 378.564 33.1764 378.076 33.9902C377.62 34.804 377.002 35.6667 376.221 36.5781C375.472 37.4896 374.593 38.401 373.584 39.3125C372.607 40.1914 371.615 40.9889 370.605 41.7051C369.596 42.3887 368.604 42.9583 367.627 43.4141C366.65 43.8372 365.788 44.0488 365.039 44.0488C363.574 44.0488 362.467 43.6908 361.719 42.9746C360.97 42.2585 360.433 41.3633 360.107 40.2891C359.814 39.2148 359.652 38.0755 359.619 36.8711C359.619 35.6341 359.603 34.4948 359.57 33.4531ZM368.555 20.2695C368.001 20.2695 367.415 20.5462 366.797 21.0996C366.178 21.6204 365.592 22.2715 365.039 23.0527C364.518 23.8014 364.079 24.5827 363.721 25.3965C363.395 26.1777 363.232 26.8288 363.232 27.3496C363.721 27.3496 364.421 27.1706 365.332 26.8125C366.276 26.4219 367.204 25.9499 368.115 25.3965C369.027 24.8431 369.824 24.2572 370.508 23.6387C371.191 23.0202 371.533 22.4342 371.533 21.8809C371.533 21.5879 371.419 21.3438 371.191 21.1484C370.964 20.9531 370.687 20.7904 370.361 20.6602C370.068 20.5299 369.759 20.4323 369.434 20.3672C369.108 20.3021 368.815 20.2695 368.555 20.2695ZM380.811 20.123C380.811 17.1283 380.876 14.166 381.006 11.2363C381.136 8.27409 381.299 5.23047 381.494 2.10547C381.592 1.84505 381.706 1.68229 381.836 1.61719C381.966 1.51953 382.145 1.4707 382.373 1.4707C382.699 1.4707 382.926 1.56836 383.057 1.76367C383.187 1.92643 383.268 2.12174 383.301 2.34961C383.366 2.57747 383.382 2.83789 383.35 3.13086C383.35 3.39128 383.35 3.61914 383.35 3.81445V18.7559C383.35 19.3418 383.398 19.9603 383.496 20.6113L383.789 22.5645C383.919 23.2155 384.001 23.834 384.033 24.4199C384.098 24.9733 384.066 25.4453 383.936 25.8359C383.87 26.194 383.675 26.5033 383.35 26.7637C383.057 27.0241 382.731 27.1543 382.373 27.1543C381.787 27.1543 381.38 26.8613 381.152 26.2754C380.924 25.6895 380.778 25.0059 380.713 24.2246C380.68 23.4434 380.68 22.6621 380.713 21.8809C380.778 21.0996 380.811 20.5137 380.811 20.123ZM383.887 42.8281V42.0469C383.887 41.8841 383.903 41.7214 383.936 41.5586C383.968 41.3633 384.033 41.2005 384.131 41.0703C384.229 40.9401 384.375 40.875 384.57 40.875C385.221 40.875 385.596 41.0378 385.693 41.3633C385.824 41.6562 385.889 42.0143 385.889 42.4375C385.889 42.8932 385.824 43.2676 385.693 43.5605C385.596 43.8535 385.221 44 384.57 44C384.375 44 384.229 43.9349 384.131 43.8047C384.033 43.6745 383.968 43.528 383.936 43.3652C383.903 43.1699 383.887 42.9909 383.887 42.8281Z" fill="#E54343"/>
</svg>
