<svg width="53" height="36" viewBox="0 0 53 36" fill="none" xmlns="http://www.w3.org/2000/svg">
<path d="M10.6705 35L0.988636 0.0909081H6.52841L13.3295 27.125H13.6534L20.7273 0.0909081H26.2159L33.2898 27.142H33.6136L40.3977 0.0909081H45.9545L36.2557 35H30.9545L23.608 8.85227H23.3352L15.9886 35H10.6705ZM49.0653 35.3239C48.1335 35.3239 47.3324 34.9943 46.6619 34.3352C45.9915 33.6648 45.6562 32.858 45.6562 31.9148C45.6562 30.983 45.9915 30.1875 46.6619 29.5284C47.3324 28.858 48.1335 28.5227 49.0653 28.5227C49.9972 28.5227 50.7983 28.858 51.4688 29.5284C52.1392 30.1875 52.4744 30.983 52.4744 31.9148C52.4744 32.5398 52.3153 33.1136 51.9972 33.6364C51.6903 34.1477 51.2812 34.5568 50.7699 34.8636C50.2585 35.1705 49.6903 35.3239 49.0653 35.3239Z" fill="#FAFAFA"/>
</svg>
