<?xml version="1.0" standalone="no"?>
<!DOCTYPE svg PUBLIC "-//W3C//DTD SVG 20010904//EN"
 "http://www.w3.org/TR/2001/REC-SVG-20010904/DTD/svg10.dtd">
<svg version="1.0" xmlns="http://www.w3.org/2000/svg"
 width="700.000000pt" height="700.000000pt" viewBox="0 0 700.000000 700.000000"
 preserveAspectRatio="xMidYMid meet">
<metadata>
Created by potrace 1.14, written by Peter Selinger 2001-2017
</metadata>
<g transform="translate(0.000000,700.000000) scale(0.100000,-0.100000)"
fill="#000000" stroke="none">
<path d="M2245 6682 c-19 -3 -20 -10 -18 -157 1 -85 -1 -156 -5 -156 -4 -1
-146 -2 -317 -3 l-310 -2 -3 -157 c-1 -86 -6 -157 -10 -158 -4 -1 -74 -2 -157
-3 l-150 -1 -5 -160 -5 -160 -155 0 -155 0 0 -155 -1 -155 -157 -3 c-115 -2
-157 -6 -158 -15 -1 -6 -2 -149 -3 -317 l-1 -305 -153 -1 c-84 -1 -156 -4
-159 -7 -7 -8 -7 -2526 0 -2533 3 -3 74 -7 159 -7 l153 -2 0 -315 0 -315 160
-5 160 -5 0 -155 0 -155 158 0 157 0 1 -25 c0 -14 1 -85 1 -157 0 -93 3 -133
11 -134 7 -1 77 -2 157 -3 l145 -1 3 -158 c1 -86 6 -157 10 -158 4 -1 147 -2
317 -2 l310 -2 1 -153 c1 -84 4 -156 7 -159 8 -7 2526 -7 2534 1 3 3 6 73 5
156 0 105 4 150 12 151 6 1 148 2 316 3 l305 2 5 159 5 160 152 -1 c131 -1
153 2 157 15 3 9 5 78 4 154 0 76 2 141 6 144 3 3 74 6 158 7 l153 1 0 157 0
158 158 0 c86 0 157 3 158 8 1 4 2 147 3 317 l1 310 158 0 c150 0 157 1 158
20 0 28 0 2486 0 2507 -1 16 -17 18 -158 20 l-158 3 0 315 -1 315 -159 5 -160
5 0 155 0 155 -153 1 c-84 1 -155 4 -159 7 -3 4 -6 75 -5 159 l0 153 -156 0
-157 0 -5 160 -5 159 -317 0 -317 0 2 158 c2 152 1 158 -18 159 -80 2 -2494 3
-2510 1z m937 -1909 l3 -318 155 0 155 0 3 158 3 157 152 1 c83 1 156 1 160 0
4 -1 7 52 7 116 -1 65 -1 137 -1 161 l1 42 318 0 317 0 0 -307 c0 -170 -4
-313 -7 -318 -4 -7 -59 -11 -150 -10 -79 1 -147 -2 -153 -6 -6 -4 -10 -66 -9
-154 1 -124 -1 -147 -15 -154 -9 -4 -80 -7 -158 -6 l-143 2 -1 -51 c0 -28 0
-99 1 -158 l1 -108 -68 -1 c-37 0 -108 -1 -158 -2 l-90 -2 -3 -157 -3 -158
161 0 160 0 -1 -92 c0 -51 0 -123 0 -161 l1 -67 93 1 c50 0 122 0 158 0 l66
-1 -1 -155 c-1 -95 3 -156 9 -158 6 -2 76 -3 158 -3 81 1 148 -1 148 -4 3 -15
4 -927 1 -937 -3 -10 -76 -13 -318 -13 l-314 0 0 23 c0 12 -2 155 -3 317 l-2
295 -155 0 -155 0 -5 160 -5 159 -153 1 c-127 0 -153 -2 -157 -15 -2 -8 -4
-64 -4 -125 0 -60 0 -269 0 -462 l-1 -353 -318 0 -317 0 1 1588 c1 873 2 1588
3 1590 0 1 143 2 316 2 l315 0 2 -317z"/>
</g>
</svg>
